<?xml version="1.0" encoding="utf-8"?>
<!-- Generator: Adobe Illustrator 15.1.0, SVG Export Plug-In . SVG Version: 6.00 Build 0)  -->
<!DOCTYPE svg PUBLIC "-//W3C//DTD SVG 1.1//EN" "http://www.w3.org/Graphics/SVG/1.1/DTD/svg11.dtd">
<svg version="1.1" id="Layer_1" xmlns="http://www.w3.org/2000/svg" xmlns:xlink="http://www.w3.org/1999/xlink" x="0px" y="0px"
	 width="605.208px" height="589.18px" viewBox="0 0 605.208 589.18" enable-background="new 0 0 605.208 589.18"
	 xml:space="preserve">
<rect fill="#FFFFFF" width="605.208" height="589.18"/>
<path fill="#D3A536" d="M401.631,525.012c0.273,0.609,0.727,1.613,0.727,1.613s0.682,1.264,2.031,3.035
	c0.701,0.921,1.891,1.413,2.104,1.633c0.213,0.221-1.105,0.594-1.092,0.945c0.016,0.354,0.363,0.582,0.363,0.582
	s10.537,0.292,11.773,0c1.236-0.291-0.027-1.842-0.973-2.203c-0.947-0.365-1.869,0.024-2.996,0c-0.484-0.013-2.85-0.076-2.846-0.558
	c0.006-0.625,1.064-0.137,2.818-0.895c0,0,2.486-0.777,3.213-2.746c1.213-3.292-2.477-5.923-4.189-6.248
	c-1.02-0.19,7.014,0.617,4.916,6.78c-0.293,0.861-0.855,1.533-1.461,2.045c0.879-0.409,1.885-0.955,2.682-0.904
	c1.164,0.072,4.402,0.568,4.801,0.872s0.873,2.401,1.455,2.401s1.383,0.291,1.383,0.291s0.67,0.856,1.018,0.872
	c0.35,0.016,3.164,0.291,3.893,0c0.73-0.291-0.281-1.191-1.664-1.482c-1.381-0.291-0.809,0.109-1.344-0.053
	c-0.537-0.161-0.322-2.229-0.322-2.229s1.402-0.019,2.059-0.527c0.652-0.51,3.42-2.837,4-4.364c0.584-1.528-0.23-2.606-0.23-2.606
	s0.113-1.591,1.83-1.813c1.721-0.226,0.889-0.101,1.699,0c0.811,0.098,1.994-0.847,1.994-0.847s-1.193-0.462-0.896-0.791
	c0.217-0.241,0.896,0.557,0.896,0.557s0.24-0.021,0.303-0.18c0.889-2.196-1.914-4.184-2.791-5.089
	c-0.93-0.96-2.248-1.907-3.791-1.851c-0.574-0.652-0.648-1.464-1.125-2.058c-0.615-0.771-1.898-1.376-2.311-1.824
	c-0.787-0.852-1.164-3.063-1.812-3.793c-0.381-0.433-0.986,1.97-0.096,4.575c-0.725-0.66-1.219-2.353-1.363-2.854
	c-0.217-0.746-1.26,2.379,0.857,5.786c0.275,0.445,1.137,0.999,1.826,1.453c-0.391,0.519-0.529,2.078-2.211,2.604
	c-1.406,0.442-2.836,0.536-4.781-0.199c-0.855-0.322-2.406-1.512-3.785-2.216c-1.328-0.678-5.58-1.085-7.814-0.26
	c-6.34,2.341-7.291,8.831-7.553,9.719C402.561,523.076,400.481,522.454,401.631,525.012z M434.03,514.763
	c0.084-0.143,0.27-0.188,0.412-0.103l0.494,0.299c0.143,0.086,0.189,0.269,0.104,0.412c-0.084,0.143-0.27,0.188-0.412,0.103
	l-0.496-0.299C433.989,515.089,433.944,514.905,434.03,514.763z"/>
<polyline fill="none" stroke="#A97C50" stroke-width="2" stroke-miterlimit="10" points="593.448,577.709 593.448,159.428 
	383.356,159.428 "/>
<polyline fill="none" stroke="#A97C50" stroke-width="2" stroke-miterlimit="10" points="173.262,159.428 383.356,159.428 
	383.405,577.709 "/>
<polyline fill="none" stroke="#A97C50" stroke-width="3" stroke-miterlimit="10" points="593.481,159.428 593.432,11.525 
	173.262,11.525 173.262,159.428 "/>
<polyline fill="none" stroke="#D3A536" stroke-width="2" stroke-miterlimit="10" points="173.262,159.428 173.262,370.603 
	593.448,370.603 "/>
<polyline fill="none" stroke="#D3A536" stroke-width="2" stroke-miterlimit="10" points="173.262,370.603 173.262,577.709 
	593.448,577.709 "/>
<polygon fill="none" stroke="#C49A6C" stroke-width="3" stroke-miterlimit="10" points="428.411,577.709 593.713,577.709 
	593.713,11.525 428.03,11.525 177.235,11.525 11.549,11.525 11.549,577.709 176.854,577.709 "/>
<path fill="#A97C50" d="M579.497,245.42c-0.264-0.889-1.215-7.379-7.555-9.719c-2.232-0.826-6.486-0.418-7.814,0.26
	c-1.379,0.703-2.928,1.893-3.783,2.215c-1.947,0.736-3.375,0.643-4.783,0.199c-1.682-0.527-1.818-2.086-2.209-2.605
	c0.688-0.453,1.549-1.008,1.826-1.453c2.115-3.406,1.074-6.531,0.855-5.785c-0.146,0.5-0.641,2.191-1.363,2.852
	c0.891-2.605,0.287-5.006-0.096-4.574c-0.646,0.729-1.025,2.941-1.812,3.793c-0.414,0.447-1.693,1.053-2.311,1.824
	c-0.477,0.594-0.551,1.404-1.125,2.057c-1.541-0.057-2.861,0.891-3.791,1.852c-0.875,0.904-3.678,2.891-2.789,5.088
	c0.061,0.158,0.301,0.18,0.301,0.18s0.68-0.799,0.896-0.557c0.299,0.33-0.896,0.791-0.896,0.791s1.186,0.943,1.996,0.846
	c0.809-0.1-0.021-0.225,1.697,0c1.717,0.225,1.83,1.814,1.83,1.814s-0.812,1.078-0.23,2.607c0.582,1.527,3.346,3.855,4.002,4.363
	c0.654,0.51,2.057,0.529,2.057,0.529s0.217,2.066-0.32,2.229s0.037-0.238-1.346,0.053c-1.385,0.291-2.393,1.191-1.662,1.482
	c0.727,0.291,3.543,0.016,3.891,0c0.35-0.016,1.02-0.873,1.02-0.873s0.799-0.291,1.383-0.291c0.582,0,1.055-2.098,1.453-2.4
	c0.4-0.305,3.637-0.801,4.801-0.873c0.799-0.051,1.805,0.496,2.682,0.904c-0.604-0.512-1.168-1.184-1.461-2.045
	c-2.098-6.162,5.936-6.971,4.918-6.779c-1.715,0.324-5.402,2.955-4.189,6.248c0.725,1.969,3.213,2.746,3.213,2.746
	c1.752,0.758,2.812,0.27,2.814,0.895c0.004,0.48-2.357,0.545-2.842,0.557c-1.127,0.025-2.051-0.365-2.996,0
	c-0.943,0.361-2.211,1.912-0.975,2.203c1.238,0.291,11.773,0,11.773,0s0.35-0.229,0.363-0.582c0.014-0.352-1.305-0.725-1.092-0.945
	c0.215-0.221,1.404-0.713,2.104-1.633c1.352-1.771,2.029-3.035,2.029-3.035s0.455-1.004,0.73-1.613
	C581.838,245.684,579.758,246.307,579.497,245.42z M548.188,238.404l-0.496,0.299c-0.143,0.086-0.326,0.041-0.412-0.102
	c-0.086-0.145-0.039-0.326,0.104-0.412l0.496-0.299c0.141-0.086,0.326-0.041,0.412,0.102
	C548.377,238.135,548.331,238.318,548.188,238.404z"/>
<path fill="#D3A536" d="M188.794,525.012c0.273,0.609,0.729,1.613,0.729,1.613s0.68,1.264,2.029,3.035
	c0.701,0.921,1.891,1.413,2.105,1.633c0.213,0.221-1.105,0.594-1.092,0.945c0.014,0.354,0.363,0.582,0.363,0.582
	s10.535,0.292,11.773,0c1.236-0.291-0.029-1.842-0.975-2.203c-0.945-0.365-1.869,0.024-2.996,0
	c-0.482-0.013-2.846-0.076-2.842-0.558c0.002-0.625,1.064-0.137,2.816-0.895c0,0,2.488-0.777,3.213-2.746
	c1.213-3.292-2.477-5.923-4.191-6.248c-1.016-0.19,7.016,0.617,4.918,6.78c-0.293,0.861-0.857,1.533-1.461,2.045
	c0.877-0.409,1.883-0.955,2.682-0.904c1.164,0.072,4.4,0.568,4.801,0.872c0.398,0.304,0.871,2.401,1.453,2.401
	c0.584,0,1.383,0.291,1.383,0.291s0.67,0.856,1.02,0.872c0.348,0.016,3.164,0.291,3.891,0c0.729-0.291-0.279-1.191-1.662-1.482
	s-0.809,0.109-1.346-0.053c-0.537-0.161-0.32-2.229-0.32-2.229s1.4-0.019,2.055-0.527c0.656-0.51,3.42-2.837,4.002-4.364
	c0.582-1.528-0.229-2.606-0.229-2.606s0.111-1.591,1.83-1.813c1.719-0.226,0.889-0.101,1.697,0c0.811,0.098,1.996-0.847,1.996-0.847
	s-1.195-0.462-0.896-0.791c0.217-0.241,0.896,0.557,0.896,0.557s0.238-0.021,0.301-0.18c0.889-2.196-1.914-4.184-2.789-5.089
	c-0.93-0.96-2.25-1.907-3.791-1.851c-0.574-0.652-0.65-1.464-1.125-2.058c-0.617-0.771-1.898-1.376-2.312-1.824
	c-0.785-0.852-1.164-3.063-1.811-3.793c-0.383-0.433-0.986,1.97-0.096,4.575c-0.725-0.66-1.219-2.353-1.363-2.854
	c-0.219-0.746-1.26,2.379,0.855,5.786c0.277,0.445,1.139,0.999,1.826,1.453c-0.391,0.519-0.527,2.078-2.209,2.604
	c-1.408,0.442-2.836,0.536-4.783-0.199c-0.855-0.322-2.404-1.512-3.783-2.216c-1.328-0.678-5.582-1.085-7.814-0.26
	c-6.34,2.341-7.291,8.831-7.555,9.719C189.724,523.076,187.644,522.454,188.794,525.012z M221.193,514.763
	c0.086-0.143,0.271-0.188,0.412-0.103l0.496,0.299c0.143,0.086,0.189,0.269,0.104,0.412c-0.086,0.143-0.271,0.188-0.412,0.103
	l-0.496-0.299C221.154,515.089,221.107,514.905,221.193,514.763z"/>
<path fill="#A97C50" d="M467.168,96.194c-0.484-1.158-8.621-15.146-17.424-30.182c0.207-0.285,0.289-0.643,0.174-1.107
	c-0.518-2.072-0.689-4.143-1.383-4.143c-0.352,0-1.104,0-1.803,0.113c-9.834-16.773-19.518-33.197-19.518-33.197v3.172l1.502,1.982
	c1.59,1.391,9.148,14.629,16.816,28.459c-0.127,0.094-0.227,0.203-0.277,0.332c-0.346,0.865-0.518,1.727-1.383,2.244
	c-0.861,0.52-4.486,2.762-6.041,3.625c-1.553,0.863-4.312,3.279-4.312,3.279s-10.676-5.018-11.537-5.879
	c-0.863-0.863-2.59-3.107-4.662-4.143c0,0-4.549-1.531-3.234-3.795c1.316-2.264,1.145-1.637,1.861-3.498
	c1.707-4.43-2.24-7.041-2.24-7.041l-2.453-0.746l-5.838,1.412c0,0-1.734,2.158-1.037,4.008c0.371,0.982,0.336,1.994-0.33,3.785
	c-0.055,0.146,0.678,0.053,0.615,0.221c-0.049,0.135-0.166,0.525-0.223,0.676c-0.963,2.648,0.105,3.822,0.105,3.822l1.592,1.215
	l-1.342,2.35c0,0-3.482,1.617-4.814,3.129c-1.334,1.514-3.371,12.283-3.371,12.283s-1.802,7.977-1.688,7.465
	c0.115-0.512-5.909,5.344-6.473,6.41c-0.561,1.066-1.322,6.826-0.633,7.318c0.689,0.49,2.178-2.924,2.178-2.924
	c1.017-0.643,0.713-1.188,0.854-2.566c0.187-1.779,4.074-4.145,4.074-4.145s4.003-1.559,4.427-3.256
	c0.42-1.697,1.797-7.25,1.797-7.25l1.725,6.895l0.119,6.859c-2.877,0.721-17.992,11.588-17.729,16.334
	c0,0,11.341,19.908,9.756,23.861c-1.58,3.955-4.289,5.568-5.498,6.445c-0.319,0.232-0.045,1.178,0.804,1.51
	c1.858,0.734,4.518-4.062,7.682-4.326c3.166-0.264,3.771-4.02,2.717-4.811c-1.055-0.793-4.119-5.938-4.119-6.992
	s-2.65-13.713-3.172-16.35c-0.52-2.637,12.402-6.33,15.037-8.176c2.637-1.846,3.762,14.512,5.607,16.885
	c1.846,2.375,11.736,7.113,12.295,11.596c0.559,4.484,0.596,5.203-0.984,5.779c-1.582,0.576-1.582,2.686-1.582,2.686
	s2.35,1.584,3.812,0c1.461-1.582,3.02-4.691,4.209-5.738c1.5-1.324,1.428-4.832,0.637-5.096c-0.793-0.264-6.617-3.965-7.525-5.588
	c-1.133-2.027-2.744-5.59-5.061-7.328c-3.754-2.82,0.51-7.148-0.545-13.477c-0.828-4.969,1.057-7.707,0.264-11.398
	c-0.789-3.693-3.729-4.457-3.297-9.42s4.131-10.049,4.131-10.049s11.881,6.744,13.609,6.398c1.725-0.346,9.318-8.113,11.219-8.631
	c0.969-0.264,2.297-0.396,3.297-0.734c7.832,14.223,14.961,27.504,14.961,27.504l2.578,4.51
	C466.094,98.772,468.241,98.772,467.168,96.194z"/>
<path fill="#A97C50" d="M484.659,239.769l1.676-2.934c0,0,4.639-8.641,9.732-17.895c0.65,0.221,1.516,0.307,2.145,0.479
	c1.236,0.336,6.176,5.389,7.299,5.613c1.123,0.227,8.855-4.162,8.855-4.162s2.406,3.309,2.688,6.539
	c0.281,3.227-1.631,3.725-2.145,6.127c-0.518,2.402,0.711,4.184,0.172,7.416c-0.689,4.117,2.086,6.932-0.355,8.768
	c-1.508,1.131-2.555,3.449-3.291,4.768c-0.592,1.057-4.381,3.465-4.896,3.637c-0.514,0.172-0.562,2.453,0.414,3.314
	c0.773,0.682,1.787,2.703,2.738,3.734c0.951,1.029,2.48,0,2.48,0s0-1.373-1.029-1.748s-1.004-0.844-0.641-3.76
	c0.363-2.918,6.799-6,7.998-7.545c1.201-1.543,1.934-12.186,3.648-10.984c1.713,1.202,10.119,3.604,9.781,5.318
	s-2.061,9.951-2.061,10.637s-1.994,4.033-2.684,4.549c-0.686,0.516-0.291,2.959,1.77,3.131c2.059,0.172,3.789,3.291,4.998,2.814
	c0.551-0.217,0.73-0.832,0.521-0.982c-0.785-0.57-2.549-1.619-3.576-4.193c-1.029-2.572,6.348-15.523,6.348-15.523
	c0.172-3.088-9.662-10.158-11.533-10.627l0.076-4.463l1.123-4.486c0,0,0.895,3.613,1.168,4.717c0.271,1.104,2.879,2.119,2.879,2.119
	s2.531,1.539,2.65,2.695c0.094,0.898-0.105,1.252,0.557,1.67c0,0,0.967,2.223,1.416,1.902c0.449-0.321-0.047-4.066-0.41-4.762
	c-0.367-0.693-4.287-4.502-4.213-4.17c0.076,0.334-1.096-4.857-1.096-4.857s-1.326-7.006-2.193-7.99
	c-0.867-0.982-3.133-2.035-3.133-2.035l-0.873-1.527l1.035-0.791c0,0,0.695-0.764,0.07-2.488c-0.037-0.098-0.113-0.352-0.146-0.439
	c-0.039-0.109,0.438-0.049,0.402-0.143c-0.436-1.166-0.457-1.824-0.217-2.463c0.453-1.203-0.676-2.607-0.676-2.607l-3.799-0.92
	l-1.596,0.486c0,0-2.566,1.699-1.457,4.58c0.467,1.213,0.355,0.803,1.211,2.277c0.855,1.473-2.104,2.469-2.104,2.469
	c-1.348,0.672-2.473,2.133-3.033,2.693c-0.561,0.562-7.506,3.826-7.506,3.826s-1.797-1.572-2.809-2.133
	c-1.01-0.562-3.369-2.021-3.93-2.359c-0.562-0.336-0.676-0.898-0.898-1.459c-0.033-0.086-0.098-0.156-0.18-0.217
	c4.988-8.998,9.902-17.611,10.938-18.516l0.98-1.289v-2.064c0,0-6.301,10.686-12.699,21.598c-0.455-0.072-0.945-0.074-1.172-0.074
	c-0.451,0-0.562,1.348-0.898,2.697c-0.076,0.303-0.023,0.533,0.113,0.719c-5.729,9.783-11.021,18.883-11.336,19.637
	C483.258,239.769,484.659,239.769,484.659,239.769z"/>
<path fill="#A97C50" d="M579.497,440.269c-0.264-0.889-1.215-7.379-7.555-9.719c-2.232-0.826-6.486-0.418-7.814,0.26
	c-1.379,0.703-2.928,1.894-3.783,2.216c-1.947,0.735-3.375,0.643-4.783,0.198c-1.682-0.526-1.818-2.086-2.209-2.604
	c0.688-0.453,1.549-1.008,1.826-1.453c2.115-3.406,1.074-6.531,0.855-5.785c-0.146,0.5-0.641,2.191-1.363,2.853
	c0.891-2.605,0.287-5.007-0.096-4.574c-0.646,0.729-1.025,2.94-1.812,3.793c-0.414,0.447-1.693,1.053-2.311,1.824
	c-0.477,0.594-0.551,1.403-1.125,2.057c-1.541-0.057-2.861,0.891-3.791,1.852c-0.875,0.904-3.678,2.892-2.789,5.089
	c0.061,0.157,0.301,0.18,0.301,0.18s0.68-0.799,0.896-0.557c0.299,0.329-0.896,0.79-0.896,0.79s1.186,0.943,1.996,0.847
	c0.809-0.101-0.021-0.226,1.697,0c1.717,0.225,1.83,1.813,1.83,1.813s-0.812,1.078-0.23,2.607c0.582,1.527,3.346,3.854,4.002,4.363
	c0.654,0.51,2.057,0.528,2.057,0.528s0.217,2.066-0.32,2.229s0.037-0.238-1.346,0.053c-1.385,0.291-2.393,1.191-1.662,1.482
	c0.727,0.291,3.543,0.016,3.891,0c0.35-0.017,1.02-0.873,1.02-0.873s0.799-0.291,1.383-0.291c0.582,0,1.055-2.099,1.453-2.4
	c0.4-0.305,3.637-0.801,4.801-0.873c0.799-0.051,1.805,0.496,2.682,0.904c-0.604-0.512-1.168-1.185-1.461-2.045
	c-2.098-6.162,5.936-6.972,4.918-6.779c-1.715,0.324-5.402,2.955-4.189,6.248c0.725,1.969,3.213,2.746,3.213,2.746
	c1.752,0.758,2.812,0.27,2.814,0.895c0.004,0.48-2.357,0.546-2.842,0.558c-1.127,0.024-2.051-0.365-2.996,0
	c-0.943,0.36-2.211,1.912-0.975,2.203c1.238,0.291,11.773,0,11.773,0s0.35-0.229,0.363-0.582s-1.305-0.726-1.092-0.945
	c0.215-0.221,1.404-0.713,2.104-1.633c1.352-1.771,2.029-3.035,2.029-3.035s0.455-1.004,0.73-1.613
	C581.838,440.532,579.758,441.155,579.497,440.269z M548.188,433.253l-0.496,0.299c-0.143,0.086-0.326,0.041-0.412-0.102
	c-0.086-0.146-0.039-0.326,0.104-0.412l0.496-0.299c0.141-0.086,0.326-0.041,0.412,0.102
	C548.377,432.984,548.331,433.167,548.188,433.253z"/>
<path fill="#A97C50" d="M484.659,434.617l1.676-2.935c0,0,4.639-8.641,9.732-17.895c0.65,0.221,1.516,0.307,2.145,0.479
	c1.236,0.337,6.176,5.39,7.299,5.613c1.123,0.228,8.855-4.162,8.855-4.162s2.406,3.31,2.688,6.539
	c0.281,3.228-1.631,3.726-2.145,6.127c-0.518,2.402,0.711,4.185,0.172,7.416c-0.689,4.117,2.086,6.933-0.355,8.769
	c-1.508,1.131-2.555,3.448-3.291,4.768c-0.592,1.057-4.381,3.465-4.896,3.637c-0.514,0.173-0.562,2.453,0.414,3.314
	c0.773,0.682,1.787,2.703,2.738,3.734c0.951,1.028,2.48,0,2.48,0s0-1.373-1.029-1.748s-1.004-0.845-0.641-3.761
	c0.363-2.918,6.799-6,7.998-7.545c1.201-1.543,1.934-12.186,3.648-10.983c1.713,1.201,10.119,3.604,9.781,5.317
	s-2.061,9.951-2.061,10.638c0,0.686-1.994,4.032-2.684,4.549c-0.686,0.516-0.291,2.959,1.77,3.131
	c2.059,0.172,3.789,3.291,4.998,2.813c0.551-0.217,0.73-0.832,0.521-0.981c-0.785-0.57-2.549-1.619-3.576-4.193
	c-1.029-2.571,6.348-15.522,6.348-15.522c0.172-3.088-9.662-10.158-11.533-10.627l0.076-4.464l1.123-4.485
	c0,0,0.895,3.613,1.168,4.717c0.271,1.104,2.879,2.119,2.879,2.119s2.531,1.539,2.65,2.695c0.094,0.897-0.105,1.252,0.557,1.67
	c0,0,0.967,2.223,1.416,1.901c0.449-0.32-0.047-4.065-0.41-4.762c-0.367-0.693-4.287-4.502-4.213-4.17
	c0.076,0.334-1.096-4.857-1.096-4.857s-1.326-7.006-2.193-7.989c-0.867-0.982-3.133-2.035-3.133-2.035l-0.873-1.527l1.035-0.791
	c0,0,0.695-0.764,0.07-2.488c-0.037-0.098-0.113-0.352-0.146-0.438c-0.039-0.109,0.438-0.049,0.402-0.143
	c-0.436-1.166-0.457-1.824-0.217-2.464c0.453-1.202-0.676-2.606-0.676-2.606l-3.799-0.92l-1.596,0.485c0,0-2.566,1.699-1.457,4.58
	c0.467,1.213,0.355,0.804,1.211,2.277c0.855,1.473-2.104,2.469-2.104,2.469c-1.348,0.672-2.473,2.133-3.033,2.693
	c-0.561,0.562-7.506,3.826-7.506,3.826s-1.797-1.572-2.809-2.134c-1.01-0.562-3.369-2.021-3.93-2.358
	c-0.562-0.336-0.676-0.898-0.898-1.459c-0.033-0.086-0.098-0.156-0.18-0.217c4.988-8.998,9.902-17.611,10.938-18.517l0.98-1.289
	v-2.063c0,0-6.301,10.686-12.699,21.598c-0.455-0.072-0.945-0.074-1.172-0.074c-0.451,0-0.562,1.349-0.898,2.697
	c-0.076,0.303-0.023,0.533,0.113,0.719c-5.729,9.783-11.021,18.883-11.336,19.638C483.258,434.617,484.659,434.617,484.659,434.617z
	"/>
<path fill="#D3A536" d="M400.518,324.137l1.676-2.935c0,0,4.639-8.642,9.732-17.894c0.652,0.219,1.516,0.305,2.146,0.478
	c1.234,0.337,6.176,5.39,7.299,5.614c1.123,0.226,8.854-4.162,8.854-4.162s2.406,3.309,2.688,6.538
	c0.281,3.228-1.631,3.726-2.145,6.128c-0.516,2.4,0.711,4.183,0.172,7.416c-0.688,4.116,2.086,6.932-0.355,8.768
	c-1.508,1.131-2.555,3.449-3.291,4.769c-0.592,1.056-4.381,3.464-4.895,3.636c-0.516,0.172-0.562,2.453,0.414,3.313
	c0.771,0.683,1.785,2.704,2.736,3.734c0.951,1.029,2.48,0,2.48,0s0-1.373-1.029-1.748s-1.004-0.843-0.641-3.76
	s6.799-5.999,7.998-7.544c1.201-1.544,1.934-12.188,3.648-10.985c1.713,1.202,10.121,3.604,9.783,5.319s-2.062,9.95-2.062,10.637
	c0,0.686-1.994,4.033-2.682,4.549c-0.686,0.516-0.291,2.958,1.768,3.13s3.789,3.292,4.998,2.814
	c0.551-0.217,0.732-0.831,0.523-0.982c-0.787-0.568-2.549-1.619-3.578-4.191s6.348-15.524,6.348-15.524
	c0.172-3.088-9.662-10.158-11.533-10.626l0.076-4.464l1.123-4.485c0,0,0.895,3.613,1.168,4.718c0.273,1.104,2.879,2.118,2.879,2.118
	s2.531,1.538,2.65,2.695c0.094,0.897-0.104,1.252,0.557,1.67c0,0,0.967,2.222,1.416,1.901c0.449-0.319-0.047-4.066-0.41-4.761
	c-0.367-0.693-4.287-4.503-4.213-4.171c0.076,0.333-1.096-4.856-1.096-4.856s-1.326-7.006-2.193-7.99
	c-0.867-0.983-3.133-2.036-3.133-2.036l-0.873-1.527l1.035-0.791c0,0,0.695-0.764,0.07-2.486c-0.037-0.098-0.113-0.352-0.146-0.439
	c-0.039-0.108,0.438-0.049,0.402-0.144c-0.434-1.165-0.457-1.823-0.215-2.463c0.453-1.203-0.676-2.607-0.676-2.607l-3.799-0.919
	l-1.598,0.486c0,0-2.564,1.698-1.457,4.58c0.469,1.212,0.355,0.803,1.211,2.275c0.855,1.474-2.104,2.469-2.104,2.469
	c-1.348,0.674-2.473,2.134-3.033,2.695c-0.559,0.561-7.506,3.825-7.506,3.825s-1.797-1.571-2.809-2.134
	c-1.01-0.562-3.369-2.021-3.93-2.357c-0.562-0.338-0.674-0.898-0.898-1.461c-0.033-0.085-0.098-0.154-0.18-0.216
	c4.988-8.999,9.904-17.611,10.939-18.516l0.979-1.29v-2.063c0,0-6.301,10.685-12.699,21.599c-0.455-0.073-0.945-0.074-1.172-0.074
	c-0.451,0-0.562,1.348-0.898,2.695c-0.076,0.304-0.023,0.533,0.113,0.721c-5.729,9.782-11.021,18.883-11.336,19.637
	C399.12,324.137,400.518,324.137,400.518,324.137z"/>
<path fill="#A97C50" d="M369.663,238.091c-0.313-0.754-5.606-9.854-11.336-19.637c0.137-0.186,0.189-0.416,0.113-0.719
	c-0.336-1.35-0.447-2.697-0.898-2.697c-0.227,0-0.717,0.002-1.172,0.074c-6.397-10.912-12.699-21.598-12.699-21.598v2.064
	l0.979,1.289c1.035,0.904,5.951,9.518,10.938,18.516c-0.082,0.061-0.146,0.131-0.18,0.217c-0.225,0.561-0.336,1.123-0.898,1.459
	c-0.561,0.338-2.92,1.797-3.93,2.359c-1.012,0.561-2.809,2.133-2.809,2.133s-6.945-3.264-7.506-3.826
	c-0.561-0.561-1.686-2.021-3.033-2.693c0,0-2.959-0.996-2.104-2.469c0.854-1.475,0.744-1.064,1.211-2.277
	c1.109-2.881-1.457-4.58-1.457-4.58l-1.596-0.486l-3.8,0.92c0,0-1.129,1.404-0.676,2.607c0.242,0.639,0.219,1.297-0.215,2.463
	c-0.035,0.094,0.44,0.033,0.401,0.143c-0.033,0.088-0.108,0.342-0.146,0.439c-0.625,1.725,0.069,2.488,0.069,2.488l1.035,0.791
	l-0.873,1.527c0,0-2.266,1.053-3.133,2.035c-0.867,0.984-2.193,7.99-2.193,7.99s-1.172,5.191-1.096,4.857
	c0.074-0.332-3.846,3.477-4.213,4.17c-0.363,0.695-0.859,4.441-0.41,4.762c0.449,0.321,1.416-1.902,1.416-1.902
	c0.66-0.418,0.463-0.771,0.558-1.67c0.118-1.156,2.649-2.695,2.649-2.695s2.605-1.016,2.879-2.119
	c0.274-1.103,1.168-4.717,1.168-4.717l1.123,4.486l0.076,4.463c-1.871,0.469-11.705,7.539-11.533,10.627
	c0,0,7.377,12.951,6.349,15.523c-1.029,2.574-2.791,3.623-3.578,4.193c-0.209,0.15-0.026,0.766,0.522,0.982
	c1.209,0.477,2.939-2.643,4.998-2.814c2.06-0.171,2.453-2.615,1.769-3.131c-0.688-0.516-2.683-3.863-2.683-4.549
	s-1.725-8.922-2.062-10.637c-0.337-1.715,8.067-4.117,9.783-5.318c1.715-1.201,2.446,9.441,3.647,10.984
	c1.199,1.545,7.635,4.627,7.998,7.545c0.363,2.916,0.389,3.385-0.641,3.76c-1.03,0.375-1.029,1.748-1.029,1.748s1.529,1.029,2.48,0
	c0.951-1.031,1.965-3.053,2.738-3.734c0.977-0.861,0.93-3.143,0.414-3.314c-0.517-0.171-4.306-2.58-4.896-3.637
	c-0.736-1.318-1.783-3.637-3.291-4.768c-2.441-1.836,0.332-4.65-0.355-8.768c-0.539-3.232,0.688-5.014,0.172-7.416
	c-0.514-2.402-2.426-2.9-2.145-6.127c0.281-3.23,2.688-6.539,2.688-6.539s7.73,4.389,8.854,4.162c1.123-0.225,6.062-5.277,7.3-5.613
	c0.631-0.172,1.493-0.258,2.146-0.479c5.094,9.254,9.731,17.895,9.731,17.895l1.676,2.934
	C368.963,239.769,370.362,239.769,369.663,238.091z"/>
<path fill="#D3A536" d="M189.345,324.137l1.676-2.935c0,0,4.639-8.642,9.732-17.894c0.652,0.219,1.516,0.305,2.146,0.478
	c1.236,0.337,6.176,5.39,7.299,5.614c1.123,0.226,8.854-4.162,8.854-4.162s2.406,3.309,2.688,6.538
	c0.281,3.228-1.631,3.726-2.146,6.128c-0.516,2.4,0.711,4.183,0.172,7.416c-0.688,4.116,2.086,6.932-0.355,8.768
	c-1.508,1.131-2.555,3.449-3.291,4.769c-0.592,1.056-4.381,3.464-4.896,3.636s-0.562,2.453,0.414,3.313
	c0.773,0.683,1.787,2.704,2.738,3.734c0.951,1.029,2.48,0,2.48,0s0-1.373-1.029-1.748c-1.029-0.375-1.004-0.843-0.641-3.76
	s6.799-5.999,7.998-7.544c1.201-1.544,1.934-12.188,3.648-10.985s10.121,3.604,9.783,5.319c-0.338,1.715-2.062,9.95-2.062,10.637
	c0,0.686-1.994,4.033-2.682,4.549c-0.686,0.516-0.291,2.958,1.768,3.13s3.789,3.292,4.998,2.814
	c0.551-0.217,0.732-0.831,0.523-0.982c-0.787-0.568-2.549-1.619-3.578-4.191c-1.029-2.572,6.348-15.524,6.348-15.524
	c0.172-3.088-9.662-10.158-11.533-10.626l0.076-4.464l1.123-4.485c0,0,0.895,3.613,1.168,4.718c0.273,1.104,2.879,2.118,2.879,2.118
	s2.531,1.538,2.65,2.695c0.094,0.897-0.104,1.252,0.557,1.67c0,0,0.967,2.222,1.416,1.901c0.449-0.319-0.047-4.066-0.41-4.761
	c-0.367-0.693-4.287-4.503-4.213-4.171c0.076,0.333-1.096-4.856-1.096-4.856s-1.326-7.006-2.193-7.99
	c-0.867-0.983-3.133-2.036-3.133-2.036l-0.873-1.527l1.035-0.791c0,0,0.695-0.764,0.07-2.486c-0.037-0.098-0.113-0.352-0.146-0.439
	c-0.039-0.108,0.438-0.049,0.402-0.144c-0.434-1.165-0.457-1.823-0.215-2.463c0.453-1.203-0.676-2.607-0.676-2.607l-3.799-0.919
	l-1.596,0.486c0,0-2.566,1.698-1.457,4.58c0.467,1.212,0.355,0.803,1.211,2.275c0.855,1.474-2.104,2.469-2.104,2.469
	c-1.348,0.674-2.473,2.134-3.033,2.695c-0.56,0.561-7.506,3.825-7.506,3.825s-1.797-1.571-2.809-2.134
	c-1.01-0.562-3.369-2.021-3.93-2.357c-0.562-0.338-0.674-0.898-0.898-1.461c-0.033-0.085-0.098-0.154-0.18-0.216
	c4.988-8.999,9.904-17.611,10.939-18.516l0.979-1.29v-2.063c0,0-6.301,10.685-12.699,21.599c-0.455-0.073-0.945-0.074-1.172-0.074
	c-0.451,0-0.562,1.348-0.898,2.695c-0.076,0.304-0.023,0.533,0.113,0.721c-5.729,9.782-11.021,18.883-11.336,19.637
	C187.947,324.137,189.345,324.137,189.345,324.137z"/>
<path fill="#A97C50" d="M369.663,432.939c-0.313-0.755-5.606-9.854-11.336-19.638c0.137-0.186,0.189-0.416,0.113-0.719
	c-0.336-1.35-0.447-2.697-0.898-2.697c-0.227,0-0.717,0.002-1.172,0.074c-6.397-10.912-12.699-21.598-12.699-21.598v2.063
	l0.979,1.289c1.035,0.904,5.951,9.519,10.938,18.517c-0.082,0.061-0.146,0.131-0.18,0.217c-0.225,0.561-0.336,1.123-0.898,1.459
	c-0.561,0.338-2.92,1.797-3.93,2.358c-1.012,0.562-2.809,2.134-2.809,2.134s-6.945-3.265-7.506-3.826s-1.686-2.021-3.033-2.693
	c0,0-2.959-0.996-2.104-2.469c0.854-1.475,0.744-1.064,1.211-2.277c1.109-2.881-1.457-4.58-1.457-4.58l-1.596-0.485l-3.8,0.92
	c0,0-1.129,1.404-0.676,2.606c0.242,0.64,0.219,1.298-0.215,2.464c-0.035,0.094,0.44,0.032,0.401,0.143
	c-0.033,0.088-0.108,0.342-0.146,0.438c-0.625,1.726,0.069,2.488,0.069,2.488l1.035,0.791l-0.873,1.527c0,0-2.266,1.053-3.133,2.035
	c-0.867,0.983-2.193,7.989-2.193,7.989s-1.172,5.191-1.096,4.857c0.074-0.332-3.846,3.477-4.213,4.17
	c-0.363,0.695-0.859,4.441-0.41,4.762c0.449,0.321,1.416-1.901,1.416-1.901c0.66-0.418,0.463-0.771,0.558-1.67
	c0.118-1.156,2.649-2.695,2.649-2.695s2.605-1.016,2.879-2.119c0.274-1.103,1.168-4.717,1.168-4.717l1.123,4.485l0.076,4.464
	c-1.871,0.469-11.705,7.539-11.533,10.627c0,0,7.377,12.95,6.349,15.522c-1.029,2.574-2.791,3.623-3.578,4.193
	c-0.209,0.149-0.026,0.766,0.522,0.981c1.209,0.478,2.939-2.643,4.998-2.813c2.06-0.171,2.453-2.615,1.769-3.131
	c-0.688-0.517-2.683-3.863-2.683-4.549c0-0.687-1.725-8.923-2.062-10.638s8.067-4.117,9.783-5.317
	c1.715-1.201,2.446,9.44,3.647,10.983c1.199,1.545,7.635,4.627,7.998,7.545c0.363,2.916,0.389,3.386-0.641,3.761
	c-1.03,0.375-1.029,1.748-1.029,1.748s1.529,1.028,2.48,0c0.951-1.031,1.965-3.054,2.738-3.734c0.977-0.861,0.93-3.143,0.414-3.314
	c-0.517-0.171-4.306-2.58-4.896-3.637c-0.736-1.318-1.783-3.637-3.291-4.768c-2.441-1.836,0.332-4.65-0.355-8.769
	c-0.539-3.231,0.688-5.014,0.172-7.416c-0.514-2.401-2.426-2.899-2.145-6.127c0.281-3.229,2.688-6.539,2.688-6.539
	s7.73,4.39,8.854,4.162c1.123-0.225,6.062-5.276,7.3-5.613c0.631-0.172,1.493-0.258,2.146-0.479
	c5.094,9.254,9.731,17.895,9.731,17.895l1.676,2.935C368.963,434.617,370.362,434.617,369.663,432.939z"/>
<path fill="#D3A536" d="M284.201,517.308c-0.314-0.754-5.607-9.854-11.336-19.637c0.137-0.187,0.189-0.417,0.113-0.72
	c-0.336-1.35-0.447-2.696-0.898-2.696c-0.227,0-0.717,0.001-1.172,0.074c-6.398-10.913-12.699-21.598-12.699-21.598v2.062
	l0.979,1.29c1.035,0.904,5.951,9.517,10.939,18.516c-0.082,0.062-0.146,0.132-0.18,0.217c-0.225,0.562-0.336,1.123-0.898,1.46
	c-0.561,0.338-2.92,1.797-3.93,2.357c-1.012,0.562-2.809,2.134-2.809,2.134s-6.945-3.265-7.506-3.825
	c-0.561-0.562-1.686-2.021-3.033-2.694c0,0-2.959-0.996-2.104-2.469c0.855-1.475,0.744-1.064,1.211-2.276
	c1.109-2.882-1.457-4.58-1.457-4.58l-1.596-0.485l-3.799,0.919c0,0-1.129,1.403-0.676,2.606c0.242,0.641,0.219,1.298-0.215,2.463
	c-0.035,0.096,0.441,0.034,0.402,0.144c-0.033,0.089-0.109,0.343-0.146,0.439c-0.625,1.725,0.07,2.487,0.07,2.487l1.035,0.791
	l-0.873,1.527c0,0-2.266,1.053-3.133,2.035c-0.867,0.984-2.193,7.99-2.193,7.99s-1.172,5.19-1.096,4.857
	c0.074-0.332-3.846,3.477-4.213,4.17c-0.363,0.693-0.859,4.44-0.41,4.761c0.449,0.32,1.416-1.901,1.416-1.901
	c0.66-0.418,0.463-0.771,0.557-1.67c0.119-1.156,2.65-2.694,2.65-2.694s2.605-1.017,2.879-2.119
	c0.274-1.104,1.168-4.717,1.168-4.717l1.123,4.484l0.076,4.464c-1.871,0.469-11.705,7.538-11.533,10.626
	c0,0,7.377,12.952,6.348,15.524c-1.029,2.573-2.791,3.623-3.578,4.192c-0.209,0.15-0.027,0.766,0.523,0.981
	c1.209,0.479,2.939-2.643,4.998-2.813c2.059-0.172,2.453-2.615,1.768-3.131c-0.688-0.516-2.682-3.862-2.682-4.549
	s-1.725-8.922-2.062-10.637c-0.338-1.716,8.068-4.118,9.783-5.319c1.715-1.201,2.447,9.441,3.648,10.985
	c1.199,1.545,7.635,4.627,7.998,7.544c0.363,2.917,0.389,3.385-0.641,3.76c-1.03,0.375-1.029,1.748-1.029,1.748s1.529,1.029,2.479,0
	c0.951-1.03,1.965-3.053,2.738-3.733c0.977-0.861,0.93-3.144,0.414-3.314s-4.305-2.58-4.896-3.636
	c-0.736-1.318-1.783-3.638-3.291-4.769c-2.441-1.836,0.332-4.649-0.355-8.768c-0.539-3.233,0.688-5.015,0.172-7.416
	c-0.514-2.402-2.426-2.9-2.145-6.128c0.281-3.229,2.688-6.538,2.688-6.538s7.73,4.388,8.854,4.162
	c1.123-0.226,6.062-5.277,7.299-5.614c0.631-0.172,1.494-0.258,2.146-0.478c5.094,9.253,9.732,17.894,9.732,17.894l1.676,2.935
	C283.501,518.985,284.9,518.985,284.201,517.308z"/>
<path fill="#D3A536" d="M496.375,517.308c-0.314-0.754-5.607-9.854-11.336-19.637c0.137-0.187,0.189-0.417,0.113-0.72
	c-0.336-1.35-0.447-2.696-0.898-2.696c-0.227,0-0.717,0.001-1.172,0.074c-6.398-10.913-12.699-21.598-12.699-21.598v2.062
	l0.979,1.29c1.035,0.904,5.951,9.517,10.939,18.516c-0.082,0.062-0.146,0.132-0.18,0.217c-0.225,0.562-0.336,1.123-0.898,1.46
	c-0.561,0.338-2.92,1.797-3.93,2.357c-1.012,0.562-2.809,2.134-2.809,2.134s-6.945-3.265-7.506-3.825
	c-0.562-0.562-1.688-2.021-3.033-2.694c0,0-2.959-0.996-2.105-2.469c0.855-1.475,0.744-1.064,1.211-2.276
	c1.109-2.882-1.457-4.58-1.457-4.58L460,484.438l-3.799,0.919c0,0-1.129,1.403-0.676,2.606c0.24,0.641,0.219,1.298-0.217,2.463
	c-0.033,0.096,0.441,0.034,0.402,0.144c-0.033,0.089-0.107,0.343-0.145,0.439c-0.625,1.725,0.068,2.487,0.068,2.487l1.035,0.791
	l-0.873,1.527c0,0-2.266,1.053-3.133,2.035c-0.867,0.984-2.193,7.99-2.193,7.99s-1.172,5.19-1.096,4.857
	c0.074-0.332-3.846,3.477-4.213,4.17c-0.363,0.693-0.859,4.44-0.41,4.761s1.416-1.901,1.416-1.901
	c0.66-0.418,0.463-0.771,0.557-1.67c0.119-1.156,2.65-2.694,2.65-2.694s2.605-1.017,2.879-2.119
	c0.275-1.104,1.168-4.717,1.168-4.717l1.123,4.484l0.076,4.464c-1.871,0.469-11.705,7.538-11.533,10.626
	c0,0,7.377,12.952,6.35,15.524c-1.029,2.573-2.791,3.623-3.578,4.192c-0.209,0.15-0.027,0.766,0.521,0.981
	c1.209,0.479,2.939-2.643,4.998-2.813c2.061-0.172,2.453-2.615,1.77-3.131c-0.689-0.516-2.684-3.862-2.684-4.549
	s-1.725-8.922-2.061-10.637c-0.338-1.716,8.066-4.118,9.781-5.319c1.717-1.201,2.447,9.441,3.648,10.985
	c1.199,1.545,7.635,4.627,7.998,7.544s0.389,3.385-0.641,3.76s-1.029,1.748-1.029,1.748s1.529,1.029,2.48,0
	c0.951-1.03,1.965-3.053,2.738-3.733c0.977-0.861,0.93-3.144,0.414-3.314s-4.305-2.58-4.896-3.636
	c-0.736-1.318-1.783-3.638-3.291-4.769c-2.441-1.836,0.332-4.649-0.355-8.768c-0.539-3.233,0.689-5.015,0.172-7.416
	c-0.514-2.402-2.426-2.9-2.145-6.128c0.281-3.229,2.688-6.538,2.688-6.538s7.73,4.388,8.855,4.162
	c1.123-0.226,6.061-5.277,7.299-5.614c0.631-0.172,1.494-0.258,2.145-0.478c5.096,9.253,9.732,17.894,9.732,17.894l1.676,2.935
	C495.674,518.985,497.075,518.985,496.375,517.308z"/>
<path fill="#D3A536" d="M38.877,366.134l2.578-4.511c0,0,7.129-13.28,14.959-27.504c1.002,0.34,2.33,0.471,3.299,0.734
	c1.898,0.519,9.494,8.285,11.219,8.631c1.729,0.346,13.609-6.398,13.609-6.398s3.698,5.087,4.13,10.05
	c0.432,4.962-2.507,5.728-3.298,9.419c-0.793,3.691,1.093,6.431,0.266,11.399c-1.055,6.328,3.208,10.655-0.545,13.476
	c-2.318,1.739-3.93,5.303-5.061,7.328c-0.908,1.624-6.734,5.324-7.527,5.589c-0.789,0.265-0.861,3.771,0.639,5.096
	c1.188,1.047,2.748,4.155,4.209,5.738c1.463,1.583,3.811,0,3.811,0s0-2.108-1.58-2.687c-1.582-0.575-1.543-1.295-0.984-5.779
	c0.559-4.481,10.448-9.221,12.294-11.595c1.846-2.373,2.971-18.731,5.606-16.886c2.636,1.847,15.558,5.538,15.038,8.176
	c-0.521,2.637-3.171,15.295-3.171,16.35c0,1.056-3.065,6.2-4.121,6.992c-1.054,0.79-0.448,4.547,2.717,4.812
	c3.165,0.264,5.822,5.06,7.682,4.324c0.848-0.333,1.125-1.275,0.804-1.51c-1.21-0.876-3.918-2.489-5.499-6.443
	c-1.583-3.954,9.756-23.861,9.756-23.861c0.265-4.747-14.851-15.614-17.728-16.334l0.119-6.861l1.725-6.894
	c0,0,1.377,5.554,1.797,7.251c0.421,1.695,4.426,3.256,4.426,3.256s3.889,2.364,4.073,4.143c0.142,1.38-0.161,1.927,0.855,2.567
	c0,0,1.486,3.414,2.176,2.924c0.689-0.491-0.07-6.251-0.632-7.318c-0.562-1.065-6.588-6.921-6.473-6.408
	c0.116,0.511-1.686-7.467-1.686-7.467s-2.038-10.77-3.372-12.281c-1.332-1.512-4.815-3.13-4.815-3.13l-1.341-2.351l1.591-1.214
	c0,0,1.07-1.174,0.107-3.823c-0.056-0.15-0.174-0.541-0.224-0.676c-0.062-0.167,0.671-0.075,0.617-0.22
	c-0.666-1.793-0.703-2.806-0.331-3.787c0.698-1.848-1.038-4.007-1.038-4.007l-5.837-1.412l-2.454,0.746c0,0-3.946,2.609-2.239,7.041
	c0.718,1.861,0.545,1.234,1.86,3.5c1.316,2.263-3.234,3.793-3.234,3.793c-2.07,1.036-3.799,3.278-4.66,4.143
	c-0.863,0.862-11.539,5.881-11.539,5.881s-2.76-2.417-4.314-3.28c-1.553-0.862-5.178-3.106-6.041-3.624
	c-0.863-0.519-1.035-1.38-1.381-2.244c-0.051-0.13-0.15-0.238-0.277-0.332c7.668-13.831,15.227-27.069,16.816-28.46l1.502-1.982
	v-3.172c0,0-9.682,16.423-19.518,33.197c-0.699-0.113-1.451-0.113-1.803-0.113c-0.691,0-0.863,2.071-1.381,4.143
	c-0.115,0.467-0.035,0.822,0.174,1.108c-8.805,15.035-16.939,29.022-17.424,30.183C36.73,366.134,38.877,366.134,38.877,366.134z"/>
<line fill="none" stroke="#D3A536" stroke-width="3" stroke-miterlimit="10" x1="11.549" y1="159.428" x2="173.262" y2="159.428"/>
<g>
	<g>
		<path fill="#C49A6C" d="M59.934,74.433c2.731,2.667,6.111,4.682,9.881,4.682c2.406,0,6.045-0.779,6.045-3.315
			c0-1.171-0.714-1.626-1.299-1.95c-1.496-0.78-3.836-0.976-5.787-1.3c-1.495-0.26-3.055-0.586-4.55-1.041
			c-2.081-0.585-4.161-1.429-5.656-2.926c-1.496-1.495-2.536-3.835-2.536-6.37c0-5.592,4.811-11.378,14.302-11.378
			c7.997,0,12.808,3.446,15.148,5.07l-6.175,5.722c-3.186-2.472-6.177-3.381-8.518-3.381c-3.9,0-4.811,1.561-4.811,2.535
			c0,1.951,2.145,2.341,5.396,2.927c6.826,1.235,14.757,3.056,14.757,11.116c0,7.996-8.062,11.898-16.058,11.898
			c-9.426,0-14.302-4.551-16.448-6.566L59.934,74.433z"/>
	</g>
	<g>
		<path fill="#C49A6C" d="M99.229,72.1v17.581c1.431-1.432,4.356-4.487,9.752-4.487c2.471,0,5.201,0.716,7.216,2.407
			c2.991,2.535,3.511,5.721,3.511,10.142v12.918h-9.947v-8.368c0-2.73-0.065-4.03-0.455-5.199c-0.975-3.058-3.641-3.382-4.681-3.382
			c-1.755,0-3.251,0.846-4.095,1.95c-1.301,1.754-1.301,4.551-1.301,7.478v7.521H89.218V72.1H99.229z"/>
	</g>
	<circle fill="#C49A6C" cx="114.869" cy="118.725" r="4.84"/>
	<circle fill="#C49A6C" cx="94.058" cy="63.938" r="4.84"/>
</g>
<path fill="#C49A6C" d="M323.879,206.897c0.621-9.875,5.463-24.222,0.863-33.623c0.191,5.255-0.582,2.029-2.588,0.861
	c-0.135,1.016,2.694,5.809-0.551,7.796c4.637,9.209,0.264,19.675-1.657,23.915c-1.59,0.761-3.909,0.133-6.413-0.674
	c1.047,1.336,5.863,3.62,6.691,4.211c-0.213,0.937-1.703,2.192-2.43,2.466c-0.846-0.116-1.043-1.554-1.342-2.423l-0.09-0.652
	c-1.304,2.848-1.779,7.461-6.316,6.818c-0.523-0.973-3.646-0.761-6.475-0.643c-0.412-0.464-1.481-2.803-2.019-5.5
	c-0.318,2.332-1.365,3.41-2.119,3.949c-1.892-1.435-12.131-0.081-13.49-7.363c-0.507-3.095,0.34-4.796,1.062-6.66
	c-2.583,1.279-3.287,3.081-3.649,4.936c-2.363-8.922-1.555-22.463,3.237-29.174c-1.917,1.439-3.312,2.217-5.435,1.054
	c-1.301-1.438-1.817-2.86-1.251-5.504c-2.419,3.519-4.02,6.317-3.584,11.64c-1.229-0.206-1.828-0.662-2.451-2.156
	c0.191,5.717,2.52,9.414,0.49,12.689c4.638-0.065,6.161,13.053,8.994,17.485c4.263,2.922,11.733,2.636,13.794,7.76
	c-3.442-0.865-5.43,1.917-9.484,0.862c0.278,2.943,5.147,2.347,8.622,5.172c-2.397,2.775-2.199,8.147-5.173,10.346
	c-9.687-1.699-10.182,1.322-19.936,4.248c-5.93,1.779-14.098,6.586-17.991,7.133c-2.337,0.328-7.165,3.294-7.759,4.311
	c-4.507,7.696,1.783,13.473,1.043,23.576c-0.529,2.186-2.309,3.731-3.637,5.563c0.165,9.361,0.108,18.5-3.449,24.141
	c1.802,1.811,2.783,4.883,2.731,7.813c0.65,0.335,2.029,0.233,3.304-0.056c0.154-1.438-2.021-5.087-2.481-8.377
	c0.45-3.908,2.427-8.513,4.206-11.452c1.861,2.619,1.442,10.07,1.917,11.005c1.988,3.908,1.551,7.891,2.261,9.405
	c1.001-0.032,1.857,0.066,2.543,0.04c-0.028-3.33-1.22-4.514-1.648-7.701c-0.996-7.423,1.392-16.009-0.182-23.031
	c4.158-4.175,5.427-12.471,11-15.231c3.992,2.042,10.882,6.167,17.551,8.762c0.766,3.653,1.714,5.276,2.454,10.28
	c0.594,4.015,2.913,8.943,2.913,12.321c0,5.303,0.045,11.724-0.083,14.292c1.687,0.529,2.898,0.253,4.362,0.441
	c-0.327-4.226,0.724-1.848,1.235,0.192c1.417,0.102,2.755,0.18,3.887-0.218c-0.792-2.7-1-5.505-1.849-8.845
	c-0.902-3.549-0.123-5.871,0.197-9.343c0.245-2.651,1.858-13.047,2.286-16.197c1.355-9.988,1.291-8.29,4.605-13.764
	c2.41-3.979,2.375-5.916,2.587-11.207c0.92-0.189,2.626-1.854,3.482-4.121c0.623-1.653,1.354-3.246,1.647-7.366
	c0.009-0.125-4.237-2.485-5.311-8.329c1.375,3.919,5.083,7.285,5.46,7.205c1.773-0.455,3.488-2.523,3.322-5.279
	c-0.166-3.256,1.771-5.901,1.741-12.285c4.228-0.803,4.326-3.387,8.622-6.034c-2.706-1.427-6.824,2.45-8.072-0.035
	c4.291-2.066,15.73-7.093,10.659-12.896C324.595,204.739,325.049,206.63,323.879,206.897z M289.539,296.343
	c-0.602-2.788-1.79-13.714-1.261-14.755C289.404,284.442,289.652,295.209,289.539,296.343z M304.27,224.925l-1.646-0.602
	c-0.472-0.174-0.717-0.693-0.543-1.165c0.174-0.474,0.694-0.716,1.166-0.544l1.649,0.603c0.472,0.173,0.714,0.694,0.541,1.166
	C305.265,224.854,304.745,225.097,304.27,224.925z M312.891,224.36l-1.249,0.414c-0.358,0.117-0.74-0.061-0.853-0.398
	c-0.109-0.34,0.086-0.711,0.443-0.828l1.25-0.415c0.357-0.118,0.737,0.062,0.852,0.398
	C313.447,223.87,313.249,224.242,312.891,224.36z"/>
<g enable-background="new    ">
	<path fill="#A97C50" d="M222.87,144.028c-0.216,0.552-0.624,1.536-1.464,2.544c-1.2,1.393-3.096,2.616-5.856,2.616
		c-4.488,0-7.92-3.288-7.92-8.952c0-5.761,3.72-8.857,8.041-8.857c5.28,0,6.529,4.057,6.913,5.232l-3.168,0.841
		c-0.048-0.312-0.192-1.032-0.624-1.681c-0.36-0.527-1.296-1.488-3.048-1.488c-2.76,0-4.681,2.28-4.681,5.905
		c0,3.864,2.04,6,4.705,6c1.584,0,2.544-0.768,3.24-1.656c0.552-0.744,0.768-1.368,0.888-1.752L222.87,144.028z"/>
	<path fill="#A97C50" d="M233.981,149.188c-2.136,0-4.104-0.6-5.833-2.592c-1.68-1.944-2.256-4.152-2.256-6.289
		c0-5.184,3.504-8.929,8.137-8.929c4.201,0,8.137,3.121,8.113,8.905C242.118,145.133,239.189,149.188,233.981,149.188z
		 M234.005,134.283c-2.904,0-4.848,2.353-4.848,5.881c0,3.816,2.112,6.097,4.92,6.097c2.112,0,4.824-1.536,4.896-5.616
		C239.045,137.332,237.341,134.283,234.005,134.283z"/>
	<path fill="#A97C50" d="M253.973,149.188c-2.136,0-4.104-0.6-5.833-2.592c-1.68-1.944-2.256-4.152-2.256-6.289
		c0-5.184,3.504-8.929,8.136-8.929c4.201,0,8.137,3.121,8.113,8.905C262.109,145.133,259.181,149.188,253.973,149.188z
		 M253.997,134.283c-2.904,0-4.848,2.353-4.848,5.881c0,3.816,2.112,6.097,4.92,6.097c2.112,0,4.824-1.536,4.896-5.616
		C259.037,137.332,257.333,134.283,253.997,134.283z"/>
	<path fill="#A97C50" d="M266.188,131.812h5.712c0.936,0,1.92,0,2.904,0.264c1.656,0.456,3.984,1.944,3.984,5.377
		c0,2.256-1.056,4.68-4.081,5.353c-0.936,0.216-1.824,0.216-2.856,0.216h-2.472v5.736h-3.192V131.812z M269.381,134.523v5.881h2.28
		c0.672,0,1.249,0,1.8-0.145c1.968-0.479,2.088-2.28,2.088-2.88c0-1.248-0.552-1.896-0.84-2.16
		c-0.792-0.672-1.896-0.696-2.928-0.696H269.381z"/>
	<path fill="#A97C50" d="M285.701,134.644v3.984h8.161v2.736h-8.161v4.536h9.529v2.856H282.58v-16.945h12.049v2.832H285.701z"/>
	<path fill="#A97C50" d="M299.644,131.812h5.4c2.256,0.023,3.769,0.023,5.257,1.224c1.056,0.864,1.871,2.209,1.871,4.177
		c0,3.24-2.375,4.368-3.336,4.656l3.769,6.889h-3.624l-3.36-6.288h-2.833v6.288h-3.144V131.812z M302.788,134.548v5.305h1.104
		c1.08,0,1.488-0.024,2.089-0.049c0.695-0.023,2.976-0.144,2.976-2.616c0-0.359-0.024-1.607-1.344-2.28
		c-0.673-0.336-1.488-0.359-3.36-0.359H302.788z"/>
	<path fill="#A97C50" d="M325.084,145.444h-6.36l-0.984,3.312h-3.384l5.712-16.945h3.601l5.784,16.945h-3.384L325.084,145.444z
		 M324.245,142.685l-2.328-7.801l-2.353,7.801H324.245z"/>
	<path fill="#A97C50" d="M341.698,134.691h-4.68v14.065h-3.169v-14.065h-4.584v-2.88h12.433V134.691z"/>
	<path fill="#A97C50" d="M348.177,134.644v3.984h8.161v2.736h-8.161v4.536h9.528v2.856h-12.648v-16.945h12.049v2.832H348.177z"/>
</g>
<g enable-background="new    ">
	<path fill="#A97C50" d="M465.876,131.812h6.073c1.463,0.023,3.24,0.048,5.016,1.32c2.832,1.992,3.265,5.4,3.265,7.296
		c0,2.904-0.984,5.856-3.48,7.297c-1.681,0.984-3.456,1.008-5.448,1.032h-5.425V131.812z M469.045,134.691V145.9h1.344
		c2.4,0,3.24-0.12,3.96-0.384c1.224-0.48,2.521-1.536,2.521-5.064c0-1.584-0.24-4.177-2.592-5.305
		c-0.912-0.408-1.416-0.432-3.553-0.456H469.045z"/>
	<path fill="#A97C50" d="M487.14,134.644v3.984h8.161v2.736h-8.161v4.536h9.529v2.856H484.02v-16.945h12.049v2.832H487.14z"/>
	<path fill="#A97C50" d="M504.229,138.868h7.08v2.712h-7.08v7.177h-3.145v-16.945h11.209v2.832h-8.064V138.868z"/>
	<path fill="#A97C50" d="M519.108,134.644v3.984h8.161v2.736h-8.161v4.536h9.529v2.856h-12.649v-16.945h12.05v2.832H519.108z"/>
	<path fill="#A97C50" d="M546.229,144.028c-0.216,0.552-0.624,1.536-1.465,2.544c-1.199,1.393-3.096,2.616-5.855,2.616
		c-4.488,0-7.921-3.288-7.921-8.952c0-5.761,3.72-8.857,8.04-8.857c5.281,0,6.529,4.057,6.913,5.232l-3.168,0.841
		c-0.048-0.312-0.192-1.032-0.624-1.681c-0.36-0.527-1.297-1.488-3.049-1.488c-2.76,0-4.68,2.28-4.68,5.905c0,3.864,2.039,6,4.704,6
		c1.584,0,2.544-0.768,3.24-1.656c0.552-0.744,0.769-1.368,0.888-1.752L546.229,144.028z"/>
	<path fill="#A97C50" d="M560.106,134.691h-4.68v14.065h-3.169v-14.065h-4.584v-2.88h12.433V134.691z"/>
</g>
<g enable-background="new    ">
	<path fill="#D3A536" d="M159.072,327.812c0.552,0.217,1.536,0.625,2.544,1.465c1.393,1.199,2.616,3.096,2.616,5.856
		c0,4.488-3.288,7.921-8.952,7.921c-5.761,0-8.857-3.721-8.857-8.041c0-5.28,4.057-6.529,5.232-6.912l0.841,3.168
		c-0.312,0.048-1.032,0.191-1.681,0.624c-0.527,0.36-1.488,1.296-1.488,3.048c0,2.76,2.28,4.681,5.905,4.681c3.864,0,6-2.04,6-4.704
		c0-1.584-0.768-2.545-1.656-3.24c-0.744-0.553-1.368-0.769-1.752-0.889L159.072,327.812z"/>
	<path fill="#D3A536" d="M164.232,316.702c0,2.136-0.6,4.104-2.592,5.833c-1.944,1.68-4.152,2.256-6.289,2.256
		c-5.184,0-8.929-3.504-8.929-8.137c0-4.201,3.121-8.137,8.905-8.113C160.177,308.565,164.232,311.494,164.232,316.702z
		 M149.327,316.678c0,2.904,2.353,4.849,5.881,4.849c3.816,0,6.097-2.112,6.097-4.921c0-2.111-1.536-4.824-5.616-4.896
		C152.376,311.638,149.327,313.342,149.327,316.678z"/>
	<path fill="#D3A536" d="M164.232,296.711c0,2.136-0.6,4.104-2.592,5.832c-1.944,1.68-4.152,2.256-6.289,2.256
		c-5.184,0-8.929-3.504-8.929-8.137c0-4.2,3.121-8.136,8.905-8.112C160.177,288.574,164.232,291.502,164.232,296.711z
		 M149.327,296.687c0,2.904,2.353,4.849,5.881,4.849c3.816,0,6.097-2.112,6.097-4.921c0-2.112-1.536-4.824-5.616-4.896
		C152.376,291.646,149.327,293.35,149.327,296.687z"/>
	<path fill="#D3A536" d="M146.855,284.495v-5.712c0-0.936,0-1.92,0.264-2.904c0.456-1.656,1.944-3.984,5.377-3.984
		c2.256,0,4.68,1.056,5.353,4.081c0.216,0.936,0.216,1.824,0.216,2.856v2.472h5.736v3.192H146.855z M149.567,281.302h5.881v-2.28
		c0-0.672,0-1.249-0.145-1.8c-0.479-1.968-2.28-2.088-2.88-2.088c-1.248,0-1.896,0.552-2.16,0.84
		c-0.672,0.792-0.696,1.896-0.696,2.928V281.302z"/>
	<path fill="#D3A536" d="M149.688,264.982h3.984v-8.161h2.736v8.161h4.536v-9.529h2.856v12.649h-16.945v-12.049h2.832V264.982z"/>
	<path fill="#D3A536" d="M146.855,251.039v-5.4c0.023-2.256,0.023-3.768,1.224-5.256c0.864-1.056,2.209-1.872,4.177-1.872
		c3.24,0,4.368,2.376,4.656,3.336l6.889-3.769v3.625l-6.288,3.36v2.833h6.288v3.144H146.855z M149.592,247.895h5.305v-1.104
		c0-1.08-0.024-1.488-0.049-2.088c-0.023-0.696-0.144-2.976-2.616-2.976c-0.359,0-1.607,0.024-2.28,1.344
		c-0.336,0.672-0.359,1.488-0.359,3.36V247.895z"/>
	<path fill="#D3A536" d="M160.488,225.599v6.36l3.312,0.984v3.384l-16.945-5.712v-3.601l16.945-5.784v3.384L160.488,225.599z
		 M157.729,226.439l-7.801,2.328l7.801,2.352V226.439z"/>
	<path fill="#D3A536" d="M149.735,208.985v4.681h14.065v3.168h-14.065v4.584h-2.88v-12.433H149.735z"/>
	<path fill="#D3A536" d="M149.688,202.506h3.984v-8.161h2.736v8.161h4.536v-9.529h2.856v12.649h-16.945v-12.049h2.832V202.506z"/>
</g>
<g enable-background="new    ">
	<path fill="#D3A536" d="M146.855,541.616v-6.073c0.023-1.463,0.048-3.24,1.32-5.016c1.992-2.832,5.4-3.265,7.296-3.265
		c2.904,0,5.856,0.984,7.297,3.48c0.984,1.681,1.008,3.456,1.032,5.448v5.425H146.855z M149.735,538.447h11.209v-1.344
		c0-2.4-0.12-3.24-0.384-3.96c-0.48-1.224-1.536-2.521-5.064-2.521c-1.584,0-4.177,0.24-5.305,2.592
		c-0.408,0.912-0.432,1.416-0.456,3.553V538.447z"/>
	<path fill="#D3A536" d="M149.688,520.353h3.984v-8.161h2.736v8.161h4.536v-9.529h2.856v12.649h-16.945v-12.049h2.832V520.353z"/>
	<path fill="#D3A536" d="M153.912,503.264v-7.08h2.712v7.08h7.177v3.145h-16.945v-11.209h2.832v8.064H153.912z"/>
	<path fill="#D3A536" d="M149.688,488.385h3.984v-8.161h2.736v8.161h4.536v-9.529h2.856v12.649h-16.945v-12.05h2.832V488.385z"/>
	<path fill="#D3A536" d="M159.072,461.264c0.552,0.216,1.536,0.624,2.544,1.465c1.393,1.199,2.616,3.096,2.616,5.855
		c0,4.488-3.288,7.921-8.952,7.921c-5.761,0-8.857-3.72-8.857-8.04c0-5.281,4.057-6.529,5.232-6.913l0.841,3.168
		c-0.312,0.048-1.032,0.192-1.681,0.624c-0.527,0.36-1.488,1.297-1.488,3.049c0,2.76,2.28,4.68,5.905,4.68c3.864,0,6-2.039,6-4.704
		c0-1.584-0.768-2.544-1.656-3.24c-0.744-0.552-1.368-0.769-1.752-0.888L159.072,461.264z"/>
	<path fill="#D3A536" d="M149.735,447.387v4.68h14.065v3.169h-14.065v4.584h-2.88v-12.433H149.735z"/>
</g>
</svg>
