<?xml version="1.0" encoding="UTF-8"?>
<!-- Generator: Adobe Illustrator 22.1.0, SVG Export Plug-In . SVG Version: 6.00 Build 0)  -->
<svg version="1.1" id="Layer_1" xmlns="http://www.w3.org/2000/svg" xmlns:xlink="http://www.w3.org/1999/xlink" x="0px" y="0px" viewBox="0 0 800 350" style="enable-background:new 0 0 800 350;" xml:space="preserve">
<style type="text/css">
	.st0{fill:#85BEE2;}
	.st1{fill:#1B8CCC;}
	.st2{fill:#285EAB;}
	.st3{fill:#E11F26;}
	.st4{fill:#BE2026;}
	.st5{fill:#231F20;}
	.st6{fill:#FFFFFF;}
	.st7{fill:none;stroke:#231F20;stroke-width:0.5;stroke-miterlimit:10;}
	.st8{fill:none;stroke:#FFFFFF;stroke-width:12;stroke-miterlimit:10;}
</style>
<rect x="26.3" y="111.5" class="st0" width="748.5" height="66.7"/>
<rect x="26.3" y="114.4" class="st1" width="748.5" height="58"/>
<rect x="26.3" y="213" class="st1" width="748.5" height="59.5"/>
<rect x="26.3" y="70.7" class="st2" width="748.5" height="49.8"/>
<rect x="26.3" y="171.8" class="st2" width="748.5" height="49.8"/>
<rect x="26.3" y="272.9" class="st2" width="748.5" height="49.8"/>
<rect x="26.3" y="116.3" class="st3" width="372.2" height="56.1"/>
<rect x="26.3" y="207" class="st3" width="372.2" height="65.5"/>
<rect x="26.3" y="171.8" class="st4" width="372.2" height="49.8"/>
<rect x="26.3" y="70.7" class="st4" width="372.2" height="49.8"/>
<rect x="26.3" y="272.9" class="st4" width="372.2" height="49.8"/>
<g>
	<path class="st5" d="M107.6,50.1H106V34.5h4.8c3.2,0,5.1,1.4,5.1,4.2c0,2.2-1.4,3.8-4,4l4.5,7.4h-1.9l-4.3-7.2h-2.6V50.1z    M107.6,41.4h2.8c2.8,0,3.8-1.2,3.8-2.7c0-1.5-1-2.7-3.8-2.7h-2.8V41.4z"/>
	<path class="st5" d="M119.4,45.3c0.2,2.1,1.7,3.7,3.8,3.7c1.5,0,2.7-0.9,3.3-1.8l1.1,0.9c-1.2,1.5-2.7,2.2-4.4,2.2   c-3.1,0-5.3-2.3-5.3-5.4c0-3.1,2.3-5.4,5.2-5.4c3.1,0,4.9,2.3,4.9,5.1v0.7H119.4z M126.4,44.2c0-2-1.3-3.3-3.3-3.3   c-1.9,0-3.6,1.6-3.6,3.3H126.4z"/>
	<path class="st5" d="M140.9,50.1h-1.5v-1.7h0c-0.9,1.4-2.6,2-4,2c-3.2,0-5.5-2.3-5.5-5.4c0-3.1,2.3-5.4,5.5-5.4c1.4,0,3.1,0.6,4,2   h0v-8.1h1.5V50.1z M135.4,49c2.4,0,4.1-1.8,4.1-4.1c0-2.3-1.7-4.1-4.1-4.1c-2.4,0-3.9,1.8-3.9,4.1C131.5,47.3,133,49,135.4,49z"/>
	<path class="st5" d="M157.6,50.5c-4.6,0-8.1-3.5-8.1-8.2c0-4.7,3.5-8.2,8.1-8.2s8.1,3.5,8.1,8.2C165.7,47,162.3,50.5,157.6,50.5z    M157.6,35.6c-4,0-6.4,3.1-6.4,6.7s2.4,6.7,6.4,6.7s6.4-3.1,6.4-6.7S161.6,35.6,157.6,35.6z"/>
	<path class="st5" d="M175.8,42.2c-0.5-0.7-1.4-1.4-2.6-1.4c-2.4,0-3.9,1.7-3.9,4.1c0,2.4,1.5,4.1,3.9,4.1c1.1,0,2.1-0.6,2.6-1.4   l1.2,0.9c-1,1.2-2.4,1.8-3.8,1.8c-3.4,0-5.5-2.3-5.5-5.4c0-3.1,2.1-5.5,5.5-5.4c1.4,0,2.8,0.6,3.8,1.8L175.8,42.2z"/>
	<path class="st5" d="M179.9,45.3c0.2,2.1,1.7,3.7,3.8,3.7c1.5,0,2.7-0.9,3.3-1.8l1.1,0.9c-1.2,1.5-2.7,2.2-4.4,2.2   c-3.1,0-5.3-2.3-5.3-5.4c0-3.1,2.3-5.4,5.2-5.4c3.1,0,4.9,2.3,4.9,5.1v0.7H179.9z M186.9,44.2c0-2-1.3-3.3-3.3-3.3   c-1.9,0-3.6,1.6-3.6,3.3H186.9z"/>
	<path class="st5" d="M197.6,43.8v-0.3c0-1.8-0.9-2.7-2.6-2.7c-1.2,0-2.3,0.4-3.1,1.2l-0.9-1c0.9-1,2.4-1.5,4.4-1.5   c2,0,3.8,1.1,3.8,3.7v4.6c0,0.8,0.1,1.8,0.2,2.3h-1.4c-0.1-0.5-0.1-1.1-0.1-1.7h0c-0.8,1.4-2,1.9-3.6,1.9c-1.8,0-3.5-1-3.5-3   c0-3.3,3.9-3.6,6.4-3.6H197.6z M196.9,45c-1.5,0-4.8,0.1-4.8,2.2c0,1.4,1.3,1.9,2.4,1.9c2.1,0,3.1-1.5,3.1-3.3V45H196.9z"/>
	<path class="st5" d="M203.7,39.8c0.1,0.5,0.1,1.1,0.1,1.6h0c0.6-1.1,2.1-1.9,3.5-1.9c2.6,0,3.9,1.5,3.9,4v6.5h-1.5v-5.7   c0-2.3-0.6-3.5-2.8-3.5c-0.3,0-3.1,0.2-3.1,4v5.3h-1.5v-8c0-0.5-0.1-1.5-0.1-2.3H203.7z"/>
	<path class="st5" d="M228.5,37.1c-0.7-1-1.7-1.5-3-1.5c-1.6,0-3.3,0.9-3.3,2.8c0,4.2,8,2,8,7.6c0,2.8-2.7,4.5-5.1,4.5   c-1.9,0-3.7-0.7-4.9-2.3l1.4-1c0.7,1.1,1.9,1.9,3.5,1.9c1.6,0,3.3-1,3.3-2.8c0-4.4-8-2-8-7.7c0-3,2.5-4.4,5-4.4   c1.8,0,3.2,0.5,4.4,1.9L228.5,37.1z"/>
	<path class="st5" d="M238.1,41.1h-3v6.1c0,1.5,0.6,1.8,1.5,1.8c0.5,0,1.1-0.2,1.5-0.4l0.1,1.3c-0.5,0.2-1.2,0.4-2,0.4   c-1.1,0-2.6-0.5-2.6-2.8v-6.5h-2.2v-1.3h2.2v-2.9h1.5v2.9h3V41.1z"/>
	<path class="st5" d="M240.1,43c0-0.9,0-1.7-0.1-3.2h1.4v1.9h0c0.4-1.1,1.5-2.2,3.3-2.2c0.4,0,0.8,0,1.1,0.1l-0.3,1.4   c-0.2-0.1-0.4-0.1-0.8-0.1c-2.2,0-3.2,1.9-3.2,3.3v5.8h-1.5V43z"/>
	<path class="st5" d="M253.8,43.8v-0.3c0-1.8-0.9-2.7-2.6-2.7c-1.2,0-2.3,0.4-3.1,1.2l-0.9-1c0.9-1,2.4-1.5,4.4-1.5   c2,0,3.8,1.1,3.8,3.7v4.6c0,0.8,0.1,1.8,0.2,2.3H254c-0.1-0.5-0.1-1.1-0.1-1.7h0c-0.8,1.4-2,1.9-3.6,1.9c-1.8,0-3.5-1-3.5-3   c0-3.3,3.9-3.6,6.4-3.6H253.8z M253.1,45c-1.5,0-4.8,0.1-4.8,2.2c0,1.4,1.3,1.9,2.4,1.9c2.1,0,3.1-1.5,3.1-3.3V45H253.1z"/>
	<path class="st5" d="M263.9,41.1h-3v6.1c0,1.5,0.6,1.8,1.5,1.8c0.5,0,1.1-0.2,1.5-0.4L264,50c-0.5,0.2-1.2,0.4-2,0.4   c-1.1,0-2.6-0.5-2.6-2.8v-6.5h-2.2v-1.3h2.2v-2.9h1.5v2.9h3V41.1z"/>
	<path class="st5" d="M266.8,45.3c0.2,2.1,1.7,3.7,3.8,3.7c1.5,0,2.7-0.9,3.3-1.8l1.1,0.9c-1.2,1.5-2.7,2.2-4.4,2.2   c-3.1,0-5.3-2.3-5.3-5.4c0-3.1,2.3-5.4,5.2-5.4c3.1,0,4.9,2.3,4.9,5.1v0.7H266.8z M273.8,44.2c0-2-1.3-3.3-3.3-3.3   c-1.9,0-3.6,1.6-3.6,3.3H273.8z"/>
	<path class="st5" d="M278.8,52.2c0.9,1.1,2.3,1.9,3.9,1.9c2.9,0,4-1.8,4-4v-1.8h0c-0.9,1.4-2.4,1.9-3.9,1.9c-3,0-5.4-2.2-5.4-5.2   c0-3,2.2-5.3,5.2-5.3c1.2,0,2.8,0.4,4,2h0v-1.7h1.5V50c0,2.2-0.9,5.4-5.5,5.4c-2,0-3.6-0.7-5-2.1L278.8,52.2z M282.9,48.8   c2.1,0,4-1.6,3.9-4c0-2.2-1.5-4-3.9-4c-2.2,0-3.8,1.8-3.8,4S280.7,48.8,282.9,48.8z"/>
	<path class="st5" d="M295.2,48.3l3.1-8.5h1.8l-5.1,13c-0.6,1.6-1.5,2.6-3.2,2.6c-0.4,0-0.9,0-1.3-0.2l0.2-1.4   c0.3,0.2,0.7,0.2,1.1,0.2c1,0,1.5-0.7,2-1.8l0.7-2l-4.2-10.4h1.8L295.2,48.3z"/>
</g>
<g>
	<path class="st5" d="M495.1,35.6h4.6c2.6,0,5,1,5,3.9c0,1.7-1,3-2.8,3.4v0c2.2,0.2,3.5,1.6,3.5,3.9c0,1-0.7,4.3-5.7,4.3h-4.8V35.6z    M496.7,42.4h3.2c1.5,0,3.2-0.7,3.2-2.7c0-0.6-0.3-2.6-3.3-2.6h-3V42.4z M496.7,49.7h3c2.3,0,4.1-0.9,4.1-2.9c0-2-1.4-3-3.9-3h-3.2   V49.7z"/>
	<path class="st5" d="M510.1,51.1h-1.5V34.5h1.5V51.1z"/>
	<path class="st5" d="M521,51.1c-0.1-0.6-0.1-1.1-0.1-1.7h0c-0.6,1.1-2.1,1.9-3.5,1.9c-2.6,0-3.9-1.5-3.9-4v-6.5h1.5v5.7   c0,2.3,0.6,3.5,2.8,3.5c0.3,0,3.1-0.2,3.1-4v-5.3h1.5v8c0,0.5,0.1,1.5,0.1,2.3H521z"/>
	<path class="st5" d="M526.7,46.4c0.2,2.1,1.7,3.7,3.8,3.7c1.5,0,2.7-0.9,3.3-1.8l1.1,0.9c-1.2,1.5-2.7,2.2-4.4,2.2   c-3.1,0-5.3-2.3-5.3-5.4c0-3.1,2.3-5.4,5.2-5.4c3.1,0,4.9,2.3,4.9,5.1v0.7H526.7z M533.7,45.2c0-2-1.3-3.3-3.3-3.3   c-1.9,0-3.6,1.6-3.6,3.3H533.7z"/>
	<path class="st5" d="M551.5,51.5c-4.6,0-8.1-3.5-8.1-8.2c0-4.7,3.5-8.2,8.1-8.2s8.1,3.5,8.1,8.2C559.6,48.1,556.2,51.5,551.5,51.5z    M551.5,36.6c-4,0-6.4,3.1-6.4,6.7s2.4,6.7,6.4,6.7s6.4-3.1,6.4-6.7S555.5,36.6,551.5,36.6z"/>
	<path class="st5" d="M569.7,43.3c-0.5-0.7-1.4-1.4-2.6-1.4c-2.4,0-3.9,1.7-3.9,4.1c0,2.4,1.5,4.1,3.9,4.1c1.1,0,2.1-0.6,2.6-1.4   l1.2,0.9c-1,1.2-2.4,1.8-3.8,1.8c-3.4,0-5.5-2.3-5.5-5.4c0-3.1,2.1-5.5,5.5-5.4c1.4,0,2.8,0.6,3.8,1.8L569.7,43.3z"/>
	<path class="st5" d="M573.8,46.4c0.2,2.1,1.7,3.7,3.8,3.7c1.5,0,2.7-0.9,3.3-1.8l1.1,0.9c-1.2,1.5-2.7,2.2-4.4,2.2   c-3.1,0-5.3-2.3-5.3-5.4c0-3.1,2.3-5.4,5.2-5.4c3.1,0,4.9,2.3,4.9,5.1v0.7H573.8z M580.8,45.2c0-2-1.3-3.3-3.3-3.3   c-1.9,0-3.6,1.6-3.6,3.3H580.8z"/>
	<path class="st5" d="M591.5,44.8v-0.3c0-1.8-0.9-2.7-2.6-2.7c-1.2,0-2.3,0.4-3.1,1.2l-0.9-1c0.9-1,2.4-1.5,4.4-1.5   c2,0,3.8,1.1,3.8,3.7v4.6c0,0.8,0.1,1.8,0.2,2.3h-1.4c-0.1-0.5-0.1-1.1-0.1-1.7h0c-0.8,1.4-2,1.9-3.6,1.9c-1.8,0-3.5-1-3.5-3   c0-3.3,3.9-3.6,6.4-3.6H591.5z M590.8,46c-1.5,0-4.8,0.1-4.8,2.2c0,1.4,1.3,1.9,2.4,1.9c2.1,0,3.1-1.5,3.1-3.3V46H590.8z"/>
	<path class="st5" d="M597.7,40.8c0.1,0.5,0.1,1.1,0.1,1.6h0c0.6-1.1,2.1-1.9,3.5-1.9c2.6,0,3.9,1.5,3.9,4v6.5h-1.5v-5.7   c0-2.3-0.6-3.5-2.8-3.5c-0.3,0-3.1,0.2-3.1,4v5.3h-1.5v-8c0-0.5-0.1-1.5-0.1-2.3H597.7z"/>
	<path class="st5" d="M622.4,38.1c-0.7-1-1.7-1.5-3-1.5c-1.6,0-3.3,0.9-3.3,2.8c0,4.2,8,2,8,7.6c0,2.8-2.7,4.5-5.1,4.5   c-1.9,0-3.7-0.7-4.9-2.3l1.4-1c0.7,1.1,1.9,1.9,3.5,1.9c1.6,0,3.3-1,3.3-2.8c0-4.4-8-2-8-7.7c0-3,2.5-4.4,5-4.4   c1.8,0,3.2,0.5,4.4,1.9L622.4,38.1z"/>
	<path class="st5" d="M632,42.2h-3v6.1c0,1.5,0.6,1.8,1.5,1.8c0.5,0,1.1-0.2,1.5-0.4l0.1,1.3c-0.5,0.2-1.2,0.4-2,0.4   c-1.1,0-2.6-0.5-2.6-2.8v-6.5h-2.2v-1.3h2.2v-2.9h1.5v2.9h3V42.2z"/>
	<path class="st5" d="M634,44.1c0-0.9,0-1.7-0.1-3.2h1.4v1.9h0c0.4-1.1,1.5-2.2,3.3-2.2c0.4,0,0.8,0,1.1,0.1l-0.3,1.4   c-0.2-0.1-0.4-0.1-0.8-0.1c-2.2,0-3.2,1.9-3.2,3.3v5.8H634V44.1z"/>
	<path class="st5" d="M647.7,44.8v-0.3c0-1.8-0.9-2.7-2.6-2.7c-1.2,0-2.3,0.4-3.1,1.2l-0.9-1c0.9-1,2.4-1.5,4.4-1.5   c2,0,3.8,1.1,3.8,3.7v4.6c0,0.8,0.1,1.8,0.2,2.3h-1.4c-0.1-0.5-0.1-1.1-0.1-1.7h0c-0.8,1.4-2,1.9-3.6,1.9c-1.8,0-3.5-1-3.5-3   c0-3.3,3.9-3.6,6.4-3.6H647.7z M647,46c-1.5,0-4.8,0.1-4.8,2.2c0,1.4,1.3,1.9,2.4,1.9c2.1,0,3.1-1.5,3.1-3.3V46H647z"/>
	<path class="st5" d="M657.8,42.2h-3v6.1c0,1.5,0.6,1.8,1.5,1.8c0.5,0,1.1-0.2,1.5-0.4l0.1,1.3c-0.5,0.2-1.2,0.4-2,0.4   c-1.1,0-2.6-0.5-2.6-2.8v-6.5h-2.2v-1.3h2.2v-2.9h1.5v2.9h3V42.2z"/>
	<path class="st5" d="M660.7,46.4c0.2,2.1,1.7,3.7,3.8,3.7c1.5,0,2.7-0.9,3.3-1.8l1.1,0.9c-1.2,1.5-2.7,2.2-4.4,2.2   c-3.1,0-5.3-2.3-5.3-5.4c0-3.1,2.3-5.4,5.2-5.4c3.1,0,4.9,2.3,4.9,5.1v0.7H660.7z M667.7,45.2c0-2-1.3-3.3-3.3-3.3   c-1.9,0-3.6,1.6-3.6,3.3H667.7z"/>
	<path class="st5" d="M672.7,53.2c0.9,1.1,2.3,1.9,3.9,1.9c2.9,0,4-1.8,4-4v-1.8h0c-0.9,1.4-2.4,1.9-3.9,1.9c-3,0-5.4-2.2-5.4-5.2   c0-3,2.2-5.3,5.2-5.3c1.2,0,2.8,0.4,4,2h0v-1.7h1.5v10.2c0,2.2-0.9,5.4-5.5,5.4c-2,0-3.6-0.7-5-2.1L672.7,53.2z M676.8,49.8   c2.1,0,4-1.6,3.9-4c0-2.2-1.5-4-3.9-4c-2.2,0-3.8,1.8-3.8,4S674.6,49.8,676.8,49.8z"/>
	<path class="st5" d="M689.1,49.4l3.1-8.5h1.8l-5.1,13c-0.6,1.6-1.5,2.6-3.2,2.6c-0.4,0-0.9,0-1.3-0.2l0.2-1.4   c0.3,0.2,0.7,0.2,1.1,0.2c1,0,1.5-0.7,2-1.8l0.7-2L684,40.8h1.8L689.1,49.4z"/>
</g>
<g>
	<g>
		<path class="st6" d="M48.8,101.3c-0.4,0.2-1.3,0.4-2.5,0.4c-2.7,0-4.7-1.7-4.7-4.8c0-3,2-5,4.9-5c1.2,0,1.9,0.3,2.2,0.4l-0.3,1    C48,93.2,47.4,93,46.6,93c-2.2,0-3.7,1.4-3.7,3.9c0,2.3,1.3,3.8,3.6,3.8c0.7,0,1.5-0.2,2-0.4L48.8,101.3z"/>
		<path class="st6" d="M56.2,98.2c0,2.5-1.7,3.6-3.4,3.6c-1.8,0-3.3-1.3-3.3-3.5c0-2.3,1.5-3.6,3.4-3.6    C54.9,94.7,56.2,96.1,56.2,98.2z M50.8,98.2c0,1.5,0.9,2.6,2.1,2.6c1.2,0,2.1-1.1,2.1-2.6c0-1.1-0.6-2.6-2-2.6    C51.5,95.6,50.8,96.9,50.8,98.2z"/>
		<path class="st6" d="M57.8,96.7c0-0.7,0-1.3-0.1-1.8h1.1l0.1,1.1h0c0.4-0.6,1-1.2,2.1-1.2c0.9,0,1.6,0.6,1.9,1.4h0    c0.2-0.4,0.5-0.7,0.8-0.9c0.4-0.3,0.9-0.5,1.5-0.5c0.9,0,2.2,0.6,2.2,2.9v4h-1.2v-3.8c0-1.3-0.5-2.1-1.5-2.1    c-0.7,0-1.2,0.5-1.5,1.1c-0.1,0.2-0.1,0.4-0.1,0.6v4.2H62v-4.1c0-1.1-0.5-1.9-1.4-1.9c-0.8,0-1.3,0.6-1.5,1.2    C59,97.1,59,97.3,59,97.5v4.1h-1.2V96.7z"/>
		<path class="st6" d="M69.5,97c0-0.9,0-1.6-0.1-2.2h1.1l0.1,1.2h0c0.5-0.8,1.3-1.3,2.4-1.3c1.6,0,2.9,1.4,2.9,3.4    c0,2.4-1.5,3.6-3.1,3.6c-0.9,0-1.7-0.4-2.1-1.1h0v3.7h-1.2V97z M70.7,98.9c0,0.2,0,0.4,0.1,0.5c0.2,0.9,1,1.4,1.8,1.4    c1.3,0,2.1-1.1,2.1-2.6c0-1.4-0.7-2.5-2-2.5c-0.8,0-1.6,0.6-1.9,1.5c0,0.2-0.1,0.3-0.1,0.5V98.9z"/>
		<path class="st6" d="M78.1,98.4c0,1.7,1.1,2.4,2.3,2.4c0.9,0,1.4-0.2,1.9-0.4l0.2,0.9c-0.4,0.2-1.2,0.4-2.3,0.4    c-2.1,0-3.3-1.4-3.3-3.4c0-2,1.2-3.7,3.2-3.7c2.2,0,2.8,1.9,2.8,3.2c0,0.3,0,0.4,0,0.6H78.1z M81.7,97.6c0-0.8-0.3-2-1.7-2    c-1.2,0-1.8,1.1-1.9,2H81.7z"/>
		<path class="st6" d="M85.9,92.9v1.9h1.8v0.9h-1.8v3.7c0,0.8,0.2,1.3,0.9,1.3c0.3,0,0.6,0,0.7-0.1l0.1,0.9    c-0.2,0.1-0.6,0.2-1.1,0.2c-0.6,0-1-0.2-1.3-0.5c-0.4-0.4-0.5-1-0.5-1.8v-3.7h-1.1v-0.9h1.1v-1.6L85.9,92.9z"/>
		<path class="st6" d="M89.7,98.4c0,1.7,1.1,2.4,2.3,2.4c0.9,0,1.4-0.2,1.9-0.4l0.2,0.9c-0.4,0.2-1.2,0.4-2.3,0.4    c-2.1,0-3.3-1.4-3.3-3.4c0-2,1.2-3.7,3.2-3.7c2.2,0,2.8,1.9,2.8,3.2c0,0.3,0,0.4,0,0.6H89.7z M93.3,97.6c0-0.8-0.3-2-1.7-2    c-1.2,0-1.8,1.1-1.9,2H93.3z"/>
		<path class="st6" d="M100.3,92.9c0,0.4-0.3,0.8-0.8,0.8c-0.4,0-0.7-0.3-0.7-0.8c0-0.4,0.3-0.8,0.8-0.8    C100,92.2,100.3,92.5,100.3,92.9z M99,101.6v-6.8h1.2v6.8H99z"/>
		<path class="st6" d="M102.2,96.7c0-0.7,0-1.3-0.1-1.8h1.1l0.1,1.1h0c0.3-0.6,1.1-1.3,2.2-1.3c0.9,0,2.4,0.6,2.4,2.9v4h-1.2v-3.9    c0-1.1-0.4-2-1.6-2c-0.8,0-1.4,0.6-1.7,1.3c-0.1,0.2-0.1,0.4-0.1,0.6v4.1h-1.2V96.7z"/>
		<path class="st6" d="M119.1,100.4c-0.7,0.9-1.8,1.3-2.9,1.3c-2.1,0-3.8-1.4-3.8-3.6s1.7-3.6,3.8-3.6c2,0,3.2,1.4,3.2,3.6v0.7h-4.9    c0.2,0.8,0.8,1.3,1.6,1.3c0.7,0,1.1-0.4,1.5-0.8L119.1,100.4z M117.4,97.4c0-0.7-0.5-1.3-1.3-1.3c-0.9,0-1.4,0.6-1.5,1.3H117.4z"/>
		<path class="st6" d="M122.6,98l-2.3-3.2h2.5l1.2,1.8l1.2-1.8h2.3l-2.2,3.2l2.6,3.6h-2.5l-1.5-2.3l-1.6,2.3h-2.5L122.6,98z"/>
		<path class="st6" d="M129.6,91.4c0.7,0,1.2,0.5,1.2,1.2s-0.5,1.2-1.2,1.2s-1.2-0.5-1.2-1.2S128.9,91.4,129.6,91.4z M128.5,94.8    h2.1v6.8h-2.1V94.8z"/>
		<path class="st6" d="M136,96.8c-0.3-0.4-0.7-0.6-1.2-0.6c-0.4,0-0.8,0.2-0.8,0.6c0,1,3.5,0.2,3.5,2.7c0,1.7-1.7,2.2-3.1,2.2    c-1,0-2-0.2-2.7-0.9l1.3-1.4c0.4,0.5,0.9,0.7,1.5,0.7c0.5,0,1-0.1,1-0.5c0-1.1-3.5-0.2-3.5-2.8c0-1.6,1.4-2.3,2.9-2.3    c0.9,0,1.9,0.2,2.5,0.9L136,96.8z"/>
		<path class="st6" d="M143.3,96.5h-1.8v2.3c0,0.7,0.1,1.3,1,1.3c0.2,0,0.7,0,0.9-0.2v1.8c-0.5,0.2-1,0.2-1.5,0.2    c-1.4,0-2.5-0.6-2.5-2.1v-3.2H138v-1.7h1.3v-2h2.1v2h1.8V96.5z"/>
		<path class="st6" d="M145.4,91.4c0.7,0,1.2,0.5,1.2,1.2s-0.5,1.2-1.2,1.2s-1.2-0.5-1.2-1.2S144.7,91.4,145.4,91.4z M144.4,94.8    h2.1v6.8h-2.1V94.8z"/>
		<path class="st6" d="M148,94.8h2v0.9h0c0.3-0.5,1-1.1,2-1.1c2.1,0,2.5,1.4,2.5,3.2v3.8h-2.1v-3.3c0-0.8,0-1.8-1.1-1.8    c-1.1,0-1.3,0.9-1.3,1.7v3.4H148V94.8z"/>
		<path class="st6" d="M163.2,101c0,2.6-1.3,3.9-3.9,3.9c-1.2,0-2.4-0.2-3.4-1l1.2-1.7c0.6,0.5,1.4,0.9,2.2,0.9    c1.3,0,1.9-0.7,1.9-1.7v-0.7h0c-0.5,0.7-1.3,0.9-1.9,0.9c-2,0-3.3-1.5-3.3-3.5c0-1.8,1.2-3.5,3.1-3.5c1.2,0,2,0.6,2.3,1.1h0v-0.9    h1.9V101z M159.5,99.8c1,0,1.7-0.8,1.7-1.7s-0.7-1.7-1.7-1.7c-1,0-1.7,0.8-1.7,1.7S158.6,99.8,159.5,99.8z"/>
		<path class="st6" d="M169.3,96.7c0-0.7,0-1.3-0.1-1.8h1.1l0.1,1.1h0c0.4-0.6,1-1.2,2.1-1.2c0.9,0,1.6,0.6,1.9,1.4h0    c0.2-0.4,0.5-0.7,0.8-0.9c0.4-0.3,0.9-0.5,1.5-0.5c0.9,0,2.2,0.6,2.2,2.9v4h-1.2v-3.8c0-1.3-0.5-2.1-1.5-2.1    c-0.7,0-1.2,0.5-1.5,1.1c-0.1,0.2-0.1,0.4-0.1,0.6v4.2h-1.2v-4.1c0-1.1-0.5-1.9-1.4-1.9c-0.8,0-1.3,0.6-1.5,1.2    c-0.1,0.2-0.1,0.4-0.1,0.6v4.1h-1.2V96.7z"/>
		<path class="st6" d="M184.7,101.6l-0.1-0.9h0c-0.4,0.5-1.1,1-2.1,1c-1.4,0-2.1-1-2.1-1.9c0-1.6,1.5-2.5,4.1-2.5v-0.1    c0-0.6-0.2-1.6-1.5-1.6c-0.6,0-1.3,0.2-1.8,0.5l-0.3-0.8c0.6-0.4,1.4-0.6,2.2-0.6c2.1,0,2.6,1.4,2.6,2.8v2.5c0,0.6,0,1.2,0.1,1.6    H184.7z M184.5,98.2c-1.3,0-2.9,0.2-2.9,1.5c0,0.8,0.5,1.2,1.2,1.2c0.9,0,1.4-0.6,1.6-1.1c0-0.1,0.1-0.3,0.1-0.4V98.2z"/>
		<path class="st6" d="M187.7,96.9c0-0.8,0-1.5-0.1-2.1h1.1l0,1.3h0.1c0.3-0.9,1.1-1.5,1.9-1.5c0.1,0,0.2,0,0.4,0v1.2    c-0.1,0-0.3,0-0.4,0c-0.9,0-1.5,0.7-1.7,1.6c0,0.2-0.1,0.4-0.1,0.6v3.6h-1.2V96.9z"/>
		<path class="st6" d="M193.5,97.9L193.5,97.9c0.2-0.2,0.4-0.5,0.6-0.8l2-2.3h1.5l-2.6,2.8l3,4h-1.5l-2.3-3.3l-0.6,0.7v2.5h-1.2    v-9.9h1.2V97.9z"/>
		<path class="st6" d="M199.6,98.4c0,1.7,1.1,2.4,2.3,2.4c0.9,0,1.4-0.2,1.9-0.4l0.2,0.9c-0.4,0.2-1.2,0.4-2.3,0.4    c-2.1,0-3.3-1.4-3.3-3.4c0-2,1.2-3.7,3.2-3.7c2.2,0,2.8,1.9,2.8,3.2c0,0.3,0,0.4,0,0.6H199.6z M203.2,97.6c0-0.8-0.3-2-1.7-2    c-1.2,0-1.8,1.1-1.9,2H203.2z"/>
		<path class="st6" d="M207.4,92.9v1.9h1.8v0.9h-1.8v3.7c0,0.8,0.2,1.3,0.9,1.3c0.3,0,0.6,0,0.7-0.1l0.1,0.9    c-0.2,0.1-0.6,0.2-1.1,0.2c-0.6,0-1-0.2-1.3-0.5c-0.4-0.4-0.5-1-0.5-1.8v-3.7h-1.1v-0.9h1.1v-1.6L207.4,92.9z"/>
		<path class="st6" d="M213.3,100.4c0.4,0.2,1,0.5,1.6,0.5c0.9,0,1.3-0.4,1.3-1c0-0.6-0.4-0.9-1.3-1.2c-1.2-0.4-1.8-1.1-1.8-1.9    c0-1.1,0.9-2,2.3-2c0.7,0,1.3,0.2,1.7,0.4l-0.3,0.9c-0.3-0.2-0.8-0.4-1.4-0.4c-0.7,0-1.1,0.4-1.1,0.9c0,0.6,0.4,0.8,1.3,1.1    c1.2,0.4,1.8,1,1.8,2c0,1.2-0.9,2-2.5,2c-0.7,0-1.4-0.2-1.9-0.5L213.3,100.4z"/>
		<path class="st6" d="M219,97c0-0.9,0-1.6-0.1-2.2h1.1l0.1,1.2h0c0.5-0.8,1.3-1.3,2.4-1.3c1.6,0,2.9,1.4,2.9,3.4    c0,2.4-1.5,3.6-3.1,3.6c-0.9,0-1.7-0.4-2.1-1.1h0v3.7H219V97z M220.3,98.9c0,0.2,0,0.4,0.1,0.5c0.2,0.9,1,1.4,1.8,1.4    c1.3,0,2.1-1.1,2.1-2.6c0-1.4-0.7-2.5-2-2.5c-0.8,0-1.6,0.6-1.9,1.5c0,0.2-0.1,0.3-0.1,0.5V98.9z"/>
		<path class="st6" d="M230.8,101.6l-0.1-0.9h0c-0.4,0.5-1.1,1-2.1,1c-1.4,0-2.1-1-2.1-1.9c0-1.6,1.5-2.5,4.1-2.5v-0.1    c0-0.6-0.2-1.6-1.5-1.6c-0.6,0-1.3,0.2-1.8,0.5l-0.3-0.8c0.6-0.4,1.4-0.6,2.2-0.6c2.1,0,2.6,1.4,2.6,2.8v2.5c0,0.6,0,1.2,0.1,1.6    H230.8z M230.6,98.2c-1.3,0-2.9,0.2-2.9,1.5c0,0.8,0.5,1.2,1.2,1.2c0.9,0,1.4-0.6,1.6-1.1c0-0.1,0.1-0.3,0.1-0.4V98.2z"/>
		<path class="st6" d="M238.6,101.4c-0.3,0.2-1,0.4-1.9,0.4c-2,0-3.4-1.4-3.4-3.5c0-2.1,1.4-3.6,3.6-3.6c0.7,0,1.4,0.2,1.7,0.4    l-0.3,1c-0.3-0.2-0.8-0.3-1.4-0.3c-1.6,0-2.4,1.1-2.4,2.6c0,1.6,1,2.5,2.4,2.5c0.7,0,1.2-0.2,1.5-0.3L238.6,101.4z"/>
		<path class="st6" d="M240.6,98.4c0,1.7,1.1,2.4,2.3,2.4c0.9,0,1.4-0.2,1.9-0.4l0.2,0.9c-0.4,0.2-1.2,0.4-2.3,0.4    c-2.1,0-3.3-1.4-3.3-3.4c0-2,1.2-3.7,3.2-3.7c2.2,0,2.8,1.9,2.8,3.2c0,0.3,0,0.4,0,0.6H240.6z M244.2,97.6c0-0.8-0.3-2-1.7-2    c-1.2,0-1.8,1.1-1.9,2H244.2z"/>
		<path class="st6" d="M246.5,100.9c0-0.5,0.4-0.9,0.8-0.9s0.8,0.4,0.8,0.9c0,0.5-0.3,0.9-0.8,0.9    C246.8,101.8,246.5,101.4,246.5,100.9z"/>
	</g>
</g>
<g>
	<g>
		<path class="st6" d="M42.1,140.7h3.7c1.7,0,3.6,0.4,3.6,2.5c0,1.1-0.7,1.9-1.7,2.2v0c1.3,0.2,2.2,1.1,2.2,2.4c0,2.1-2,2.8-3.7,2.8    h-4.1V140.7z M44.3,144.7h1.6c0.7,0,1.4-0.3,1.4-1.1c0-0.8-0.8-1-1.5-1h-1.5V144.7z M44.3,148.8h2c0.7,0,1.5-0.3,1.5-1.2    c0-0.9-1.1-1.1-1.8-1.1h-1.7V148.8z"/>
		<path class="st6" d="M57.4,149.5c-0.7,0.9-1.8,1.3-2.9,1.3c-2.1,0-3.8-1.4-3.8-3.6c0-2.2,1.7-3.6,3.8-3.6c2,0,3.2,1.4,3.2,3.6v0.7    h-4.9c0.2,0.8,0.8,1.3,1.6,1.3c0.7,0,1.1-0.4,1.5-0.8L57.4,149.5z M55.6,146.5c0-0.7-0.5-1.3-1.3-1.3c-0.9,0-1.4,0.6-1.5,1.3H55.6    z"/>
		<path class="st6" d="M63.2,149.8L63.2,149.8c-0.5,0.7-1.3,1-2.2,1c-1.3,0-2.4-0.7-2.4-2.1c0-2.4,2.9-2.4,4.6-2.4    c0-0.7-0.6-1.2-1.3-1.2c-0.7,0-1.3,0.3-1.7,0.8l-1.1-1.1c0.8-0.7,1.9-1.1,3-1.1c2.5,0,3.1,1.2,3.1,3.5v3.5h-1.9V149.8z     M62.7,147.7c-0.6,0-2.1,0.1-2.1,1c0,0.5,0.5,0.7,1,0.7c0.8,0,1.6-0.4,1.6-1.3v-0.4H62.7z"/>
		<path class="st6" d="M71.1,145.5h-1.8v2.3c0,0.7,0.1,1.3,1,1.3c0.2,0,0.7,0,0.9-0.2v1.8c-0.5,0.2-1,0.2-1.5,0.2    c-1.4,0-2.5-0.6-2.5-2.1v-3.2h-1.3v-1.7h1.3v-2h2.1v2h1.8V145.5z"/>
		<path class="st6" d="M78.1,141.9v1.9h1.8v0.9h-1.8v3.7c0,0.8,0.2,1.3,0.9,1.3c0.3,0,0.6,0,0.7-0.1l0.1,0.9    c-0.2,0.1-0.6,0.2-1.1,0.2c-0.6,0-1-0.2-1.3-0.5c-0.4-0.4-0.5-1-0.5-1.8v-3.7h-1.1v-0.9h1.1v-1.6L78.1,141.9z"/>
		<path class="st6" d="M81.2,140.7h1.2v4.2h0c0.2-0.4,0.5-0.7,0.9-0.9c0.4-0.2,0.8-0.4,1.3-0.4c0.9,0,2.4,0.6,2.4,2.9v4h-1.2v-3.9    c0-1.1-0.4-2-1.6-2c-0.8,0-1.4,0.6-1.7,1.2c-0.1,0.2-0.1,0.4-0.1,0.6v4.1h-1.2V140.7z"/>
		<path class="st6" d="M89.7,147.5c0,1.7,1.1,2.4,2.3,2.4c0.9,0,1.4-0.2,1.9-0.4l0.2,0.9c-0.4,0.2-1.2,0.4-2.3,0.4    c-2.1,0-3.3-1.4-3.3-3.4s1.2-3.7,3.2-3.7c2.2,0,2.8,1.9,2.8,3.2c0,0.3,0,0.4,0,0.6H89.7z M93.3,146.6c0-0.8-0.3-2-1.7-2    c-1.2,0-1.8,1.1-1.9,2H93.3z"/>
		<path class="st6" d="M103.8,150.4c-0.3,0.2-1,0.4-1.9,0.4c-2,0-3.4-1.4-3.4-3.5c0-2.1,1.4-3.6,3.6-3.6c0.7,0,1.4,0.2,1.7,0.4    l-0.3,1c-0.3-0.2-0.8-0.3-1.4-0.3c-1.6,0-2.4,1.1-2.4,2.6c0,1.6,1,2.5,2.4,2.5c0.7,0,1.2-0.2,1.5-0.3L103.8,150.4z"/>
		<path class="st6" d="M111.3,147.2c0,2.5-1.7,3.6-3.4,3.6c-1.8,0-3.3-1.3-3.3-3.5c0-2.3,1.5-3.6,3.4-3.6    C110,143.7,111.3,145.1,111.3,147.2z M105.9,147.3c0,1.5,0.9,2.6,2.1,2.6c1.2,0,2.1-1.1,2.1-2.6c0-1.1-0.6-2.6-2-2.6    C106.6,144.6,105.9,146,105.9,147.3z"/>
		<path class="st6" d="M112.9,145.7c0-0.7,0-1.3-0.1-1.8h1.1l0.1,1.1h0c0.4-0.6,1-1.2,2.1-1.2c0.9,0,1.6,0.6,1.9,1.4h0    c0.2-0.4,0.5-0.7,0.8-0.9c0.4-0.3,0.9-0.5,1.5-0.5c0.9,0,2.2,0.6,2.2,2.9v4h-1.2v-3.8c0-1.3-0.5-2.1-1.5-2.1    c-0.7,0-1.2,0.5-1.5,1.1c-0.1,0.2-0.1,0.4-0.1,0.6v4.2h-1.2v-4.1c0-1.1-0.5-1.9-1.4-1.9c-0.8,0-1.3,0.6-1.5,1.2    c-0.1,0.2-0.1,0.4-0.1,0.6v4.1h-1.2V145.7z"/>
		<path class="st6" d="M124.5,146.1c0-0.9,0-1.6-0.1-2.2h1.1l0.1,1.2h0c0.5-0.8,1.3-1.3,2.4-1.3c1.6,0,2.9,1.4,2.9,3.4    c0,2.4-1.5,3.6-3.1,3.6c-0.9,0-1.7-0.4-2.1-1.1h0v3.7h-1.2V146.1z M125.7,147.9c0,0.2,0,0.4,0.1,0.5c0.2,0.9,1,1.4,1.8,1.4    c1.3,0,2.1-1.1,2.1-2.6c0-1.4-0.7-2.5-2-2.5c-0.8,0-1.6,0.6-1.9,1.5c0,0.2-0.1,0.3-0.1,0.5V147.9z"/>
		<path class="st6" d="M133.2,147.5c0,1.7,1.1,2.4,2.3,2.4c0.9,0,1.4-0.2,1.9-0.4l0.2,0.9c-0.4,0.2-1.2,0.4-2.3,0.4    c-2.1,0-3.3-1.4-3.3-3.4s1.2-3.7,3.2-3.7c2.2,0,2.8,1.9,2.8,3.2c0,0.3,0,0.4,0,0.6H133.2z M136.8,146.6c0-0.8-0.3-2-1.7-2    c-1.2,0-1.8,1.1-1.9,2H136.8z"/>
		<path class="st6" d="M141,141.9v1.9h1.8v0.9H141v3.7c0,0.8,0.2,1.3,0.9,1.3c0.3,0,0.6,0,0.7-0.1l0.1,0.9c-0.2,0.1-0.6,0.2-1.1,0.2    c-0.6,0-1-0.2-1.3-0.5c-0.4-0.4-0.5-1-0.5-1.8v-3.7h-1.1v-0.9h1.1v-1.6L141,141.9z"/>
		<path class="st6" d="M145.5,142c0,0.4-0.3,0.8-0.8,0.8c-0.4,0-0.7-0.3-0.7-0.8c0-0.4,0.3-0.8,0.8-0.8    C145.2,141.2,145.5,141.5,145.5,142z M144.1,150.6v-6.8h1.2v6.8H144.1z"/>
		<path class="st6" d="M148.9,141.9v1.9h1.8v0.9h-1.8v3.7c0,0.8,0.2,1.3,0.9,1.3c0.3,0,0.6,0,0.7-0.1l0.1,0.9    c-0.2,0.1-0.6,0.2-1.1,0.2c-0.6,0-1-0.2-1.3-0.5c-0.4-0.4-0.5-1-0.5-1.8v-3.7h-1.1v-0.9h1.1v-1.6L148.9,141.9z"/>
		<path class="st6" d="M153.4,142c0,0.4-0.3,0.8-0.8,0.8c-0.4,0-0.7-0.3-0.7-0.8c0-0.4,0.3-0.8,0.8-0.8    C153.1,141.2,153.4,141.5,153.4,142z M152.1,150.6v-6.8h1.2v6.8H152.1z"/>
		<path class="st6" d="M161.5,147.2c0,2.5-1.7,3.6-3.4,3.6c-1.8,0-3.3-1.3-3.3-3.5c0-2.3,1.5-3.6,3.4-3.6    C160.1,143.7,161.5,145.1,161.5,147.2z M156.1,147.3c0,1.5,0.9,2.6,2.1,2.6c1.2,0,2.1-1.1,2.1-2.6c0-1.1-0.6-2.6-2-2.6    C156.7,144.6,156.1,146,156.1,147.3z"/>
		<path class="st6" d="M163,145.7c0-0.7,0-1.3-0.1-1.8h1.1l0.1,1.1h0c0.3-0.6,1.1-1.3,2.2-1.3c0.9,0,2.4,0.6,2.4,2.9v4h-1.2v-3.9    c0-1.1-0.4-2-1.6-2c-0.8,0-1.4,0.6-1.7,1.3c-0.1,0.2-0.1,0.4-0.1,0.6v4.1H163V145.7z"/>
		<path class="st6" d="M170.5,149.9c0-0.5,0.4-0.9,0.8-0.9s0.8,0.4,0.8,0.9c0,0.5-0.3,0.9-0.8,0.9    C170.8,150.8,170.5,150.4,170.5,149.9z"/>
	</g>
</g>
<g>
	<g>
		<path class="st6" d="M47.1,197.4h-3.7v3.4h4.1v1h-5.3v-9.4h5.1v1h-3.9v3h3.7V197.4z"/>
		<path class="st6" d="M49.6,195l1,1.5c0.3,0.4,0.5,0.7,0.7,1.1h0c0.2-0.4,0.4-0.8,0.7-1.1l1-1.4h1.3l-2.3,3.3l2.4,3.5h-1.4l-1-1.5    c-0.3-0.4-0.5-0.8-0.7-1.2h0c-0.2,0.4-0.5,0.8-0.7,1.2l-1,1.5h-1.4l2.4-3.5l-2.3-3.3H49.6z"/>
		<path class="st6" d="M55.5,197.2c0-0.9,0-1.6-0.1-2.2h1.1l0.1,1.2h0c0.5-0.8,1.3-1.3,2.4-1.3c1.6,0,2.9,1.4,2.9,3.4    c0,2.4-1.5,3.6-3.1,3.6c-0.9,0-1.7-0.4-2.1-1.1h0v3.7h-1.2V197.2z M56.7,199c0,0.2,0,0.4,0.1,0.5c0.2,0.9,1,1.4,1.8,1.4    c1.3,0,2.1-1.1,2.1-2.6c0-1.4-0.7-2.5-2-2.5c-0.8,0-1.6,0.6-1.9,1.5c0,0.2-0.1,0.3-0.1,0.5V199z"/>
		<path class="st6" d="M63.5,191.8h1.2v9.9h-1.2V191.8z"/>
		<path class="st6" d="M72.9,198.3c0,2.5-1.7,3.6-3.4,3.6c-1.8,0-3.3-1.3-3.3-3.5c0-2.3,1.5-3.6,3.4-3.6    C71.6,194.8,72.9,196.3,72.9,198.3z M67.5,198.4c0,1.5,0.9,2.6,2.1,2.6c1.2,0,2.1-1.1,2.1-2.6c0-1.1-0.6-2.6-2-2.6    C68.2,195.8,67.5,197.1,67.5,198.4z"/>
		<path class="st6" d="M75.8,193.1c0,0.4-0.3,0.8-0.8,0.8c-0.4,0-0.7-0.3-0.7-0.8c0-0.4,0.3-0.8,0.8-0.8    C75.5,192.3,75.8,192.7,75.8,193.1z M74.5,201.8V195h1.2v6.8H74.5z"/>
		<path class="st6" d="M79.2,193v1.9H81v0.9h-1.8v3.7c0,0.8,0.2,1.3,0.9,1.3c0.3,0,0.6,0,0.7-0.1l0.1,0.9c-0.2,0.1-0.6,0.2-1.1,0.2    c-0.6,0-1-0.2-1.3-0.5c-0.4-0.4-0.5-1-0.5-1.8v-3.7H77V195H78v-1.6L79.2,193z"/>
		<path class="st6" d="M91.5,200.6c-0.7,0.9-1.8,1.3-2.9,1.3c-2.1,0-3.8-1.4-3.8-3.6s1.7-3.6,3.8-3.6c2,0,3.2,1.4,3.2,3.6v0.7h-4.9    c0.2,0.8,0.8,1.3,1.6,1.3c0.7,0,1.1-0.4,1.5-0.8L91.5,200.6z M89.7,197.6c0-0.7-0.5-1.3-1.3-1.3c-0.9,0-1.4,0.6-1.5,1.3H89.7z"/>
		<path class="st6" d="M94.9,198.1l-2.3-3.2h2.5l1.2,1.8l1.2-1.8h2.3l-2.2,3.2l2.6,3.6h-2.5l-1.5-2.3l-1.6,2.3h-2.5L94.9,198.1z"/>
		<path class="st6" d="M101.9,191.6c0.7,0,1.2,0.5,1.2,1.2s-0.5,1.2-1.2,1.2s-1.2-0.5-1.2-1.2S101.3,191.6,101.9,191.6z M100.9,195    h2.1v6.8h-2.1V195z"/>
		<path class="st6" d="M108.4,197c-0.3-0.4-0.7-0.6-1.2-0.6c-0.4,0-0.8,0.2-0.8,0.6c0,1,3.5,0.2,3.5,2.7c0,1.7-1.7,2.2-3.1,2.2    c-1,0-2-0.2-2.7-0.9l1.3-1.4c0.4,0.5,0.9,0.7,1.5,0.7c0.5,0,1-0.1,1-0.5c0-1.1-3.5-0.2-3.5-2.8c0-1.6,1.4-2.3,2.9-2.3    c0.9,0,1.9,0.2,2.5,0.9L108.4,197z"/>
		<path class="st6" d="M115.6,196.6h-1.8v2.3c0,0.7,0.1,1.3,1,1.3c0.2,0,0.7,0,0.9-0.2v1.8c-0.5,0.2-1,0.2-1.5,0.2    c-1.4,0-2.5-0.6-2.5-2.1v-3.2h-1.3V195h1.3v-2h2.1v2h1.8V196.6z"/>
		<path class="st6" d="M117.8,191.6c0.7,0,1.2,0.5,1.2,1.2s-0.5,1.2-1.2,1.2s-1.2-0.5-1.2-1.2S117.1,191.6,117.8,191.6z M116.7,195    h2.1v6.8h-2.1V195z"/>
		<path class="st6" d="M120.3,195h2v0.9h0c0.3-0.5,1-1.1,2-1.1c2.1,0,2.5,1.4,2.5,3.2v3.8h-2.1v-3.3c0-0.8,0-1.8-1.1-1.8    c-1.1,0-1.3,0.9-1.3,1.7v3.4h-2.1V195z"/>
		<path class="st6" d="M135.5,201.2c0,2.6-1.3,3.9-3.9,3.9c-1.2,0-2.4-0.2-3.4-1l1.2-1.7c0.6,0.5,1.4,0.9,2.2,0.9    c1.3,0,1.9-0.7,1.9-1.7V201h0c-0.5,0.7-1.3,0.9-1.9,0.9c-2,0-3.3-1.5-3.3-3.5c0-1.8,1.2-3.5,3.1-3.5c1.2,0,2,0.6,2.3,1.1h0V195    h1.9V201.2z M131.9,200c1,0,1.7-0.8,1.7-1.7s-0.7-1.7-1.7-1.7c-1,0-1.7,0.8-1.7,1.7S130.9,200,131.9,200z"/>
		<path class="st6" d="M147.5,191.8v8.2c0,0.6,0,1.3,0.1,1.8h-1.1l-0.1-1.2h0c-0.4,0.8-1.2,1.3-2.3,1.3c-1.6,0-2.9-1.4-2.9-3.4    c0-2.3,1.4-3.6,3-3.6c1,0,1.7,0.5,2,1h0v-4H147.5z M146.2,197.8c0-0.2,0-0.4-0.1-0.5c-0.2-0.8-0.9-1.4-1.8-1.4c-1.3,0-2,1.1-2,2.6    c0,1.4,0.7,2.5,2,2.5c0.8,0,1.6-0.5,1.8-1.5c0-0.2,0.1-0.3,0.1-0.5V197.8z"/>
		<path class="st6" d="M150.2,198.6c0,1.7,1.1,2.4,2.3,2.4c0.9,0,1.4-0.2,1.9-0.4l0.2,0.9c-0.4,0.2-1.2,0.4-2.3,0.4    c-2.1,0-3.3-1.4-3.3-3.4c0-2,1.2-3.7,3.2-3.7c2.2,0,2.8,1.9,2.8,3.2c0,0.3,0,0.4,0,0.6H150.2z M153.8,197.7c0-0.8-0.3-2-1.7-2    c-1.2,0-1.8,1.1-1.9,2H153.8z"/>
		<path class="st6" d="M156.5,196.8c0-0.7,0-1.3-0.1-1.8h1.1l0.1,1.1h0c0.4-0.6,1-1.2,2.1-1.2c0.9,0,1.6,0.6,1.9,1.4h0    c0.2-0.4,0.5-0.7,0.8-0.9c0.4-0.3,0.9-0.5,1.5-0.5c0.9,0,2.2,0.6,2.2,2.9v4H165v-3.8c0-1.3-0.5-2.1-1.5-2.1    c-0.7,0-1.2,0.5-1.5,1.1c-0.1,0.2-0.1,0.4-0.1,0.6v4.2h-1.2v-4.1c0-1.1-0.5-1.9-1.4-1.9c-0.8,0-1.3,0.6-1.5,1.2    c-0.1,0.2-0.1,0.4-0.1,0.6v4.1h-1.2V196.8z"/>
		<path class="st6" d="M171.9,201.8l-0.1-0.9h0c-0.4,0.5-1.1,1-2.1,1c-1.4,0-2.1-1-2.1-1.9c0-1.6,1.5-2.5,4.1-2.5v-0.1    c0-0.6-0.2-1.6-1.5-1.6c-0.6,0-1.3,0.2-1.8,0.5l-0.3-0.8c0.6-0.4,1.4-0.6,2.2-0.6c2.1,0,2.6,1.4,2.6,2.8v2.5c0,0.6,0,1.2,0.1,1.6    H171.9z M171.8,198.3c-1.3,0-2.9,0.2-2.9,1.5c0,0.8,0.5,1.2,1.2,1.2c0.9,0,1.4-0.6,1.6-1.1c0-0.1,0.1-0.3,0.1-0.4V198.3z"/>
		<path class="st6" d="M174.9,196.8c0-0.7,0-1.3-0.1-1.8h1.1l0.1,1.1h0c0.3-0.6,1.1-1.3,2.2-1.3c0.9,0,2.4,0.6,2.4,2.9v4h-1.2v-3.9    c0-1.1-0.4-2-1.6-2c-0.8,0-1.4,0.6-1.7,1.3c-0.1,0.2-0.1,0.4-0.1,0.6v4.1h-1.2V196.8z"/>
		<path class="st6" d="M188.6,191.8v8.2c0,0.6,0,1.3,0.1,1.8h-1.1l-0.1-1.2h0c-0.4,0.8-1.2,1.3-2.3,1.3c-1.6,0-2.9-1.4-2.9-3.4    c0-2.3,1.4-3.6,3-3.6c1,0,1.7,0.5,2,1h0v-4H188.6z M187.3,197.8c0-0.2,0-0.4-0.1-0.5c-0.2-0.8-0.9-1.4-1.8-1.4c-1.3,0-2,1.1-2,2.6    c0,1.4,0.7,2.5,2,2.5c0.8,0,1.6-0.5,1.8-1.5c0-0.2,0.1-0.3,0.1-0.5V197.8z"/>
		<path class="st6" d="M190.2,201c0-0.5,0.4-0.9,0.8-0.9s0.8,0.4,0.8,0.9c0,0.5-0.3,0.9-0.8,0.9C190.5,201.9,190.2,201.6,190.2,201z    "/>
	</g>
</g>
<g>
	<g>
		<path class="st6" d="M42.1,241.6h3.3l2.3,6.5h0l2.3-6.5h3.3v9.9h-2.2v-7.6h0l-2.6,7.6h-1.7l-2.5-7.6h0v7.6h-2.2V241.6z"/>
		<path class="st6" d="M59.3,250.7L59.3,250.7c-0.5,0.7-1.3,1-2.2,1c-1.3,0-2.4-0.7-2.4-2.1c0-2.4,2.9-2.4,4.6-2.4    c0-0.7-0.6-1.2-1.3-1.2c-0.7,0-1.3,0.3-1.7,0.8l-1.1-1.1c0.8-0.7,1.9-1.1,3-1.1c2.5,0,3.1,1.2,3.1,3.5v3.5h-1.9V250.7z     M58.8,248.6c-0.6,0-2.1,0.1-2.1,1c0,0.5,0.5,0.7,1,0.7c0.8,0,1.6-0.4,1.6-1.3v-0.4H58.8z"/>
		<path class="st6" d="M62.6,241h2.1v6.5l2.3-2.7h2.6l-2.7,3.1l2.8,3.7H67l-2.3-3.4h0v3.4h-2.1V241z"/>
		<path class="st6" d="M76.8,250.4c-0.7,0.9-1.8,1.3-2.9,1.3c-2.1,0-3.8-1.4-3.8-3.6s1.7-3.6,3.8-3.6c2,0,3.2,1.4,3.2,3.6v0.7h-4.9    c0.2,0.8,0.8,1.3,1.6,1.3c0.7,0,1.1-0.4,1.5-0.8L76.8,250.4z M75,247.4c0-0.7-0.5-1.3-1.3-1.3c-0.9,0-1.4,0.6-1.5,1.3H75z"/>
		<path class="st6" d="M84.3,242.8v1.9h1.8v0.9h-1.8v3.7c0,0.8,0.2,1.3,0.9,1.3c0.3,0,0.6,0,0.7-0.1l0.1,0.9    c-0.2,0.1-0.6,0.2-1.1,0.2c-0.6,0-1-0.2-1.3-0.5c-0.4-0.4-0.5-1-0.5-1.8v-3.7h-1.1v-0.9h1.1v-1.6L84.3,242.8z"/>
		<path class="st6" d="M87.5,241.6h1.2v4.2h0c0.2-0.3,0.5-0.7,0.9-0.9c0.4-0.2,0.8-0.4,1.3-0.4c0.9,0,2.4,0.6,2.4,2.9v4H92v-3.9    c0-1.1-0.4-2-1.6-2c-0.8,0-1.4,0.6-1.7,1.2c-0.1,0.2-0.1,0.3-0.1,0.6v4.1h-1.2V241.6z"/>
		<path class="st6" d="M95.9,248.4c0,1.7,1.1,2.4,2.3,2.4c0.9,0,1.4-0.2,1.9-0.3l0.2,0.9c-0.4,0.2-1.2,0.4-2.3,0.4    c-2.1,0-3.3-1.4-3.3-3.4s1.2-3.7,3.2-3.7c2.2,0,2.8,1.9,2.8,3.2c0,0.3,0,0.4,0,0.6H95.9z M99.5,247.5c0-0.8-0.3-2-1.7-2    c-1.2,0-1.8,1.1-1.9,2H99.5z"/>
		<path class="st6" d="M105.7,244.8l1.3,3.8c0.2,0.6,0.4,1.2,0.5,1.7h0c0.2-0.6,0.4-1.1,0.6-1.7l1.3-3.8h1.3l-2.7,6.8h-1.2l-2.6-6.8    H105.7z"/>
		<path class="st6" d="M115.6,251.5l-0.1-0.9h0c-0.4,0.5-1.1,1-2.1,1c-1.4,0-2.1-1-2.1-1.9c0-1.6,1.5-2.5,4.1-2.5v-0.1    c0-0.6-0.2-1.6-1.5-1.6c-0.6,0-1.3,0.2-1.8,0.5l-0.3-0.8c0.6-0.4,1.4-0.6,2.2-0.6c2.1,0,2.6,1.4,2.6,2.8v2.5c0,0.6,0,1.2,0.1,1.6    H115.6z M115.5,248.1c-1.3,0-2.9,0.2-2.9,1.5c0,0.8,0.5,1.2,1.2,1.2c0.9,0,1.4-0.6,1.6-1.1c0-0.1,0.1-0.3,0.1-0.4V248.1z"/>
		<path class="st6" d="M118.6,241.6h1.2v9.9h-1.2V241.6z"/>
		<path class="st6" d="M127.6,249.7c0,0.7,0,1.3,0.1,1.8h-1.1l-0.1-1.1h0c-0.3,0.5-1,1.3-2.2,1.3c-1.1,0-2.3-0.6-2.3-3v-4h1.2v3.8    c0,1.3,0.4,2.2,1.5,2.2c0.8,0,1.4-0.6,1.6-1.1c0.1-0.2,0.1-0.4,0.1-0.6v-4.2h1.2V249.7z"/>
		<path class="st6" d="M130.3,248.4c0,1.7,1.1,2.4,2.3,2.4c0.9,0,1.4-0.2,1.9-0.3l0.2,0.9c-0.4,0.2-1.2,0.4-2.3,0.4    c-2.1,0-3.3-1.4-3.3-3.4s1.2-3.7,3.2-3.7c2.2,0,2.8,1.9,2.8,3.2c0,0.3,0,0.4,0,0.6H130.3z M134,247.5c0-0.8-0.3-2-1.7-2    c-1.2,0-1.8,1.1-1.9,2H134z"/>
		<path class="st6" d="M139.9,247.3v0.9h-3.5v-0.9H139.9z"/>
		<path class="st6" d="M146.4,251.3c-0.3,0.2-1,0.4-1.9,0.4c-2,0-3.4-1.4-3.4-3.5c0-2.1,1.4-3.6,3.6-3.6c0.7,0,1.4,0.2,1.7,0.4    l-0.3,1c-0.3-0.2-0.8-0.3-1.4-0.3c-1.6,0-2.4,1.1-2.4,2.6c0,1.6,1,2.5,2.4,2.5c0.7,0,1.2-0.2,1.5-0.3L146.4,251.3z"/>
		<path class="st6" d="M153.9,248.1c0,2.5-1.7,3.6-3.4,3.6c-1.8,0-3.3-1.3-3.3-3.5c0-2.3,1.5-3.6,3.4-3.6    C152.6,244.6,153.9,246,153.9,248.1z M148.6,248.2c0,1.5,0.9,2.6,2.1,2.6c1.2,0,2.1-1.1,2.1-2.6c0-1.1-0.6-2.6-2-2.6    C149.2,245.5,148.6,246.9,148.6,248.2z"/>
		<path class="st6" d="M155.3,250.3c0.4,0.2,1,0.5,1.6,0.5c0.9,0,1.3-0.4,1.3-1c0-0.6-0.4-0.9-1.3-1.2c-1.2-0.4-1.8-1.1-1.8-1.9    c0-1.1,0.9-2,2.3-2c0.7,0,1.3,0.2,1.7,0.4l-0.3,0.9c-0.3-0.2-0.8-0.4-1.4-0.4c-0.7,0-1.1,0.4-1.1,0.9c0,0.6,0.4,0.8,1.3,1.1    c1.2,0.4,1.8,1,1.8,2c0,1.2-0.9,2-2.5,2c-0.7,0-1.4-0.2-1.9-0.5L155.3,250.3z"/>
		<path class="st6" d="M162.5,242.8v1.9h1.8v0.9h-1.8v3.7c0,0.8,0.2,1.3,0.9,1.3c0.3,0,0.6,0,0.7-0.1l0.1,0.9    c-0.2,0.1-0.6,0.2-1.1,0.2c-0.6,0-1-0.2-1.3-0.5c-0.4-0.4-0.5-1-0.5-1.8v-3.7h-1.1v-0.9h1.1v-1.6L162.5,242.8z"/>
		<path class="st6" d="M170.1,242.8v1.9h1.8v0.9h-1.8v3.7c0,0.8,0.2,1.3,0.9,1.3c0.3,0,0.6,0,0.7-0.1l0.1,0.9    c-0.2,0.1-0.6,0.2-1.1,0.2c-0.6,0-1-0.2-1.3-0.5c-0.4-0.4-0.5-1-0.5-1.8v-3.7h-1.1v-0.9h1.1v-1.6L170.1,242.8z"/>
		<path class="st6" d="M173.3,246.9c0-0.8,0-1.5-0.1-2.1h1.1l0,1.3h0.1c0.3-0.9,1.1-1.5,1.9-1.5c0.1,0,0.2,0,0.4,0v1.2    c-0.1,0-0.3,0-0.4,0c-0.9,0-1.5,0.7-1.7,1.6c0,0.2-0.1,0.4-0.1,0.6v3.6h-1.2V246.9z"/>
		<path class="st6" d="M181.5,251.5l-0.1-0.9h0c-0.4,0.5-1.1,1-2.1,1c-1.4,0-2.1-1-2.1-1.9c0-1.6,1.5-2.5,4.1-2.5v-0.1    c0-0.6-0.2-1.6-1.5-1.6c-0.6,0-1.3,0.2-1.8,0.5l-0.3-0.8c0.6-0.4,1.4-0.6,2.2-0.6c2.1,0,2.6,1.4,2.6,2.8v2.5c0,0.6,0,1.2,0.1,1.6    H181.5z M181.3,248.1c-1.3,0-2.9,0.2-2.9,1.5c0,0.8,0.5,1.2,1.2,1.2c0.9,0,1.4-0.6,1.6-1.1c0-0.1,0.1-0.3,0.1-0.4V248.1z"/>
		<path class="st6" d="M190.4,241.6v8.2c0,0.6,0,1.3,0.1,1.8h-1.1l-0.1-1.2h0c-0.4,0.8-1.2,1.3-2.3,1.3c-1.6,0-2.9-1.4-2.9-3.4    c0-2.3,1.4-3.6,3-3.6c1,0,1.7,0.5,2,1h0v-4H190.4z M189.1,247.5c0-0.2,0-0.4-0.1-0.5c-0.2-0.8-0.9-1.4-1.8-1.4c-1.3,0-2,1.1-2,2.6    c0,1.4,0.7,2.5,2,2.5c0.8,0,1.6-0.5,1.8-1.5c0-0.2,0.1-0.3,0.1-0.5V247.5z"/>
		<path class="st6" d="M193.1,248.4c0,1.7,1.1,2.4,2.3,2.4c0.9,0,1.4-0.2,1.9-0.3l0.2,0.9c-0.4,0.2-1.2,0.4-2.3,0.4    c-2.1,0-3.3-1.4-3.3-3.4s1.2-3.7,3.2-3.7c2.2,0,2.8,1.9,2.8,3.2c0,0.3,0,0.4,0,0.6H193.1z M196.7,247.5c0-0.8-0.3-2-1.7-2    c-1.2,0-1.8,1.1-1.9,2H196.7z"/>
		<path class="st6" d="M202.7,247.3v0.9h-3.5v-0.9H202.7z"/>
		<path class="st6" d="M210.5,248.1c0,2.5-1.7,3.6-3.4,3.6c-1.8,0-3.3-1.3-3.3-3.5c0-2.3,1.5-3.6,3.4-3.6    C209.2,244.6,210.5,246,210.5,248.1z M205.1,248.2c0,1.5,0.9,2.6,2.1,2.6c1.2,0,2.1-1.1,2.1-2.6c0-1.1-0.6-2.6-2-2.6    C205.8,245.5,205.1,246.9,205.1,248.2z"/>
		<path class="st6" d="M216.2,251.5v-5.8h-2.8v5.8h-1.2v-5.8h-1v-0.9h1v-0.2c0-1,0.2-1.8,0.8-2.3c0.4-0.4,1-0.6,1.7-0.6    c0.4,0,0.8,0.1,1,0.2l-0.3,0.9c-0.2-0.1-0.4-0.2-0.7-0.2c-1,0-1.2,0.8-1.2,1.9v0.3h2.8v-0.3c0-1,0.2-1.8,0.8-2.4    c0.5-0.4,1.1-0.6,1.6-0.6c0.4,0,0.8,0.1,1.1,0.2l-0.2,1c-0.2-0.1-0.4-0.2-0.8-0.2c-1,0-1.3,0.9-1.3,2v0.4h1.6v0.9h-1.6v5.8H216.2z    "/>
		<path class="st6" d="M219.5,250.8c0-0.5,0.4-0.9,0.8-0.9s0.8,0.4,0.8,0.9c0,0.5-0.3,0.9-0.8,0.9    C219.8,251.7,219.5,251.3,219.5,250.8z"/>
	</g>
</g>
<g>
	<g>
		<path class="st6" d="M43.7,290.6l-1,3h-1.3l3.2-9.4h1.5l3.2,9.4h-1.3l-1-3H43.7z M46.8,289.6l-0.9-2.7c-0.2-0.6-0.4-1.2-0.5-1.7h0    c-0.1,0.6-0.3,1.1-0.5,1.7l-0.9,2.7H46.8z"/>
		<path class="st6" d="M50.7,283.6h1.2v9.9h-1.2V283.6z"/>
		<path class="st6" d="M55.3,284.9c0,0.4-0.3,0.8-0.8,0.8c-0.4,0-0.7-0.3-0.7-0.8c0-0.4,0.3-0.8,0.8-0.8    C55,284.1,55.3,284.4,55.3,284.9z M54,293.6v-6.8h1.2v6.8H54z"/>
		<path class="st6" d="M63.1,286.8c0,0.5-0.1,1-0.1,1.9v3.9c0,1.6-0.3,2.5-1,3.1c-0.7,0.6-1.6,0.8-2.5,0.8c-0.8,0-1.7-0.2-2.3-0.6    l0.3-0.9c0.4,0.3,1.1,0.5,2,0.5c1.3,0,2.2-0.7,2.2-2.4v-0.8h0c-0.4,0.6-1.1,1.1-2.2,1.1c-1.7,0-2.9-1.4-2.9-3.3    c0-2.3,1.5-3.6,3.1-3.6c1.2,0,1.8,0.6,2.1,1.2h0l0.1-1H63.1z M61.8,289.4c0-0.2,0-0.4-0.1-0.6c-0.2-0.7-0.8-1.3-1.7-1.3    c-1.2,0-2,1-2,2.6c0,1.3,0.7,2.4,2,2.4c0.8,0,1.4-0.5,1.7-1.3c0.1-0.2,0.1-0.4,0.1-0.7V289.4z"/>
		<path class="st6" d="M65,288.6c0-0.7,0-1.3-0.1-1.8H66l0.1,1.1h0c0.3-0.6,1.1-1.3,2.2-1.3c0.9,0,2.4,0.6,2.4,2.9v4h-1.2v-3.9    c0-1.1-0.4-2-1.6-2c-0.8,0-1.4,0.6-1.7,1.3c-0.1,0.2-0.1,0.4-0.1,0.6v4.1H65V288.6z"/>
		<path class="st6" d="M77.2,284.8v1.9H79v0.9h-1.8v3.7c0,0.8,0.2,1.3,0.9,1.3c0.3,0,0.6,0,0.7-0.1l0.1,0.9    c-0.2,0.1-0.6,0.2-1.1,0.2c-0.6,0-1-0.2-1.3-0.5c-0.4-0.4-0.5-1-0.5-1.8v-3.7h-1.1v-0.9H76v-1.6L77.2,284.8z"/>
		<path class="st6" d="M80.3,283.6h1.2v4.2h0c0.2-0.4,0.5-0.7,0.9-0.9c0.4-0.2,0.8-0.3,1.3-0.3c0.9,0,2.4,0.6,2.4,2.9v4h-1.2v-3.9    c0-1.1-0.4-2-1.6-2c-0.8,0-1.4,0.6-1.7,1.2c-0.1,0.2-0.1,0.4-0.1,0.6v4.1h-1.2V283.6z"/>
		<path class="st6" d="M88.8,290.4c0,1.7,1.1,2.4,2.3,2.4c0.9,0,1.4-0.2,1.9-0.4l0.2,0.9c-0.4,0.2-1.2,0.4-2.3,0.4    c-2.1,0-3.3-1.4-3.3-3.4s1.2-3.7,3.2-3.7c2.2,0,2.8,1.9,2.8,3.2c0,0.3,0,0.4,0,0.6H88.8z M92.4,289.5c0-0.8-0.3-2-1.7-2    c-1.2,0-1.8,1.1-1.9,2H92.4z"/>
		<path class="st6" d="M98.6,286.8l0.9,3.4c0.2,0.8,0.4,1.5,0.5,2.2h0c0.2-0.7,0.4-1.4,0.6-2.1l1.1-3.5h1l1.1,3.4    c0.3,0.8,0.4,1.5,0.6,2.2h0c0.1-0.7,0.3-1.4,0.5-2.2l1-3.4h1.2l-2.2,6.8h-1.1l-1-3.2c-0.2-0.8-0.4-1.4-0.6-2.2h0    c-0.2,0.8-0.4,1.5-0.6,2.2l-1.1,3.2h-1.1l-2-6.8H98.6z"/>
		<path class="st6" d="M108.4,283.6h1.2v4.2h0c0.2-0.4,0.5-0.7,0.9-0.9c0.4-0.2,0.8-0.3,1.3-0.3c0.9,0,2.4,0.6,2.4,2.9v4h-1.2v-3.9    c0-1.1-0.4-2-1.6-2c-0.8,0-1.4,0.6-1.7,1.2c-0.1,0.2-0.1,0.4-0.1,0.6v4.1h-1.2V283.6z"/>
		<path class="st6" d="M122.3,290.1c0,2.5-1.7,3.6-3.4,3.6c-1.8,0-3.3-1.3-3.3-3.5c0-2.3,1.5-3.6,3.4-3.6    C121,286.6,122.3,288,122.3,290.1z M116.9,290.2c0,1.5,0.9,2.6,2.1,2.6c1.2,0,2.1-1.1,2.1-2.6c0-1.1-0.6-2.6-2-2.6    C117.6,287.5,116.9,288.9,116.9,290.2z"/>
		<path class="st6" d="M123.9,283.6h1.2v9.9h-1.2V283.6z"/>
		<path class="st6" d="M127.8,290.4c0,1.7,1.1,2.4,2.3,2.4c0.9,0,1.4-0.2,1.9-0.4l0.2,0.9c-0.4,0.2-1.2,0.4-2.3,0.4    c-2.1,0-3.3-1.4-3.3-3.4s1.2-3.7,3.2-3.7c2.2,0,2.8,1.9,2.8,3.2c0,0.3,0,0.4,0,0.6H127.8z M131.5,289.5c0-0.8-0.3-2-1.7-2    c-1.2,0-1.8,1.1-1.9,2H131.5z"/>
		<path class="st6" d="M137,292.3c0.4,0.2,1,0.5,1.6,0.5c0.9,0,1.3-0.4,1.3-1c0-0.6-0.4-0.9-1.3-1.2c-1.2-0.4-1.8-1.1-1.8-1.9    c0-1.1,0.9-2,2.3-2c0.7,0,1.3,0.2,1.7,0.4l-0.3,0.9c-0.3-0.2-0.8-0.4-1.4-0.4c-0.7,0-1.1,0.4-1.1,0.9c0,0.6,0.4,0.8,1.3,1.1    c1.2,0.4,1.8,1,1.8,2c0,1.2-0.9,2-2.5,2c-0.7,0-1.4-0.2-1.9-0.5L137,292.3z"/>
		<path class="st6" d="M143.1,286.8l1.5,4c0.2,0.4,0.3,1,0.4,1.4h0c0.1-0.4,0.3-0.9,0.4-1.4l1.3-4h1.3l-1.8,4.8    c-0.9,2.3-1.5,3.5-2.3,4.2c-0.6,0.5-1.2,0.7-1.5,0.8l-0.3-1c0.3-0.1,0.7-0.3,1.1-0.6c0.3-0.3,0.8-0.7,1-1.4    c0.1-0.1,0.1-0.2,0.1-0.3s0-0.2-0.1-0.3l-2.5-6.2H143.1z"/>
		<path class="st6" d="M149,292.3c0.4,0.2,1,0.5,1.6,0.5c0.9,0,1.3-0.4,1.3-1c0-0.6-0.4-0.9-1.3-1.2c-1.2-0.4-1.8-1.1-1.8-1.9    c0-1.1,0.9-2,2.3-2c0.7,0,1.3,0.2,1.7,0.4l-0.3,0.9c-0.3-0.2-0.8-0.4-1.4-0.4c-0.7,0-1.1,0.4-1.1,0.9c0,0.6,0.4,0.8,1.3,1.1    c1.2,0.4,1.8,1,1.8,2c0,1.2-0.9,2-2.5,2c-0.7,0-1.4-0.2-1.9-0.5L149,292.3z"/>
		<path class="st6" d="M156.2,284.8v1.9h1.8v0.9h-1.8v3.7c0,0.8,0.2,1.3,0.9,1.3c0.3,0,0.6,0,0.7-0.1l0.1,0.9    c-0.2,0.1-0.6,0.2-1.1,0.2c-0.6,0-1-0.2-1.3-0.5c-0.4-0.4-0.5-1-0.5-1.8v-3.7H154v-0.9h1.1v-1.6L156.2,284.8z"/>
		<path class="st6" d="M160,290.4c0,1.7,1.1,2.4,2.3,2.4c0.9,0,1.4-0.2,1.9-0.4l0.2,0.9c-0.4,0.2-1.2,0.4-2.3,0.4    c-2.1,0-3.3-1.4-3.3-3.4s1.2-3.7,3.2-3.7c2.2,0,2.8,1.9,2.8,3.2c0,0.3,0,0.4,0,0.6H160z M163.6,289.5c0-0.8-0.3-2-1.7-2    c-1.2,0-1.8,1.1-1.9,2H163.6z"/>
		<path class="st6" d="M166.3,288.6c0-0.7,0-1.3-0.1-1.8h1.1l0.1,1.1h0c0.4-0.6,1-1.2,2.1-1.2c0.9,0,1.6,0.6,1.9,1.4h0    c0.2-0.4,0.5-0.7,0.8-0.9c0.4-0.3,0.9-0.5,1.5-0.5c0.9,0,2.2,0.6,2.2,2.9v4h-1.2v-3.8c0-1.3-0.5-2.1-1.5-2.1    c-0.7,0-1.2,0.5-1.5,1.1c-0.1,0.2-0.1,0.4-0.1,0.6v4.2h-1.2v-4.1c0-1.1-0.5-1.9-1.4-1.9c-0.8,0-1.3,0.6-1.5,1.2    c-0.1,0.2-0.1,0.4-0.1,0.6v4.1h-1.2V288.6z"/>
		<path class="st6" d="M187.1,290.1c0,2.5-1.7,3.6-3.4,3.6c-1.8,0-3.3-1.3-3.3-3.5c0-2.3,1.5-3.6,3.4-3.6    C185.8,286.6,187.1,288,187.1,290.1z M181.7,290.2c0,1.5,0.9,2.6,2.1,2.6c1.2,0,2.1-1.1,2.1-2.6c0-1.1-0.6-2.6-2-2.6    C182.3,287.5,181.7,288.9,181.7,290.2z"/>
		<path class="st6" d="M188.8,293.6v-5.8h-1v-0.9h1v-0.3c0-1,0.2-1.8,0.8-2.4c0.5-0.4,1.1-0.6,1.7-0.6c0.4,0,0.8,0.1,1.1,0.2l-0.2,1    c-0.2-0.1-0.4-0.2-0.8-0.2c-1.1,0-1.3,0.9-1.3,2v0.4h1.6v0.9H190v5.8H188.8z"/>
		<path class="st6" d="M199.4,293.6l-0.1-0.9h0c-0.4,0.5-1.1,1-2.1,1c-1.4,0-2.1-1-2.1-1.9c0-1.6,1.5-2.5,4.1-2.5v-0.1    c0-0.6-0.2-1.6-1.5-1.6c-0.6,0-1.3,0.2-1.8,0.5l-0.3-0.8c0.6-0.4,1.4-0.6,2.2-0.6c2.1,0,2.6,1.4,2.6,2.8v2.5c0,0.6,0,1.2,0.1,1.6    H199.4z M199.3,290.1c-1.3,0-2.9,0.2-2.9,1.5c0,0.8,0.5,1.2,1.2,1.2c0.9,0,1.4-0.6,1.6-1.1c0-0.1,0.1-0.3,0.1-0.4V290.1z"/>
		<path class="st6" d="M205.5,293.6v-5.8h-1v-0.9h1v-0.4c0-1.8,1.1-3,3-3c0.6,0,1.4,0.2,1.7,0.4l-0.4,0.9c-0.3-0.2-0.8-0.4-1.4-0.4    c-1.3,0-1.7,0.9-1.7,2v0.3h3.9v6.8h-1.2v-5.8h-2.7v5.8H205.5z"/>
		<path class="st6" d="M212.7,288.9c0-0.8,0-1.5-0.1-2.1h1.1l0,1.3h0.1c0.3-0.9,1.1-1.5,1.9-1.5c0.1,0,0.2,0,0.4,0v1.2    c-0.1,0-0.3,0-0.4,0c-0.9,0-1.5,0.7-1.7,1.6c0,0.2-0.1,0.4-0.1,0.6v3.6h-1.2V288.9z"/>
		<path class="st6" d="M217.4,288.6c0-0.7,0-1.3-0.1-1.8h1.1l0.1,1.1h0c0.4-0.6,1-1.2,2.1-1.2c0.9,0,1.6,0.6,1.9,1.4h0    c0.2-0.4,0.5-0.7,0.8-0.9c0.4-0.3,0.9-0.5,1.5-0.5c0.9,0,2.2,0.6,2.2,2.9v4h-1.2v-3.8c0-1.3-0.5-2.1-1.5-2.1    c-0.7,0-1.2,0.5-1.5,1.1c-0.1,0.2-0.1,0.4-0.1,0.6v4.2h-1.2v-4.1c0-1.1-0.5-1.9-1.4-1.9c-0.8,0-1.3,0.6-1.5,1.2    c-0.1,0.2-0.1,0.4-0.1,0.6v4.1h-1.2V288.6z"/>
		<path class="st6" d="M230.1,284c-0.3,1.2-0.9,2.7-1.3,3.3l-0.8,0.1c0.3-0.8,0.7-2.3,0.8-3.3L230.1,284z"/>
		<path class="st6" d="M230.3,292.3c0.4,0.2,1,0.5,1.6,0.5c0.9,0,1.3-0.4,1.3-1c0-0.6-0.4-0.9-1.3-1.2c-1.2-0.4-1.8-1.1-1.8-1.9    c0-1.1,0.9-2,2.3-2c0.7,0,1.3,0.2,1.7,0.4l-0.3,0.9c-0.3-0.2-0.8-0.4-1.4-0.4c-0.7,0-1.1,0.4-1.1,0.9c0,0.6,0.4,0.8,1.3,1.1    c1.2,0.4,1.8,1,1.8,2c0,1.2-0.9,2-2.5,2c-0.7,0-1.4-0.2-1.9-0.5L230.3,292.3z"/>
		<path class="st6" d="M242.7,293.6l-0.1-0.9h0c-0.4,0.5-1.1,1-2.1,1c-1.4,0-2.1-1-2.1-1.9c0-1.6,1.5-2.5,4.1-2.5v-0.1    c0-0.6-0.2-1.6-1.5-1.6c-0.6,0-1.3,0.2-1.8,0.5l-0.3-0.8c0.6-0.4,1.4-0.6,2.2-0.6c2.1,0,2.6,1.4,2.6,2.8v2.5c0,0.6,0,1.2,0.1,1.6    H242.7z M242.6,290.1c-1.3,0-2.9,0.2-2.9,1.5c0,0.8,0.5,1.2,1.2,1.2c0.9,0,1.4-0.6,1.6-1.1c0-0.1,0.1-0.3,0.1-0.4V290.1z"/>
		<path class="st6" d="M250.6,293.3c-0.3,0.2-1,0.4-1.9,0.4c-2,0-3.4-1.4-3.4-3.5c0-2.1,1.4-3.6,3.6-3.6c0.7,0,1.4,0.2,1.7,0.3    l-0.3,1c-0.3-0.2-0.8-0.3-1.4-0.3c-1.6,0-2.4,1.1-2.4,2.6c0,1.6,1,2.5,2.4,2.5c0.7,0,1.2-0.2,1.5-0.3L250.6,293.3z"/>
		<path class="st6" d="M253.7,284.8v1.9h1.8v0.9h-1.8v3.7c0,0.8,0.2,1.3,0.9,1.3c0.3,0,0.6,0,0.7-0.1l0.1,0.9    c-0.2,0.1-0.6,0.2-1.1,0.2c-0.6,0-1-0.2-1.3-0.5c-0.4-0.4-0.5-1-0.5-1.8v-3.7h-1.1v-0.9h1.1v-1.6L253.7,284.8z"/>
		<path class="st6" d="M258.2,284.9c0,0.4-0.3,0.8-0.8,0.8c-0.4,0-0.7-0.3-0.7-0.8c0-0.4,0.3-0.8,0.8-0.8    C257.9,284.1,258.2,284.4,258.2,284.9z M256.8,293.6v-6.8h1.2v6.8H256.8z"/>
		<path class="st6" d="M260.6,286.8l1.3,3.8c0.2,0.6,0.4,1.2,0.5,1.7h0c0.2-0.6,0.4-1.1,0.6-1.7l1.3-3.8h1.3l-2.7,6.8h-1.2l-2.6-6.8    H260.6z"/>
		<path class="st6" d="M268.2,284.9c0,0.4-0.3,0.8-0.8,0.8c-0.4,0-0.7-0.3-0.7-0.8c0-0.4,0.3-0.8,0.8-0.8    C267.9,284.1,268.2,284.4,268.2,284.9z M266.8,293.6v-6.8h1.2v6.8H266.8z"/>
		<path class="st6" d="M271.6,284.8v1.9h1.8v0.9h-1.8v3.7c0,0.8,0.2,1.3,0.9,1.3c0.3,0,0.6,0,0.7-0.1l0.1,0.9    c-0.2,0.1-0.6,0.2-1.1,0.2c-0.6,0-1-0.2-1.3-0.5c-0.4-0.4-0.5-1-0.5-1.8v-3.7h-1.1v-0.9h1.1v-1.6L271.6,284.8z"/>
		<path class="st6" d="M276.1,284.9c0,0.4-0.3,0.8-0.8,0.8c-0.4,0-0.7-0.3-0.7-0.8c0-0.4,0.3-0.8,0.8-0.8    C275.8,284.1,276.1,284.4,276.1,284.9z M274.7,293.6v-6.8h1.2v6.8H274.7z"/>
		<path class="st6" d="M278.7,290.4c0,1.7,1.1,2.4,2.3,2.4c0.9,0,1.4-0.2,1.9-0.4l0.2,0.9c-0.4,0.2-1.2,0.4-2.3,0.4    c-2.1,0-3.3-1.4-3.3-3.4s1.2-3.7,3.2-3.7c2.2,0,2.8,1.9,2.8,3.2c0,0.3,0,0.4,0,0.6H278.7z M282.3,289.5c0-0.8-0.3-2-1.7-2    c-1.2,0-1.8,1.1-1.9,2H282.3z"/>
		<path class="st6" d="M284.9,292.3c0.4,0.2,1,0.5,1.6,0.5c0.9,0,1.3-0.4,1.3-1c0-0.6-0.4-0.9-1.3-1.2c-1.2-0.4-1.8-1.1-1.8-1.9    c0-1.1,0.9-2,2.3-2c0.7,0,1.3,0.2,1.7,0.4l-0.3,0.9c-0.3-0.2-0.8-0.4-1.4-0.4c-0.7,0-1.1,0.4-1.1,0.9c0,0.6,0.4,0.8,1.3,1.1    c1.2,0.4,1.8,1,1.8,2c0,1.2-0.9,2-2.5,2c-0.7,0-1.4-0.2-1.9-0.5L284.9,292.3z"/>
		<path class="st6" d="M294,286.8l0.9,3.4c0.2,0.8,0.4,1.5,0.5,2.2h0c0.2-0.7,0.4-1.4,0.6-2.1l1.1-3.5h1l1.1,3.4    c0.3,0.8,0.4,1.5,0.6,2.2h0c0.1-0.7,0.3-1.4,0.5-2.2l1-3.4h1.2l-2.2,6.8h-1.1l-1-3.2c-0.2-0.8-0.4-1.4-0.6-2.2h0    c-0.2,0.8-0.4,1.5-0.6,2.2l-1.1,3.2h-1.1l-2-6.8H294z"/>
		<path class="st6" d="M305.2,284.9c0,0.4-0.3,0.8-0.8,0.8c-0.4,0-0.7-0.3-0.7-0.8c0-0.4,0.3-0.8,0.8-0.8    C304.9,284.1,305.2,284.4,305.2,284.9z M303.8,293.6v-6.8h1.2v6.8H303.8z"/>
		<path class="st6" d="M308.6,284.8v1.9h1.8v0.9h-1.8v3.7c0,0.8,0.2,1.3,0.9,1.3c0.3,0,0.6,0,0.7-0.1l0.1,0.9    c-0.2,0.1-0.6,0.2-1.1,0.2c-0.6,0-1-0.2-1.3-0.5c-0.4-0.4-0.5-1-0.5-1.8v-3.7h-1.1v-0.9h1.1v-1.6L308.6,284.8z"/>
		<path class="st6" d="M311.7,283.6h1.2v4.2h0c0.2-0.4,0.5-0.7,0.9-0.9c0.4-0.2,0.8-0.3,1.3-0.3c0.9,0,2.4,0.6,2.4,2.9v4h-1.2v-3.9    c0-1.1-0.4-2-1.6-2c-0.8,0-1.4,0.6-1.7,1.2c-0.1,0.2-0.1,0.4-0.1,0.6v4.1h-1.2V283.6z"/>
		<path class="st6" d="M43.5,301.7c0,0.4-0.3,0.8-0.8,0.8c-0.4,0-0.7-0.3-0.7-0.8c0-0.4,0.3-0.8,0.8-0.8    C43.2,300.9,43.5,301.2,43.5,301.7z M42.1,310.4v-6.8h1.2v6.8H42.1z"/>
		<path class="st6" d="M46.9,301.6v1.9h1.8v0.9h-1.8v3.7c0,0.8,0.2,1.3,0.9,1.3c0.3,0,0.6,0,0.7-0.1l0.1,0.9    c-0.2,0.1-0.6,0.2-1.1,0.2c-0.6,0-1-0.2-1.3-0.5c-0.4-0.4-0.5-1-0.5-1.8v-3.7h-1.1v-0.9h1.1v-1.6L46.9,301.6z"/>
		<path class="st6" d="M49.9,309.1c0.4,0.2,1,0.5,1.6,0.5c0.9,0,1.3-0.4,1.3-1c0-0.6-0.4-0.9-1.3-1.2c-1.2-0.4-1.8-1.1-1.8-1.9    c0-1.1,0.9-2,2.3-2c0.7,0,1.3,0.2,1.7,0.4l-0.3,0.9c-0.3-0.2-0.8-0.4-1.4-0.4c-0.7,0-1.1,0.4-1.1,0.9c0,0.6,0.4,0.8,1.3,1.1    c1.2,0.4,1.8,1,1.8,2c0,1.2-0.9,2-2.5,2c-0.7,0-1.4-0.2-1.9-0.5L49.9,309.1z"/>
		<path class="st6" d="M62.1,305.5c-0.3-0.4-0.7-0.6-1.2-0.6c-0.4,0-0.8,0.2-0.8,0.6c0,1,3.5,0.2,3.5,2.7c0,1.7-1.7,2.2-3.1,2.2    c-1,0-2-0.2-2.7-0.9l1.3-1.4c0.4,0.5,0.9,0.7,1.5,0.7c0.5,0,1-0.1,1-0.5c0-1.1-3.5-0.2-3.5-2.8c0-1.6,1.4-2.3,2.9-2.3    c0.9,0,1.9,0.2,2.5,0.9L62.1,305.5z"/>
		<path class="st6" d="M69.4,305.2h-1.8v2.3c0,0.7,0.1,1.3,1,1.3c0.2,0,0.7,0,0.9-0.2v1.8c-0.5,0.2-1,0.2-1.5,0.2    c-1.4,0-2.5-0.6-2.5-2.1v-3.2h-1.3v-1.7h1.3v-2h2.1v2h1.8V305.2z"/>
		<path class="st6" d="M70.4,303.5h2.1v1.1h0c0.4-0.8,1-1.3,2-1.3c0.2,0,0.5,0,0.7,0.1v1.9c-0.3-0.1-0.6-0.1-0.9-0.1    c-1.6,0-1.8,0.9-1.8,2.3v2.8h-2.1V303.5z"/>
		<path class="st6" d="M80.4,309.5L80.4,309.5c-0.5,0.7-1.3,1-2.2,1c-1.3,0-2.4-0.7-2.4-2.1c0-2.4,2.9-2.4,4.6-2.4    c0-0.7-0.6-1.2-1.3-1.2c-0.7,0-1.3,0.3-1.7,0.8l-1.1-1.1c0.8-0.7,1.9-1.1,3-1.1c2.5,0,3.1,1.2,3.1,3.5v3.5h-1.9V309.5z     M79.9,307.4c-0.6,0-2.1,0.1-2.1,1c0,0.5,0.5,0.7,1,0.7c0.8,0,1.6-0.4,1.6-1.3v-0.4H79.9z"/>
		<path class="st6" d="M88.3,305.2h-1.8v2.3c0,0.7,0.1,1.3,1,1.3c0.2,0,0.7,0,0.9-0.2v1.8c-0.5,0.2-1,0.2-1.5,0.2    c-1.4,0-2.5-0.6-2.5-2.1v-3.2H83v-1.7h1.3v-2h2.1v2h1.8V305.2z"/>
		<path class="st6" d="M95.8,309.2c-0.7,0.9-1.8,1.3-2.9,1.3c-2.1,0-3.8-1.4-3.8-3.6s1.7-3.6,3.8-3.6c2,0,3.2,1.4,3.2,3.6v0.7h-4.9    c0.2,0.8,0.8,1.3,1.6,1.3c0.7,0,1.1-0.4,1.5-0.8L95.8,309.2z M94,306.2c0-0.7-0.5-1.3-1.3-1.3c-0.9,0-1.4,0.6-1.5,1.3H94z"/>
		<path class="st6" d="M104.5,309.8c0,2.6-1.3,3.9-3.9,3.9c-1.2,0-2.4-0.2-3.4-1l1.2-1.7c0.6,0.5,1.4,0.9,2.2,0.9    c1.3,0,1.9-0.7,1.9-1.7v-0.7h0c-0.5,0.7-1.3,0.9-1.9,0.9c-2,0-3.3-1.5-3.3-3.5c0-1.8,1.2-3.5,3.1-3.5c1.2,0,2,0.6,2.3,1.1h0v-0.9    h1.9V309.8z M100.9,308.6c1,0,1.7-0.8,1.7-1.7s-0.7-1.7-1.7-1.7c-1,0-1.7,0.8-1.7,1.7S100,308.6,100.9,308.6z"/>
		<path class="st6" d="M107.3,300.2c0.7,0,1.2,0.5,1.2,1.2s-0.5,1.2-1.2,1.2s-1.2-0.5-1.2-1.2S106.6,300.2,107.3,300.2z     M106.2,303.5h2.1v6.8h-2.1V303.5z"/>
		<path class="st6" d="M114.5,305.7c-0.2-0.3-0.6-0.5-1-0.5c-1.1,0-1.7,0.7-1.7,1.7s0.6,1.7,1.7,1.7c0.5,0,0.8-0.2,1-0.5l1.4,1.5    c-0.7,0.7-1.6,0.9-2.4,0.9c-2.1,0-3.8-1.4-3.8-3.6s1.7-3.6,3.8-3.6c0.8,0,1.8,0.2,2.4,0.9L114.5,305.7z"/>
		<path class="st6" d="M125.4,305.7c-0.2-0.3-0.6-0.5-1-0.5c-1.1,0-1.7,0.7-1.7,1.7s0.6,1.7,1.7,1.7c0.5,0,0.8-0.2,1-0.5l1.4,1.5    c-0.7,0.7-1.6,0.9-2.4,0.9c-2.1,0-3.8-1.4-3.8-3.6s1.7-3.6,3.8-3.6c0.8,0,1.8,0.2,2.4,0.9L125.4,305.7z"/>
		<path class="st6" d="M129.6,299.8v4.7h0c0.2-0.5,0.9-1.1,1.9-1.1c2.1,0,2.5,1.4,2.5,3.2v3.8H132V307c0-0.8,0-1.8-1.1-1.8    c-1.1,0-1.3,0.9-1.3,1.7v3.4h-2.1v-10.6H129.6z"/>
		<path class="st6" d="M139.1,303.4c2.1,0,3.8,1.4,3.8,3.6s-1.7,3.6-3.8,3.6s-3.8-1.4-3.8-3.6S137,303.4,139.1,303.4z M139.1,308.7    c1.1,0,1.7-0.7,1.7-1.7s-0.6-1.7-1.7-1.7c-1.1,0-1.7,0.7-1.7,1.7S138,308.7,139.1,308.7z"/>
		<path class="st6" d="M145.2,300.2c0.7,0,1.2,0.5,1.2,1.2s-0.5,1.2-1.2,1.2s-1.2-0.5-1.2-1.2S144.5,300.2,145.2,300.2z     M144.1,303.5h2.1v6.8h-2.1V303.5z"/>
		<path class="st6" d="M152.3,305.7c-0.2-0.3-0.6-0.5-1-0.5c-1.1,0-1.7,0.7-1.7,1.7s0.6,1.7,1.7,1.7c0.5,0,0.8-0.2,1-0.5l1.4,1.5    c-0.7,0.7-1.6,0.9-2.4,0.9c-2.1,0-3.8-1.4-3.8-3.6s1.7-3.6,3.8-3.6c0.8,0,1.8,0.2,2.4,0.9L152.3,305.7z"/>
		<path class="st6" d="M160.9,309.2c-0.7,0.9-1.8,1.3-2.9,1.3c-2.1,0-3.8-1.4-3.8-3.6s1.7-3.6,3.8-3.6c2,0,3.2,1.4,3.2,3.6v0.7h-4.9    c0.2,0.8,0.8,1.3,1.6,1.3c0.7,0,1.1-0.4,1.5-0.8L160.9,309.2z M159.1,306.2c0-0.7-0.5-1.3-1.3-1.3c-0.9,0-1.4,0.6-1.5,1.3H159.1z"/>
		<path class="st6" d="M170.2,303.4c2.1,0,3.8,1.4,3.8,3.6s-1.7,3.6-3.8,3.6s-3.8-1.4-3.8-3.6S168.1,303.4,170.2,303.4z     M170.2,308.7c1.1,0,1.7-0.7,1.7-1.7s-0.6-1.7-1.7-1.7c-1.1,0-1.7,0.7-1.7,1.7S169.1,308.7,170.2,308.7z"/>
		<path class="st6" d="M175.9,305.2h-1.4v-1.7h1.4v-1.2c0-1.5,0.4-2.7,2.7-2.7c0.4,0,0.8,0,1.2,0.1l-0.1,1.8    c-0.2-0.1-0.4-0.1-0.7-0.1c-0.7,0-1,0.2-1,1.1v1.1h1.6v1.7H178v5.1h-2.1V305.2z"/>
		<path class="st6" d="M191.6,310.4h-1.9v-0.9h0c-0.3,0.5-1.1,1.1-2.1,1.1c-2,0-3.3-1.5-3.3-3.5c0-1.9,1.2-3.6,3.1-3.6    c0.9,0,1.7,0.2,2.2,0.9h0v-4.5h2.1V310.4z M188,305.2c-1.1,0-1.7,0.7-1.7,1.7s0.6,1.7,1.7,1.7c1.1,0,1.7-0.7,1.7-1.7    S189.1,305.2,188,305.2z"/>
		<path class="st6" d="M194.4,300.2c0.7,0,1.2,0.5,1.2,1.2s-0.5,1.2-1.2,1.2s-1.2-0.5-1.2-1.2S193.7,300.2,194.4,300.2z     M193.4,303.5h2.1v6.8h-2.1V303.5z"/>
		<path class="st6" d="M197.7,305.2h-1.4v-1.7h1.4v-1.2c0-1.5,0.4-2.7,2.7-2.7c0.4,0,0.8,0,1.2,0.1l-0.1,1.8    c-0.2-0.1-0.4-0.1-0.7-0.1c-0.7,0-1,0.2-1,1.1v1.1h1.6v1.7h-1.6v5.1h-2.1V305.2z"/>
		<path class="st6" d="M202.6,305.2h-1.4v-1.7h1.4v-1.2c0-1.5,0.4-2.7,2.7-2.7c0.4,0,0.8,0,1.2,0.1l-0.1,1.8    c-0.2-0.1-0.4-0.1-0.7-0.1c-0.7,0-1,0.2-1,1.1v1.1h1.6v1.7h-1.6v5.1h-2.1V305.2z"/>
		<path class="st6" d="M213.5,309.2c-0.7,0.9-1.8,1.3-2.9,1.3c-2.1,0-3.8-1.4-3.8-3.6s1.7-3.6,3.8-3.6c2,0,3.2,1.4,3.2,3.6v0.7H209    c0.2,0.8,0.8,1.3,1.6,1.3c0.7,0,1.1-0.4,1.5-0.8L213.5,309.2z M211.7,306.2c0-0.7-0.5-1.3-1.3-1.3c-0.9,0-1.4,0.6-1.5,1.3H211.7z"/>
		<path class="st6" d="M215.1,303.5h2.1v1.1h0c0.4-0.8,1-1.3,2-1.3c0.2,0,0.5,0,0.7,0.1v1.9c-0.3-0.1-0.6-0.1-0.9-0.1    c-1.6,0-1.8,0.9-1.8,2.3v2.8h-2.1V303.5z"/>
		<path class="st6" d="M227,309.2c-0.7,0.9-1.8,1.3-2.9,1.3c-2.1,0-3.8-1.4-3.8-3.6s1.7-3.6,3.8-3.6c2,0,3.2,1.4,3.2,3.6v0.7h-4.9    c0.2,0.8,0.8,1.3,1.6,1.3c0.7,0,1.1-0.4,1.5-0.8L227,309.2z M225.2,306.2c0-0.7-0.5-1.3-1.3-1.3c-0.9,0-1.4,0.6-1.5,1.3H225.2z"/>
		<path class="st6" d="M228.6,303.5h2v0.9h0c0.3-0.5,1-1.1,2-1.1c2.1,0,2.5,1.4,2.5,3.2v3.8H233V307c0-0.8,0-1.8-1.1-1.8    c-1.1,0-1.3,0.9-1.3,1.7v3.4h-2.1V303.5z"/>
		<path class="st6" d="M241.3,305.2h-1.8v2.3c0,0.7,0.1,1.3,1,1.3c0.2,0,0.7,0,0.9-0.2v1.8c-0.5,0.2-1,0.2-1.5,0.2    c-1.4,0-2.5-0.6-2.5-2.1v-3.2H236v-1.7h1.3v-2h2.1v2h1.8V305.2z"/>
		<path class="st6" d="M243.4,300.2c0.7,0,1.2,0.5,1.2,1.2s-0.5,1.2-1.2,1.2s-1.2-0.5-1.2-1.2S242.7,300.2,243.4,300.2z     M242.4,303.5h2.1v6.8h-2.1V303.5z"/>
		<path class="st6" d="M250.2,309.5L250.2,309.5c-0.5,0.7-1.3,1-2.2,1c-1.3,0-2.4-0.7-2.4-2.1c0-2.4,2.9-2.4,4.6-2.4    c0-0.7-0.6-1.2-1.3-1.2c-0.7,0-1.3,0.3-1.7,0.8l-1.1-1.1c0.8-0.7,1.9-1.1,3-1.1c2.5,0,3.1,1.2,3.1,3.5v3.5h-1.9V309.5z     M249.7,307.4c-0.6,0-2.1,0.1-2.1,1c0,0.5,0.5,0.7,1,0.7c0.8,0,1.6-0.4,1.6-1.3v-0.4H249.7z"/>
		<path class="st6" d="M258.1,305.2h-1.8v2.3c0,0.7,0.1,1.3,1,1.3c0.2,0,0.7,0,0.9-0.2v1.8c-0.5,0.2-1,0.2-1.5,0.2    c-1.4,0-2.5-0.6-2.5-2.1v-3.2h-1.3v-1.7h1.3v-2h2.1v2h1.8V305.2z"/>
		<path class="st6" d="M260.3,300.2c0.7,0,1.2,0.5,1.2,1.2s-0.5,1.2-1.2,1.2s-1.2-0.5-1.2-1.2S259.6,300.2,260.3,300.2z     M259.2,303.5h2.1v6.8h-2.1V303.5z"/>
		<path class="st6" d="M266.4,303.4c2.1,0,3.8,1.4,3.8,3.6s-1.7,3.6-3.8,3.6s-3.8-1.4-3.8-3.6S264.2,303.4,266.4,303.4z     M266.4,308.7c1.1,0,1.7-0.7,1.7-1.7s-0.6-1.7-1.7-1.7c-1.1,0-1.7,0.7-1.7,1.7S265.3,308.7,266.4,308.7z"/>
		<path class="st6" d="M271.4,303.5h2v0.9h0c0.3-0.5,1-1.1,2-1.1c2.1,0,2.5,1.4,2.5,3.2v3.8h-2.1V307c0-0.8,0-1.8-1.1-1.8    c-1.1,0-1.3,0.9-1.3,1.7v3.4h-2.1V303.5z"/>
		<path class="st6" d="M287.1,303.4c2.1,0,3.8,1.4,3.8,3.6s-1.7,3.6-3.8,3.6s-3.8-1.4-3.8-3.6S285,303.4,287.1,303.4z M287.1,308.7    c1.1,0,1.7-0.7,1.7-1.7s-0.6-1.7-1.7-1.7c-1.1,0-1.7,0.7-1.7,1.7S286,308.7,287.1,308.7z"/>
		<path class="st6" d="M292.1,303.5h2.1v1.1h0c0.4-0.8,1-1.3,2-1.3c0.2,0,0.5,0,0.7,0.1v1.9c-0.3-0.1-0.6-0.1-0.9-0.1    c-1.6,0-1.8,0.9-1.8,2.3v2.8h-2.1V303.5z"/>
		<path class="st6" d="M301.9,299.8h2.1v10.6h-2.1V299.8z"/>
		<path class="st6" d="M309.1,303.4c2.1,0,3.8,1.4,3.8,3.6s-1.7,3.6-3.8,3.6s-3.8-1.4-3.8-3.6S307,303.4,309.1,303.4z M309.1,308.7    c1.1,0,1.7-0.7,1.7-1.7s-0.6-1.7-1.7-1.7c-1.1,0-1.7,0.7-1.7,1.7S308,308.7,309.1,308.7z"/>
		<path class="st6" d="M313.3,303.5h2.2l1.4,4.3h0l1.2-4.3h2.3l1.3,4.3h0l1.3-4.3h2.1l-2.4,6.8h-2.1l-1.4-4.5h0l-1.3,4.5h-2.1    L313.3,303.5z"/>
		<path class="st6" d="M334.5,305.7c-0.2-0.3-0.6-0.5-1-0.5c-1.1,0-1.7,0.7-1.7,1.7s0.6,1.7,1.7,1.7c0.5,0,0.8-0.2,1-0.5l1.4,1.5    c-0.7,0.7-1.6,0.9-2.4,0.9c-2.1,0-3.8-1.4-3.8-3.6s1.7-3.6,3.8-3.6c0.8,0,1.8,0.2,2.4,0.9L334.5,305.7z"/>
		<path class="st6" d="M340.2,303.4c2.1,0,3.8,1.4,3.8,3.6s-1.7,3.6-3.8,3.6s-3.8-1.4-3.8-3.6S338.1,303.4,340.2,303.4z     M340.2,308.7c1.1,0,1.7-0.7,1.7-1.7s-0.6-1.7-1.7-1.7c-1.1,0-1.7,0.7-1.7,1.7S339.1,308.7,340.2,308.7z"/>
		<path class="st6" d="M349,305.5c-0.3-0.4-0.7-0.6-1.2-0.6c-0.4,0-0.8,0.2-0.8,0.6c0,1,3.5,0.2,3.5,2.7c0,1.7-1.7,2.2-3.1,2.2    c-1,0-2-0.2-2.7-0.9l1.3-1.4c0.4,0.5,0.9,0.7,1.5,0.7c0.5,0,1-0.1,1-0.5c0-1.1-3.5-0.2-3.5-2.8c0-1.6,1.4-2.3,2.9-2.3    c0.9,0,1.9,0.2,2.5,0.9L349,305.5z"/>
		<path class="st6" d="M356.3,305.2h-1.8v2.3c0,0.7,0.1,1.3,1,1.3c0.2,0,0.7,0,0.9-0.2v1.8c-0.5,0.2-1,0.2-1.5,0.2    c-1.4,0-2.5-0.6-2.5-2.1v-3.2H351v-1.7h1.3v-2h2.1v2h1.8V305.2z"/>
		<path class="st6" d="M357.4,309.6c0-0.5,0.4-0.9,0.8-0.9s0.8,0.4,0.8,0.9c0,0.5-0.3,0.9-0.8,0.9    C357.7,310.5,357.4,310.1,357.4,309.6z"/>
	</g>
</g>
<g>
	<g>
		<path class="st6" d="M445.8,101.3c-0.4,0.2-1.3,0.4-2.5,0.4c-2.7,0-4.7-1.7-4.7-4.8c0-3,2-5,4.9-5c1.2,0,1.9,0.3,2.2,0.4l-0.3,1    c-0.5-0.2-1.1-0.4-1.9-0.4c-2.2,0-3.7,1.4-3.7,3.9c0,2.3,1.3,3.8,3.6,3.8c0.7,0,1.5-0.2,2-0.4L445.8,101.3z"/>
		<path class="st6" d="M447.2,96.9c0-0.8,0-1.5-0.1-2.1h1.1l0,1.3h0.1c0.3-0.9,1.1-1.5,1.9-1.5c0.1,0,0.2,0,0.4,0v1.2    c-0.1,0-0.3,0-0.4,0c-0.9,0-1.5,0.7-1.7,1.6c0,0.2-0.1,0.4-0.1,0.6v3.6h-1.2V96.9z"/>
		<path class="st6" d="M452.3,98.4c0,1.7,1.1,2.4,2.3,2.4c0.9,0,1.4-0.2,1.9-0.4l0.2,0.9c-0.4,0.2-1.2,0.4-2.3,0.4    c-2.1,0-3.3-1.4-3.3-3.4c0-2,1.2-3.7,3.2-3.7c2.2,0,2.8,1.9,2.8,3.2c0,0.3,0,0.4,0,0.6H452.3z M455.9,97.6c0-0.8-0.3-2-1.7-2    c-1.2,0-1.8,1.1-1.9,2H455.9z"/>
		<path class="st6" d="M462.4,101.6l-0.1-0.9h0c-0.4,0.5-1.1,1-2.1,1c-1.4,0-2.1-1-2.1-1.9c0-1.6,1.5-2.5,4.1-2.5v-0.1    c0-0.6-0.2-1.6-1.5-1.6c-0.6,0-1.3,0.2-1.8,0.5l-0.3-0.8c0.6-0.4,1.4-0.6,2.2-0.6c2.1,0,2.6,1.4,2.6,2.8v2.5c0,0.6,0,1.2,0.1,1.6    H462.4z M462.2,98.2c-1.3,0-2.9,0.2-2.9,1.5c0,0.8,0.5,1.2,1.2,1.2c0.9,0,1.4-0.6,1.6-1.1c0-0.1,0.1-0.3,0.1-0.4V98.2z"/>
		<path class="st6" d="M466.8,92.9v1.9h1.8v0.9h-1.8v3.7c0,0.8,0.2,1.3,0.9,1.3c0.3,0,0.6,0,0.7-0.1l0.1,0.9    c-0.2,0.1-0.6,0.2-1.1,0.2c-0.6,0-1-0.2-1.3-0.5c-0.4-0.4-0.5-1-0.5-1.8v-3.7h-1.1v-0.9h1.1v-1.6L466.8,92.9z"/>
		<path class="st6" d="M470.6,98.4c0,1.7,1.1,2.4,2.3,2.4c0.9,0,1.4-0.2,1.9-0.4l0.2,0.9c-0.4,0.2-1.2,0.4-2.3,0.4    c-2.1,0-3.3-1.4-3.3-3.4c0-2,1.2-3.7,3.2-3.7c2.2,0,2.8,1.9,2.8,3.2c0,0.3,0,0.4,0,0.6H470.6z M474.2,97.6c0-0.8-0.3-2-1.7-2    c-1.2,0-1.8,1.1-1.9,2H474.2z"/>
		<path class="st6" d="M486.2,101.6h-2v-0.9h0c-0.3,0.5-1,1.1-2,1.1c-2.1,0-2.5-1.4-2.5-3.2v-3.8h2.1v3.3c0,0.8,0,1.8,1.1,1.8    c1.1,0,1.3-0.9,1.3-1.7v-3.4h2.1V101.6z"/>
		<path class="st6" d="M487.6,94.8h2v0.9h0c0.3-0.5,1-1.1,2-1.1c2.1,0,2.5,1.4,2.5,3.2v3.8h-2.1v-3.3c0-0.8,0-1.8-1.1-1.8    c-1.1,0-1.3,0.9-1.3,1.7v3.4h-2.1V94.8z"/>
		<path class="st6" d="M500.3,97c-0.2-0.3-0.6-0.5-1-0.5c-1.1,0-1.7,0.7-1.7,1.7s0.6,1.7,1.7,1.7c0.5,0,0.8-0.2,1-0.5l1.4,1.5    c-0.7,0.7-1.6,0.9-2.4,0.9c-2.1,0-3.8-1.4-3.8-3.6s1.7-3.6,3.8-3.6c0.8,0,1.8,0.2,2.4,0.9L500.3,97z"/>
		<path class="st6" d="M506,94.6c2.1,0,3.8,1.4,3.8,3.6s-1.7,3.6-3.8,3.6c-2.1,0-3.8-1.4-3.8-3.6S503.9,94.6,506,94.6z M506,99.9    c1.1,0,1.7-0.7,1.7-1.7s-0.6-1.7-1.7-1.7s-1.7,0.7-1.7,1.7S504.9,99.9,506,99.9z"/>
		<path class="st6" d="M511,94.8h2v0.9h0c0.3-0.5,1-1.1,2-1.1c2.1,0,2.5,1.4,2.5,3.2v3.8h-2.1v-3.3c0-0.8,0-1.8-1.1-1.8    c-1.1,0-1.3,0.9-1.3,1.7v3.4H511V94.8z"/>
		<path class="st6" d="M523.6,96.5h-1.8v2.3c0,0.7,0.1,1.3,1,1.3c0.2,0,0.7,0,0.9-0.2v1.8c-0.5,0.2-1,0.2-1.5,0.2    c-1.4,0-2.5-0.6-2.5-2.1v-3.2h-1.3v-1.7h1.3v-2h2.1v2h1.8V96.5z"/>
		<path class="st6" d="M531.1,100.4c-0.7,0.9-1.8,1.3-2.9,1.3c-2.1,0-3.8-1.4-3.8-3.6s1.7-3.6,3.8-3.6c2,0,3.2,1.4,3.2,3.6v0.7h-4.9    c0.2,0.8,0.8,1.3,1.6,1.3c0.7,0,1.1-0.4,1.5-0.8L531.1,100.4z M529.4,97.4c0-0.7-0.5-1.3-1.3-1.3c-0.9,0-1.4,0.6-1.5,1.3H529.4z"/>
		<path class="st6" d="M536.6,96.8c-0.3-0.4-0.7-0.6-1.2-0.6c-0.4,0-0.8,0.2-0.8,0.6c0,1,3.5,0.2,3.5,2.7c0,1.7-1.7,2.2-3.1,2.2    c-1,0-2-0.2-2.7-0.9l1.3-1.4c0.4,0.5,0.9,0.7,1.5,0.7c0.5,0,1-0.1,1-0.5c0-1.1-3.5-0.2-3.5-2.8c0-1.6,1.4-2.3,2.9-2.3    c0.9,0,1.9,0.2,2.5,0.9L536.6,96.8z"/>
		<path class="st6" d="M543.9,96.5H542v2.3c0,0.7,0.1,1.3,1,1.3c0.2,0,0.7,0,0.9-0.2v1.8c-0.5,0.2-1,0.2-1.5,0.2    c-1.4,0-2.5-0.6-2.5-2.1v-3.2h-1.3v-1.7h1.3v-2h2.1v2h1.8V96.5z"/>
		<path class="st6" d="M551.4,100.4c-0.7,0.9-1.8,1.3-2.9,1.3c-2.1,0-3.8-1.4-3.8-3.6s1.7-3.6,3.8-3.6c2,0,3.2,1.4,3.2,3.6v0.7h-4.9    c0.2,0.8,0.8,1.3,1.6,1.3c0.7,0,1.1-0.4,1.5-0.8L551.4,100.4z M549.6,97.4c0-0.7-0.5-1.3-1.3-1.3c-0.9,0-1.4,0.6-1.5,1.3H549.6z"/>
		<path class="st6" d="M560.1,101.6h-1.9v-0.9h0c-0.3,0.5-1.1,1.1-2.1,1.1c-2,0-3.3-1.5-3.3-3.5c0-1.9,1.2-3.6,3.1-3.6    c0.9,0,1.7,0.2,2.2,0.9h0V91h2.1V101.6z M556.5,96.5c-1.1,0-1.7,0.7-1.7,1.7s0.6,1.7,1.7,1.7s1.7-0.7,1.7-1.7    S557.5,96.5,556.5,96.5z"/>
		<path class="st6" d="M566.2,96.7c0-0.7,0-1.3-0.1-1.8h1.1l0.1,1.1h0c0.4-0.6,1-1.2,2.1-1.2c0.9,0,1.6,0.6,1.9,1.4h0    c0.2-0.4,0.5-0.7,0.8-0.9c0.4-0.3,0.9-0.5,1.5-0.5c0.9,0,2.2,0.6,2.2,2.9v4h-1.2v-3.8c0-1.3-0.5-2.1-1.5-2.1    c-0.7,0-1.2,0.5-1.5,1.1c-0.1,0.2-0.1,0.4-0.1,0.6v4.2h-1.2v-4.1c0-1.1-0.5-1.9-1.4-1.9c-0.8,0-1.3,0.6-1.5,1.2    c-0.1,0.2-0.1,0.4-0.1,0.6v4.1h-1.2V96.7z"/>
		<path class="st6" d="M581.6,101.6l-0.1-0.9h0c-0.4,0.5-1.1,1-2.1,1c-1.4,0-2.1-1-2.1-1.9c0-1.6,1.5-2.5,4.1-2.5v-0.1    c0-0.6-0.2-1.6-1.5-1.6c-0.6,0-1.3,0.2-1.8,0.5l-0.3-0.8c0.6-0.4,1.4-0.6,2.2-0.6c2.1,0,2.6,1.4,2.6,2.8v2.5c0,0.6,0,1.2,0.1,1.6    H581.6z M581.4,98.2c-1.3,0-2.9,0.2-2.9,1.5c0,0.8,0.5,1.2,1.2,1.2c0.9,0,1.4-0.6,1.6-1.1c0-0.1,0.1-0.3,0.1-0.4V98.2z"/>
		<path class="st6" d="M584.6,96.9c0-0.8,0-1.5-0.1-2.1h1.1l0,1.3h0.1c0.3-0.9,1.1-1.5,1.9-1.5c0.1,0,0.2,0,0.4,0v1.2    c-0.1,0-0.3,0-0.4,0c-0.9,0-1.5,0.7-1.7,1.6c0,0.2-0.1,0.4-0.1,0.6v3.6h-1.2V96.9z"/>
		<path class="st6" d="M590.5,97.9L590.5,97.9c0.2-0.2,0.4-0.5,0.6-0.8l2-2.3h1.5l-2.6,2.8l3,4h-1.5l-2.3-3.3l-0.6,0.7v2.5h-1.2    v-9.9h1.2V97.9z"/>
		<path class="st6" d="M596.5,98.4c0,1.7,1.1,2.4,2.3,2.4c0.9,0,1.4-0.2,1.9-0.4l0.2,0.9c-0.4,0.2-1.2,0.4-2.3,0.4    c-2.1,0-3.3-1.4-3.3-3.4c0-2,1.2-3.7,3.2-3.7c2.2,0,2.8,1.9,2.8,3.2c0,0.3,0,0.4,0,0.6H596.5z M600.1,97.6c0-0.8-0.3-2-1.7-2    c-1.2,0-1.8,1.1-1.9,2H600.1z"/>
		<path class="st6" d="M604.3,92.9v1.9h1.8v0.9h-1.8v3.7c0,0.8,0.2,1.3,0.9,1.3c0.3,0,0.6,0,0.7-0.1l0.1,0.9    c-0.2,0.1-0.6,0.2-1.1,0.2c-0.6,0-1-0.2-1.3-0.5c-0.3-0.4-0.5-1-0.5-1.8v-3.7h-1.1v-0.9h1.1v-1.6L604.3,92.9z"/>
		<path class="st6" d="M610.3,100.4c0.4,0.2,1,0.5,1.6,0.5c0.9,0,1.3-0.4,1.3-1c0-0.6-0.3-0.9-1.3-1.2c-1.2-0.4-1.8-1.1-1.8-1.9    c0-1.1,0.9-2,2.3-2c0.7,0,1.3,0.2,1.7,0.4l-0.3,0.9c-0.3-0.2-0.8-0.4-1.4-0.4c-0.7,0-1.1,0.4-1.1,0.9c0,0.6,0.4,0.8,1.3,1.1    c1.2,0.4,1.8,1,1.8,2c0,1.2-0.9,2-2.5,2c-0.7,0-1.4-0.2-1.9-0.5L610.3,100.4z"/>
		<path class="st6" d="M616,97c0-0.9,0-1.6-0.1-2.2h1.1l0.1,1.2h0c0.5-0.8,1.3-1.3,2.4-1.3c1.6,0,2.9,1.4,2.9,3.4    c0,2.4-1.5,3.6-3.1,3.6c-0.9,0-1.7-0.4-2.1-1.1h0v3.7H616V97z M617.2,98.9c0,0.2,0,0.4,0.1,0.5c0.2,0.9,1,1.4,1.8,1.4    c1.3,0,2.1-1.1,2.1-2.6c0-1.4-0.7-2.5-2-2.5c-0.8,0-1.6,0.6-1.9,1.5c0,0.2-0.1,0.3-0.1,0.5V98.9z"/>
		<path class="st6" d="M627.7,101.6l-0.1-0.9h0c-0.4,0.5-1.1,1-2.1,1c-1.4,0-2.1-1-2.1-1.9c0-1.6,1.5-2.5,4.1-2.5v-0.1    c0-0.6-0.2-1.6-1.5-1.6c-0.6,0-1.3,0.2-1.8,0.5l-0.3-0.8c0.6-0.4,1.4-0.6,2.2-0.6c2.1,0,2.6,1.4,2.6,2.8v2.5c0,0.6,0,1.2,0.1,1.6    H627.7z M627.5,98.2c-1.3,0-2.9,0.2-2.9,1.5c0,0.8,0.5,1.2,1.2,1.2c0.9,0,1.4-0.6,1.6-1.1c0-0.1,0.1-0.3,0.1-0.4V98.2z"/>
		<path class="st6" d="M635.5,101.4c-0.3,0.2-1,0.4-1.9,0.4c-2,0-3.4-1.4-3.4-3.5c0-2.1,1.4-3.6,3.6-3.6c0.7,0,1.4,0.2,1.7,0.4    l-0.3,1c-0.3-0.2-0.8-0.3-1.4-0.3c-1.6,0-2.4,1.1-2.4,2.6c0,1.6,1,2.5,2.4,2.5c0.7,0,1.2-0.2,1.5-0.3L635.5,101.4z"/>
		<path class="st6" d="M637.6,98.4c0,1.7,1.1,2.4,2.3,2.4c0.9,0,1.4-0.2,1.9-0.4l0.2,0.9c-0.4,0.2-1.2,0.4-2.3,0.4    c-2.1,0-3.3-1.4-3.3-3.4c0-2,1.2-3.7,3.2-3.7c2.2,0,2.8,1.9,2.8,3.2c0,0.3,0,0.4,0,0.6H637.6z M641.2,97.6c0-0.8-0.3-2-1.7-2    c-1.2,0-1.8,1.1-1.9,2H641.2z"/>
		<path class="st6" d="M643.4,100.9c0-0.5,0.3-0.9,0.8-0.9s0.8,0.4,0.8,0.9c0,0.5-0.3,0.9-0.8,0.9    C643.8,101.8,643.4,101.4,643.4,100.9z"/>
	</g>
</g>
<g>
	<g>
		<path class="st6" d="M445.8,201.5c-0.4,0.2-1.3,0.4-2.5,0.4c-2.7,0-4.7-1.7-4.7-4.8c0-3,2-5,4.9-5c1.2,0,1.9,0.3,2.2,0.4l-0.3,1    c-0.5-0.2-1.1-0.4-1.9-0.4c-2.2,0-3.7,1.4-3.7,3.9c0,2.3,1.3,3.8,3.6,3.8c0.7,0,1.5-0.2,2-0.4L445.8,201.5z"/>
		<path class="st6" d="M447.2,197.1c0-0.8,0-1.5-0.1-2.1h1.1l0,1.3h0.1c0.3-0.9,1.1-1.5,1.9-1.5c0.1,0,0.2,0,0.4,0v1.2    c-0.1,0-0.3,0-0.4,0c-0.9,0-1.5,0.7-1.7,1.6c0,0.2-0.1,0.4-0.1,0.6v3.6h-1.2V197.1z"/>
		<path class="st6" d="M452.3,198.6c0,1.7,1.1,2.4,2.3,2.4c0.9,0,1.4-0.2,1.9-0.4l0.2,0.9c-0.4,0.2-1.2,0.4-2.3,0.4    c-2.1,0-3.3-1.4-3.3-3.4c0-2,1.2-3.7,3.2-3.7c2.2,0,2.8,1.9,2.8,3.2c0,0.3,0,0.4,0,0.6H452.3z M455.9,197.7c0-0.8-0.3-2-1.7-2    c-1.2,0-1.8,1.1-1.9,2H455.9z"/>
		<path class="st6" d="M462.4,201.8l-0.1-0.9h0c-0.4,0.5-1.1,1-2.1,1c-1.4,0-2.1-1-2.1-1.9c0-1.6,1.5-2.5,4.1-2.5v-0.1    c0-0.6-0.2-1.6-1.5-1.6c-0.6,0-1.3,0.2-1.8,0.5l-0.3-0.8c0.6-0.4,1.4-0.6,2.2-0.6c2.1,0,2.6,1.4,2.6,2.8v2.5c0,0.6,0,1.2,0.1,1.6    H462.4z M462.2,198.3c-1.3,0-2.9,0.2-2.9,1.5c0,0.8,0.5,1.2,1.2,1.2c0.9,0,1.4-0.6,1.6-1.1c0-0.1,0.1-0.3,0.1-0.4V198.3z"/>
		<path class="st6" d="M466.8,193v1.9h1.8v0.9h-1.8v3.7c0,0.8,0.2,1.3,0.9,1.3c0.3,0,0.6,0,0.7-0.1l0.1,0.9    c-0.2,0.1-0.6,0.2-1.1,0.2c-0.6,0-1-0.2-1.3-0.5c-0.4-0.4-0.5-1-0.5-1.8v-3.7h-1.1V195h1.1v-1.6L466.8,193z"/>
		<path class="st6" d="M470.6,198.6c0,1.7,1.1,2.4,2.3,2.4c0.9,0,1.4-0.2,1.9-0.4l0.2,0.9c-0.4,0.2-1.2,0.4-2.3,0.4    c-2.1,0-3.3-1.4-3.3-3.4c0-2,1.2-3.7,3.2-3.7c2.2,0,2.8,1.9,2.8,3.2c0,0.3,0,0.4,0,0.6H470.6z M474.2,197.7c0-0.8-0.3-2-1.7-2    c-1.2,0-1.8,1.1-1.9,2H474.2z"/>
		<path class="st6" d="M483.6,201.8l-0.1-0.9h0c-0.4,0.5-1.1,1-2.1,1c-1.4,0-2.1-1-2.1-1.9c0-1.6,1.5-2.5,4.1-2.5v-0.1    c0-0.6-0.2-1.6-1.5-1.6c-0.6,0-1.3,0.2-1.8,0.5l-0.3-0.8c0.6-0.4,1.4-0.6,2.2-0.6c2.1,0,2.6,1.4,2.6,2.8v2.5c0,0.6,0,1.2,0.1,1.6    H483.6z M483.5,198.3c-1.3,0-2.9,0.2-2.9,1.5c0,0.8,0.5,1.2,1.2,1.2c0.9,0,1.4-0.6,1.6-1.1c0-0.1,0.1-0.3,0.1-0.4V198.3z"/>
		<path class="st6" d="M486.6,196.8c0-0.7,0-1.3-0.1-1.8h1.1l0.1,1.1h0c0.3-0.6,1.1-1.3,2.2-1.3c0.9,0,2.4,0.6,2.4,2.9v4h-1.2v-3.9    c0-1.1-0.4-2-1.6-2c-0.8,0-1.4,0.6-1.7,1.3c-0.1,0.2-0.1,0.4-0.1,0.6v4.1h-1.2V196.8z"/>
		<path class="st6" d="M500.3,191.8v8.2c0,0.6,0,1.3,0.1,1.8h-1.1l-0.1-1.2h0c-0.4,0.8-1.2,1.3-2.3,1.3c-1.6,0-2.9-1.4-2.9-3.4    c0-2.3,1.4-3.6,3-3.6c1,0,1.7,0.5,2,1h0v-4H500.3z M499,197.8c0-0.2,0-0.4-0.1-0.5c-0.2-0.8-0.9-1.4-1.8-1.4c-1.3,0-2,1.1-2,2.6    c0,1.4,0.7,2.5,2,2.5c0.8,0,1.6-0.5,1.8-1.5c0-0.2,0.1-0.3,0.1-0.5V197.8z"/>
		<path class="st6" d="M510.1,201.5c-0.3,0.2-1,0.4-1.9,0.4c-2,0-3.4-1.4-3.4-3.5c0-2.1,1.4-3.6,3.6-3.6c0.7,0,1.4,0.2,1.7,0.4    l-0.3,1c-0.3-0.2-0.8-0.3-1.4-0.3c-1.6,0-2.4,1.1-2.4,2.6c0,1.6,1,2.5,2.4,2.5c0.7,0,1.2-0.2,1.5-0.3L510.1,201.5z"/>
		<path class="st6" d="M515.3,201.8l-0.1-0.9h0c-0.4,0.5-1.1,1-2.1,1c-1.4,0-2.1-1-2.1-1.9c0-1.6,1.5-2.5,4.1-2.5v-0.1    c0-0.6-0.2-1.6-1.5-1.6c-0.6,0-1.3,0.2-1.8,0.5l-0.3-0.8c0.6-0.4,1.4-0.6,2.2-0.6c2.1,0,2.6,1.4,2.6,2.8v2.5c0,0.6,0,1.2,0.1,1.6    H515.3z M515.1,198.3c-1.3,0-2.9,0.2-2.9,1.5c0,0.8,0.5,1.2,1.2,1.2c0.9,0,1.4-0.6,1.6-1.1c0-0.1,0.1-0.3,0.1-0.4V198.3z"/>
		<path class="st6" d="M518.3,197.2c0-0.9,0-1.6-0.1-2.2h1.1l0.1,1.2h0c0.5-0.8,1.3-1.3,2.4-1.3c1.6,0,2.9,1.4,2.9,3.4    c0,2.4-1.5,3.6-3.1,3.6c-0.9,0-1.7-0.4-2.1-1.1h0v3.7h-1.2V197.2z M519.5,199c0,0.2,0,0.4,0.1,0.5c0.2,0.9,1,1.4,1.8,1.4    c1.3,0,2.1-1.1,2.1-2.6c0-1.4-0.7-2.5-2-2.5c-0.8,0-1.6,0.6-1.9,1.5c0,0.2-0.1,0.3-0.1,0.5V199z"/>
		<path class="st6" d="M527.7,193v1.9h1.8v0.9h-1.8v3.7c0,0.8,0.2,1.3,0.9,1.3c0.3,0,0.6,0,0.7-0.1l0.1,0.9    c-0.2,0.1-0.6,0.2-1.1,0.2c-0.6,0-1-0.2-1.3-0.5c-0.4-0.4-0.5-1-0.5-1.8v-3.7h-1.1V195h1.1v-1.6L527.7,193z"/>
		<path class="st6" d="M536.6,199.9c0,0.7,0,1.3,0.1,1.8h-1.1l-0.1-1.1h0c-0.3,0.5-1,1.3-2.2,1.3c-1.1,0-2.3-0.6-2.3-3v-4h1.2v3.8    c0,1.3,0.4,2.2,1.5,2.2c0.8,0,1.4-0.6,1.6-1.1c0.1-0.2,0.1-0.4,0.1-0.6V195h1.2V199.9z"/>
		<path class="st6" d="M538.6,197.1c0-0.8,0-1.5-0.1-2.1h1.1l0,1.3h0.1c0.3-0.9,1.1-1.5,1.9-1.5c0.1,0,0.2,0,0.4,0v1.2    c-0.1,0-0.3,0-0.4,0c-0.9,0-1.5,0.7-1.7,1.6c0,0.2-0.1,0.4-0.1,0.6v3.6h-1.2V197.1z"/>
		<path class="st6" d="M543.7,198.6c0,1.7,1.1,2.4,2.3,2.4c0.9,0,1.4-0.2,1.9-0.4l0.2,0.9c-0.4,0.2-1.2,0.4-2.3,0.4    c-2.1,0-3.3-1.4-3.3-3.4c0-2,1.2-3.7,3.2-3.7c2.2,0,2.8,1.9,2.8,3.2c0,0.3,0,0.4,0,0.6H543.7z M547.3,197.7c0-0.8-0.3-2-1.7-2    c-1.2,0-1.8,1.1-1.9,2H547.3z"/>
		<path class="st6" d="M552.7,195h2v0.9h0c0.3-0.5,1-1.1,2-1.1c2.1,0,2.5,1.4,2.5,3.2v3.8h-2.1v-3.3c0-0.8,0-1.8-1.1-1.8    c-1.1,0-1.3,0.9-1.3,1.7v3.4h-2.1V195z"/>
		<path class="st6" d="M567.2,200.6c-0.7,0.9-1.8,1.3-2.9,1.3c-2.1,0-3.8-1.4-3.8-3.6s1.7-3.6,3.8-3.6c2,0,3.2,1.4,3.2,3.6v0.7h-4.9    c0.2,0.8,0.8,1.3,1.6,1.3c0.7,0,1.1-0.4,1.5-0.8L567.2,200.6z M565.4,197.6c0-0.7-0.5-1.3-1.3-1.3c-0.9,0-1.4,0.6-1.5,1.3H565.4z"/>
		<path class="st6" d="M568,195h2.2l1.4,4.3h0l1.2-4.3h2.3l1.3,4.3h0l1.3-4.3h2.1l-2.4,6.8h-2.1l-1.4-4.5h0l-1.3,4.5h-2.1L568,195z"/>
		<path class="st6" d="M590.8,191.8v8.2c0,0.6,0,1.3,0.1,1.8h-1.1l-0.1-1.2h0c-0.4,0.8-1.2,1.3-2.3,1.3c-1.6,0-2.9-1.4-2.9-3.4    c0-2.3,1.4-3.6,3-3.6c1,0,1.7,0.5,2,1h0v-4H590.8z M589.5,197.8c0-0.2,0-0.4-0.1-0.5c-0.2-0.8-0.9-1.4-1.8-1.4c-1.3,0-2,1.1-2,2.6    c0,1.4,0.7,2.5,2,2.5c0.8,0,1.6-0.5,1.8-1.5c0-0.2,0.1-0.3,0.1-0.5V197.8z"/>
		<path class="st6" d="M593.5,198.6c0,1.7,1.1,2.4,2.3,2.4c0.9,0,1.4-0.2,1.9-0.4l0.2,0.9c-0.4,0.2-1.2,0.4-2.3,0.4    c-2.1,0-3.3-1.4-3.3-3.4c0-2,1.2-3.7,3.2-3.7c2.2,0,2.8,1.9,2.8,3.2c0,0.3,0,0.4,0,0.6H593.5z M597.1,197.7c0-0.8-0.3-2-1.7-2    c-1.2,0-1.8,1.1-1.9,2H597.1z"/>
		<path class="st6" d="M599.8,196.8c0-0.7,0-1.3-0.1-1.8h1.1l0.1,1.1h0c0.4-0.6,1-1.2,2.1-1.2c0.9,0,1.6,0.6,1.9,1.4h0    c0.2-0.4,0.5-0.7,0.8-0.9c0.4-0.3,0.9-0.5,1.5-0.5c0.9,0,2.2,0.6,2.2,2.9v4h-1.2v-3.8c0-1.3-0.5-2.1-1.5-2.1    c-0.7,0-1.2,0.5-1.5,1.1c-0.1,0.2-0.1,0.4-0.1,0.6v4.2h-1.2v-4.1c0-1.1-0.5-1.9-1.4-1.9c-0.8,0-1.3,0.6-1.5,1.2    c-0.1,0.2-0.1,0.4-0.1,0.6v4.1h-1.2V196.8z"/>
		<path class="st6" d="M615.2,201.8l-0.1-0.9h0c-0.4,0.5-1.1,1-2.1,1c-1.4,0-2.1-1-2.1-1.9c0-1.6,1.5-2.5,4.1-2.5v-0.1    c0-0.6-0.2-1.6-1.5-1.6c-0.6,0-1.3,0.2-1.8,0.5l-0.3-0.8c0.6-0.4,1.4-0.6,2.2-0.6c2.1,0,2.6,1.4,2.6,2.8v2.5c0,0.6,0,1.2,0.1,1.6    H615.2z M615.1,198.3c-1.3,0-2.9,0.2-2.9,1.5c0,0.8,0.5,1.2,1.2,1.2c0.9,0,1.4-0.6,1.6-1.1c0-0.1,0.1-0.3,0.1-0.4V198.3z"/>
		<path class="st6" d="M618.2,196.8c0-0.7,0-1.3-0.1-1.8h1.1l0.1,1.1h0c0.3-0.6,1.1-1.3,2.2-1.3c0.9,0,2.4,0.6,2.4,2.9v4h-1.2v-3.9    c0-1.1-0.4-2-1.6-2c-0.8,0-1.4,0.6-1.7,1.3c-0.1,0.2-0.1,0.4-0.1,0.6v4.1h-1.2V196.8z"/>
		<path class="st6" d="M631.9,191.8v8.2c0,0.6,0,1.3,0.1,1.8h-1.1l-0.1-1.2h0c-0.4,0.8-1.2,1.3-2.3,1.3c-1.6,0-2.9-1.4-2.9-3.4    c0-2.3,1.4-3.6,3-3.6c1,0,1.7,0.5,2,1h0v-4H631.9z M630.6,197.8c0-0.2,0-0.4-0.1-0.5c-0.2-0.8-0.9-1.4-1.8-1.4c-1.3,0-2,1.1-2,2.6    c0,1.4,0.7,2.5,2,2.5c0.8,0,1.6-0.5,1.8-1.5c0-0.2,0.1-0.3,0.1-0.5V197.8z"/>
		<path class="st6" d="M633.5,201c0-0.5,0.4-0.9,0.8-0.9s0.8,0.4,0.8,0.9c0,0.5-0.3,0.9-0.8,0.9C633.8,201.9,633.5,201.6,633.5,201z    "/>
	</g>
</g>
<g>
	<g>
		<path class="st6" d="M439.1,241.6h3.7c1.7,0,3.6,0.4,3.6,2.5c0,1.1-0.7,1.9-1.7,2.2v0c1.3,0.2,2.2,1.1,2.2,2.4    c0,2.1-2,2.8-3.7,2.8h-4.1V241.6z M441.3,245.6h1.6c0.7,0,1.4-0.3,1.4-1.1c0-0.8-0.8-1-1.5-1h-1.5V245.6z M441.3,249.7h2    c0.7,0,1.5-0.3,1.5-1.2c0-0.9-1-1.1-1.8-1.1h-1.7V249.7z"/>
		<path class="st6" d="M447.9,244.7h2.1v1.1h0c0.4-0.8,1-1.3,2-1.3c0.2,0,0.5,0,0.7,0.1v1.9c-0.3-0.1-0.6-0.1-0.9-0.1    c-1.6,0-1.8,0.9-1.8,2.3v2.8h-2.1V244.7z"/>
		<path class="st6" d="M459.8,250.4c-0.7,0.9-1.8,1.3-2.9,1.3c-2.1,0-3.8-1.4-3.8-3.6s1.7-3.6,3.8-3.6c2,0,3.2,1.4,3.2,3.6v0.7h-4.9    c0.2,0.8,0.8,1.3,1.6,1.3c0.7,0,1.1-0.4,1.5-0.8L459.8,250.4z M458,247.4c0-0.7-0.5-1.3-1.3-1.3c-0.9,0-1.4,0.6-1.5,1.3H458z"/>
		<path class="st6" d="M465.7,250.7L465.7,250.7c-0.5,0.7-1.3,1-2.2,1c-1.3,0-2.4-0.7-2.4-2.1c0-2.4,2.9-2.4,4.6-2.4    c0-0.7-0.6-1.2-1.3-1.2c-0.7,0-1.3,0.3-1.7,0.8l-1.1-1.1c0.8-0.7,1.9-1.1,3-1.1c2.5,0,3.1,1.2,3.1,3.5v3.5h-1.9V250.7z     M465.2,248.6c-0.6,0-2.1,0.1-2.1,1c0,0.5,0.5,0.7,1,0.7c0.8,0,1.6-0.4,1.6-1.3v-0.4H465.2z"/>
		<path class="st6" d="M468.9,241h2.1v6.5l2.3-2.7h2.6l-2.7,3.1l2.8,3.7h-2.6l-2.3-3.4h0v3.4h-2.1V241z"/>
		<path class="st6" d="M482.6,242.8v1.9h1.8v0.9h-1.8v3.7c0,0.8,0.2,1.3,0.9,1.3c0.3,0,0.6,0,0.7-0.1l0.1,0.9    c-0.2,0.1-0.6,0.2-1.1,0.2c-0.6,0-1-0.2-1.3-0.5c-0.4-0.4-0.5-1-0.5-1.8v-3.7h-1.1v-0.9h1.1v-1.6L482.6,242.8z"/>
		<path class="st6" d="M485.8,241.6h1.2v4.2h0c0.2-0.3,0.5-0.7,0.9-0.9c0.4-0.2,0.8-0.4,1.3-0.4c0.9,0,2.4,0.6,2.4,2.9v4h-1.2v-3.9    c0-1.1-0.4-2-1.6-2c-0.8,0-1.4,0.6-1.7,1.2c-0.1,0.2-0.1,0.3-0.1,0.6v4.1h-1.2V241.6z"/>
		<path class="st6" d="M494.2,248.4c0,1.7,1.1,2.4,2.3,2.4c0.9,0,1.4-0.2,1.9-0.3l0.2,0.9c-0.4,0.2-1.2,0.4-2.3,0.4    c-2.1,0-3.3-1.4-3.3-3.4s1.2-3.7,3.2-3.7c2.2,0,2.8,1.9,2.8,3.2c0,0.3,0,0.4,0,0.6H494.2z M497.8,247.5c0-0.8-0.3-2-1.7-2    c-1.2,0-1.8,1.1-1.9,2H497.8z"/>
		<path class="st6" d="M504,244.8l1.3,3.8c0.2,0.6,0.4,1.2,0.5,1.7h0c0.2-0.6,0.4-1.1,0.6-1.7l1.3-3.8h1.3l-2.7,6.8h-1.2l-2.6-6.8    H504z"/>
		<path class="st6" d="M513.9,251.5l-0.1-0.9h0c-0.4,0.5-1.1,1-2.1,1c-1.4,0-2.1-1-2.1-1.9c0-1.6,1.5-2.5,4.1-2.5v-0.1    c0-0.6-0.2-1.6-1.5-1.6c-0.6,0-1.3,0.2-1.8,0.5l-0.3-0.8c0.6-0.4,1.4-0.6,2.2-0.6c2.1,0,2.6,1.4,2.6,2.8v2.5c0,0.6,0,1.2,0.1,1.6    H513.9z M513.8,248.1c-1.3,0-2.9,0.2-2.9,1.5c0,0.8,0.5,1.2,1.2,1.2c0.9,0,1.4-0.6,1.6-1.1c0-0.1,0.1-0.3,0.1-0.4V248.1z"/>
		<path class="st6" d="M516.9,241.6h1.2v9.9h-1.2V241.6z"/>
		<path class="st6" d="M525.9,249.7c0,0.7,0,1.3,0.1,1.8h-1.1l-0.1-1.1h0c-0.3,0.5-1,1.3-2.2,1.3c-1.1,0-2.3-0.6-2.3-3v-4h1.2v3.8    c0,1.3,0.4,2.2,1.5,2.2c0.8,0,1.4-0.6,1.6-1.1c0.1-0.2,0.1-0.4,0.1-0.6v-4.2h1.2V249.7z"/>
		<path class="st6" d="M528.6,248.4c0,1.7,1.1,2.4,2.3,2.4c0.9,0,1.4-0.2,1.9-0.3l0.2,0.9c-0.4,0.2-1.2,0.4-2.3,0.4    c-2.1,0-3.3-1.4-3.3-3.4s1.2-3.7,3.2-3.7c2.2,0,2.8,1.9,2.8,3.2c0,0.3,0,0.4,0,0.6H528.6z M532.3,247.5c0-0.8-0.3-2-1.7-2    c-1.2,0-1.8,1.1-1.9,2H532.3z"/>
		<path class="st6" d="M538.2,247.3v0.9h-3.5v-0.9H538.2z"/>
		<path class="st6" d="M544.7,251.3c-0.3,0.2-1,0.4-1.9,0.4c-2,0-3.4-1.4-3.4-3.5c0-2.1,1.4-3.6,3.6-3.6c0.7,0,1.4,0.2,1.7,0.4    l-0.3,1c-0.3-0.2-0.8-0.3-1.4-0.3c-1.6,0-2.4,1.1-2.4,2.6c0,1.6,1,2.5,2.4,2.5c0.7,0,1.2-0.2,1.5-0.3L544.7,251.3z"/>
		<path class="st6" d="M552.2,248.1c0,2.5-1.7,3.6-3.4,3.6c-1.8,0-3.3-1.3-3.3-3.5c0-2.3,1.5-3.6,3.4-3.6    C550.9,244.6,552.2,246,552.2,248.1z M546.9,248.2c0,1.5,0.9,2.6,2.1,2.6c1.2,0,2.1-1.1,2.1-2.6c0-1.1-0.6-2.6-2-2.6    C547.5,245.5,546.9,246.9,546.9,248.2z"/>
		<path class="st6" d="M553.6,250.3c0.4,0.2,1,0.5,1.6,0.5c0.9,0,1.3-0.4,1.3-1c0-0.6-0.4-0.9-1.3-1.2c-1.2-0.4-1.8-1.1-1.8-1.9    c0-1.1,0.9-2,2.3-2c0.7,0,1.3,0.2,1.7,0.4l-0.3,0.9c-0.3-0.2-0.8-0.4-1.4-0.4c-0.7,0-1.1,0.4-1.1,0.9c0,0.6,0.4,0.8,1.3,1.1    c1.2,0.4,1.8,1,1.8,2c0,1.2-0.9,2-2.5,2c-0.7,0-1.4-0.2-1.9-0.5L553.6,250.3z"/>
		<path class="st6" d="M560.8,242.8v1.9h1.8v0.9h-1.8v3.7c0,0.8,0.2,1.3,0.9,1.3c0.3,0,0.6,0,0.7-0.1l0.1,0.9    c-0.2,0.1-0.6,0.2-1.1,0.2c-0.6,0-1-0.2-1.3-0.5c-0.4-0.4-0.5-1-0.5-1.8v-3.7h-1.1v-0.9h1.1v-1.6L560.8,242.8z"/>
		<path class="st6" d="M568.4,242.8v1.9h1.8v0.9h-1.8v3.7c0,0.8,0.2,1.3,0.9,1.3c0.3,0,0.6,0,0.7-0.1l0.1,0.9    c-0.2,0.1-0.6,0.2-1.1,0.2c-0.6,0-1-0.2-1.3-0.5c-0.4-0.4-0.5-1-0.5-1.8v-3.7h-1.1v-0.9h1.1v-1.6L568.4,242.8z"/>
		<path class="st6" d="M571.6,246.9c0-0.8,0-1.5-0.1-2.1h1.1l0,1.3h0.1c0.3-0.9,1.1-1.5,1.9-1.5c0.1,0,0.2,0,0.3,0v1.2    c-0.1,0-0.3,0-0.4,0c-0.9,0-1.5,0.7-1.7,1.6c0,0.2-0.1,0.4-0.1,0.6v3.6h-1.2V246.9z"/>
		<path class="st6" d="M579.8,251.5l-0.1-0.9h0c-0.4,0.5-1.1,1-2.1,1c-1.4,0-2.1-1-2.1-1.9c0-1.6,1.5-2.5,4.1-2.5v-0.1    c0-0.6-0.2-1.6-1.5-1.6c-0.6,0-1.3,0.2-1.8,0.5l-0.3-0.8c0.6-0.4,1.4-0.6,2.2-0.6c2.1,0,2.6,1.4,2.6,2.8v2.5c0,0.6,0,1.2,0.1,1.6    H579.8z M579.6,248.1c-1.3,0-2.9,0.2-2.9,1.5c0,0.8,0.5,1.2,1.2,1.2c0.9,0,1.4-0.6,1.6-1.1c0-0.1,0.1-0.3,0.1-0.4V248.1z"/>
		<path class="st6" d="M588.7,241.6v8.2c0,0.6,0,1.3,0.1,1.8h-1.1l-0.1-1.2h0c-0.4,0.8-1.2,1.3-2.3,1.3c-1.6,0-2.9-1.4-2.9-3.4    c0-2.3,1.4-3.6,3-3.6c1,0,1.7,0.5,2,1h0v-4H588.7z M587.4,247.5c0-0.2,0-0.4-0.1-0.5c-0.2-0.8-0.9-1.4-1.8-1.4c-1.3,0-2,1.1-2,2.6    c0,1.4,0.7,2.5,2,2.5c0.8,0,1.6-0.5,1.8-1.5c0-0.2,0.1-0.3,0.1-0.5V247.5z"/>
		<path class="st6" d="M591.4,248.4c0,1.7,1.1,2.4,2.3,2.4c0.9,0,1.4-0.2,1.9-0.3l0.2,0.9c-0.4,0.2-1.2,0.4-2.3,0.4    c-2.1,0-3.3-1.4-3.3-3.4s1.2-3.7,3.2-3.7c2.2,0,2.8,1.9,2.8,3.2c0,0.3,0,0.4,0,0.6H591.4z M595,247.5c0-0.8-0.3-2-1.7-2    c-1.2,0-1.8,1.1-1.9,2H595z"/>
		<path class="st6" d="M601,247.3v0.9h-3.5v-0.9H601z"/>
		<path class="st6" d="M608.8,248.1c0,2.5-1.7,3.6-3.4,3.6c-1.8,0-3.3-1.3-3.3-3.5c0-2.3,1.5-3.6,3.4-3.6    C607.5,244.6,608.8,246,608.8,248.1z M603.4,248.2c0,1.5,0.9,2.6,2.1,2.6c1.2,0,2.1-1.1,2.1-2.6c0-1.1-0.6-2.6-2-2.6    S603.4,246.9,603.4,248.2z"/>
		<path class="st6" d="M614.6,251.5v-5.8h-2.8v5.8h-1.2v-5.8h-1v-0.9h1v-0.2c0-1,0.2-1.8,0.8-2.3c0.4-0.4,1-0.6,1.7-0.6    c0.4,0,0.8,0.1,1,0.2l-0.3,0.9c-0.2-0.1-0.4-0.2-0.7-0.2c-1,0-1.2,0.8-1.2,1.9v0.3h2.8v-0.3c0-1,0.2-1.8,0.8-2.4    c0.5-0.4,1.1-0.6,1.6-0.6c0.4,0,0.8,0.1,1.1,0.2l-0.2,1c-0.2-0.1-0.4-0.2-0.8-0.2c-1,0-1.3,0.9-1.3,2v0.4h1.6v0.9h-1.6v5.8H614.6z    "/>
		<path class="st6" d="M617.8,250.8c0-0.5,0.4-0.9,0.8-0.9s0.8,0.4,0.8,0.9c0,0.5-0.3,0.9-0.8,0.9    C618.1,251.7,617.8,251.3,617.8,250.8z"/>
	</g>
</g>
<g>
	<g>
		<path class="st6" d="M440.7,290.6l-1,3h-1.3l3.2-9.4h1.5l3.2,9.4h-1.3l-1-3H440.7z M443.8,289.6l-0.9-2.7    c-0.2-0.6-0.4-1.2-0.5-1.7h0c-0.1,0.6-0.3,1.1-0.5,1.7l-0.9,2.7H443.8z"/>
		<path class="st6" d="M447.7,283.6h1.2v9.9h-1.2V283.6z"/>
		<path class="st6" d="M452.3,284.9c0,0.4-0.3,0.8-0.8,0.8c-0.4,0-0.7-0.3-0.7-0.8c0-0.4,0.3-0.8,0.8-0.8    C452,284.1,452.3,284.4,452.3,284.9z M451,293.6v-6.8h1.2v6.8H451z"/>
		<path class="st6" d="M460.1,286.8c0,0.5-0.1,1-0.1,1.9v3.9c0,1.6-0.3,2.5-1,3.1c-0.7,0.6-1.6,0.8-2.5,0.8c-0.8,0-1.7-0.2-2.3-0.6    l0.3-0.9c0.4,0.3,1.1,0.5,2,0.5c1.3,0,2.2-0.7,2.2-2.4v-0.8h0c-0.4,0.6-1.1,1.1-2.2,1.1c-1.7,0-2.9-1.4-2.9-3.3    c0-2.3,1.5-3.6,3.1-3.6c1.2,0,1.8,0.6,2.1,1.2h0l0.1-1H460.1z M458.8,289.4c0-0.2,0-0.4-0.1-0.6c-0.2-0.7-0.8-1.3-1.7-1.3    c-1.2,0-2,1-2,2.6c0,1.3,0.7,2.4,2,2.4c0.8,0,1.4-0.5,1.7-1.3c0.1-0.2,0.1-0.4,0.1-0.7V289.4z"/>
		<path class="st6" d="M462,288.6c0-0.7,0-1.3-0.1-1.8h1.1l0.1,1.1h0c0.3-0.6,1.1-1.3,2.2-1.3c0.9,0,2.4,0.6,2.4,2.9v4h-1.2v-3.9    c0-1.1-0.4-2-1.6-2c-0.8,0-1.4,0.6-1.7,1.3c-0.1,0.2-0.1,0.4-0.1,0.6v4.1H462V288.6z"/>
		<path class="st6" d="M474.2,284.8v1.9h1.8v0.9h-1.8v3.7c0,0.8,0.2,1.3,0.9,1.3c0.3,0,0.6,0,0.7-0.1l0.1,0.9    c-0.2,0.1-0.6,0.2-1.1,0.2c-0.6,0-1-0.2-1.3-0.5c-0.4-0.4-0.5-1-0.5-1.8v-3.7h-1.1v-0.9h1.1v-1.6L474.2,284.8z"/>
		<path class="st6" d="M477.3,283.6h1.2v4.2h0c0.2-0.4,0.5-0.7,0.9-0.9c0.4-0.2,0.8-0.3,1.3-0.3c0.9,0,2.4,0.6,2.4,2.9v4h-1.2v-3.9    c0-1.1-0.4-2-1.6-2c-0.8,0-1.4,0.6-1.7,1.2c-0.1,0.2-0.1,0.4-0.1,0.6v4.1h-1.2V283.6z"/>
		<path class="st6" d="M485.8,290.4c0,1.7,1.1,2.4,2.3,2.4c0.9,0,1.4-0.2,1.9-0.4l0.2,0.9c-0.4,0.2-1.2,0.4-2.3,0.4    c-2.1,0-3.3-1.4-3.3-3.4s1.2-3.7,3.2-3.7c2.2,0,2.8,1.9,2.8,3.2c0,0.3,0,0.4,0,0.6H485.8z M489.4,289.5c0-0.8-0.3-2-1.7-2    c-1.2,0-1.8,1.1-1.9,2H489.4z"/>
		<path class="st6" d="M495.6,286.8l0.9,3.4c0.2,0.8,0.4,1.5,0.5,2.2h0c0.2-0.7,0.4-1.4,0.6-2.1l1.1-3.5h1l1,3.4    c0.3,0.8,0.4,1.5,0.6,2.2h0c0.1-0.7,0.3-1.4,0.5-2.2l1-3.4h1.2l-2.2,6.8h-1.1l-1-3.2c-0.2-0.8-0.4-1.4-0.6-2.2h0    c-0.2,0.8-0.4,1.5-0.6,2.2l-1.1,3.2h-1.1l-2-6.8H495.6z"/>
		<path class="st6" d="M505.4,283.6h1.2v4.2h0c0.2-0.4,0.5-0.7,0.9-0.9c0.4-0.2,0.8-0.3,1.3-0.3c0.9,0,2.4,0.6,2.4,2.9v4h-1.2v-3.9    c0-1.1-0.4-2-1.6-2c-0.8,0-1.4,0.6-1.7,1.2c-0.1,0.2-0.1,0.4-0.1,0.6v4.1h-1.2V283.6z"/>
		<path class="st6" d="M519.3,290.1c0,2.5-1.7,3.6-3.4,3.6c-1.8,0-3.3-1.3-3.3-3.5c0-2.3,1.5-3.6,3.4-3.6    C518,286.6,519.3,288,519.3,290.1z M513.9,290.2c0,1.5,0.9,2.6,2.1,2.6c1.2,0,2.1-1.1,2.1-2.6c0-1.1-0.6-2.6-2-2.6    C514.6,287.5,513.9,288.9,513.9,290.2z"/>
		<path class="st6" d="M520.9,283.6h1.2v9.9h-1.2V283.6z"/>
		<path class="st6" d="M524.9,290.4c0,1.7,1.1,2.4,2.3,2.4c0.9,0,1.4-0.2,1.9-0.4l0.2,0.9c-0.4,0.2-1.2,0.4-2.3,0.4    c-2.1,0-3.3-1.4-3.3-3.4s1.2-3.7,3.2-3.7c2.2,0,2.8,1.9,2.8,3.2c0,0.3,0,0.4,0,0.6H524.9z M528.5,289.5c0-0.8-0.3-2-1.7-2    c-1.2,0-1.8,1.1-1.9,2H528.5z"/>
		<path class="st6" d="M534,292.3c0.4,0.2,1,0.5,1.6,0.5c0.9,0,1.3-0.4,1.3-1c0-0.6-0.3-0.9-1.3-1.2c-1.2-0.4-1.8-1.1-1.8-1.9    c0-1.1,0.9-2,2.3-2c0.7,0,1.3,0.2,1.7,0.4l-0.3,0.9c-0.3-0.2-0.8-0.4-1.4-0.4c-0.7,0-1.1,0.4-1.1,0.9c0,0.6,0.4,0.8,1.3,1.1    c1.2,0.4,1.8,1,1.8,2c0,1.2-0.9,2-2.5,2c-0.7,0-1.4-0.2-1.9-0.5L534,292.3z"/>
		<path class="st6" d="M540.1,286.8l1.5,4c0.2,0.4,0.3,1,0.4,1.4h0c0.1-0.4,0.3-0.9,0.4-1.4l1.3-4h1.3l-1.8,4.8    c-0.9,2.3-1.5,3.5-2.3,4.2c-0.6,0.5-1.2,0.7-1.5,0.8l-0.3-1c0.3-0.1,0.7-0.3,1.1-0.6c0.3-0.3,0.8-0.7,1-1.4    c0.1-0.1,0.1-0.2,0.1-0.3s0-0.2-0.1-0.3l-2.5-6.2H540.1z"/>
		<path class="st6" d="M546,292.3c0.4,0.2,1,0.5,1.6,0.5c0.9,0,1.3-0.4,1.3-1c0-0.6-0.4-0.9-1.3-1.2c-1.2-0.4-1.8-1.1-1.8-1.9    c0-1.1,0.9-2,2.3-2c0.7,0,1.3,0.2,1.7,0.4l-0.3,0.9c-0.3-0.2-0.8-0.4-1.4-0.4c-0.7,0-1.1,0.4-1.1,0.9c0,0.6,0.4,0.8,1.3,1.1    c1.2,0.4,1.8,1,1.8,2c0,1.2-0.9,2-2.5,2c-0.7,0-1.4-0.2-1.9-0.5L546,292.3z"/>
		<path class="st6" d="M553.2,284.8v1.9h1.8v0.9h-1.8v3.7c0,0.8,0.2,1.3,0.9,1.3c0.3,0,0.6,0,0.7-0.1l0.1,0.9    c-0.2,0.1-0.6,0.2-1.1,0.2c-0.6,0-1-0.2-1.3-0.5c-0.4-0.4-0.5-1-0.5-1.8v-3.7H551v-0.9h1.1v-1.6L553.2,284.8z"/>
		<path class="st6" d="M557,290.4c0,1.7,1.1,2.4,2.3,2.4c0.9,0,1.4-0.2,1.9-0.4l0.2,0.9c-0.4,0.2-1.2,0.4-2.3,0.4    c-2.1,0-3.3-1.4-3.3-3.4s1.2-3.7,3.2-3.7c2.2,0,2.8,1.9,2.8,3.2c0,0.3,0,0.4,0,0.6H557z M560.6,289.5c0-0.8-0.3-2-1.7-2    c-1.2,0-1.8,1.1-1.9,2H560.6z"/>
		<path class="st6" d="M563.3,288.6c0-0.7,0-1.3-0.1-1.8h1.1l0.1,1.1h0c0.4-0.6,1-1.2,2.1-1.2c0.9,0,1.6,0.6,1.9,1.4h0    c0.2-0.4,0.5-0.7,0.8-0.9c0.4-0.3,0.9-0.5,1.5-0.5c0.9,0,2.2,0.6,2.2,2.9v4h-1.2v-3.8c0-1.3-0.5-2.1-1.5-2.1    c-0.7,0-1.2,0.5-1.5,1.1c-0.1,0.2-0.1,0.4-0.1,0.6v4.2h-1.2v-4.1c0-1.1-0.5-1.9-1.4-1.9c-0.8,0-1.3,0.6-1.5,1.2    c-0.1,0.2-0.1,0.4-0.1,0.6v4.1h-1.2V288.6z"/>
		<path class="st6" d="M584.1,290.1c0,2.5-1.7,3.6-3.4,3.6c-1.8,0-3.3-1.3-3.3-3.5c0-2.3,1.5-3.6,3.4-3.6    C582.8,286.6,584.1,288,584.1,290.1z M578.7,290.2c0,1.5,0.9,2.6,2.1,2.6c1.2,0,2.1-1.1,2.1-2.6c0-1.1-0.6-2.6-2-2.6    C579.3,287.5,578.7,288.9,578.7,290.2z"/>
		<path class="st6" d="M585.8,293.6v-5.8h-1v-0.9h1v-0.3c0-1,0.2-1.8,0.8-2.4c0.5-0.4,1.1-0.6,1.7-0.6c0.4,0,0.8,0.1,1.1,0.2l-0.2,1    c-0.2-0.1-0.4-0.2-0.8-0.2c-1.1,0-1.3,0.9-1.3,2v0.4h1.6v0.9H587v5.8H585.8z"/>
		<path class="st6" d="M596.4,293.6l-0.1-0.9h0c-0.4,0.5-1.1,1-2.1,1c-1.4,0-2.1-1-2.1-1.9c0-1.6,1.5-2.5,4.1-2.5v-0.1    c0-0.6-0.2-1.6-1.5-1.6c-0.6,0-1.3,0.2-1.8,0.5l-0.3-0.8c0.6-0.4,1.4-0.6,2.2-0.6c2.1,0,2.6,1.4,2.6,2.8v2.5c0,0.6,0,1.2,0.1,1.6    H596.4z M596.3,290.1c-1.3,0-2.9,0.2-2.9,1.5c0,0.8,0.5,1.2,1.2,1.2c0.9,0,1.4-0.6,1.6-1.1c0-0.1,0.1-0.3,0.1-0.4V290.1z"/>
		<path class="st6" d="M602.5,293.6v-5.8h-1v-0.9h1v-0.4c0-1.8,1.1-3,3-3c0.6,0,1.4,0.2,1.7,0.4l-0.3,0.9c-0.3-0.2-0.8-0.4-1.4-0.4    c-1.3,0-1.7,0.9-1.7,2v0.3h3.9v6.8h-1.2v-5.8h-2.7v5.8H602.5z"/>
		<path class="st6" d="M609.7,288.9c0-0.8,0-1.5-0.1-2.1h1.1l0,1.3h0.1c0.3-0.9,1.1-1.5,1.9-1.5c0.1,0,0.2,0,0.4,0v1.2    c-0.1,0-0.3,0-0.4,0c-0.9,0-1.5,0.7-1.7,1.6c0,0.2-0.1,0.4-0.1,0.6v3.6h-1.2V288.9z"/>
		<path class="st6" d="M614.4,288.6c0-0.7,0-1.3-0.1-1.8h1.1l0.1,1.1h0c0.4-0.6,1-1.2,2.1-1.2c0.9,0,1.6,0.6,1.9,1.4h0    c0.2-0.4,0.5-0.7,0.8-0.9c0.4-0.3,0.9-0.5,1.5-0.5c0.9,0,2.2,0.6,2.2,2.9v4h-1.2v-3.8c0-1.3-0.5-2.1-1.5-2.1    c-0.7,0-1.2,0.5-1.5,1.1c-0.1,0.2-0.1,0.4-0.1,0.6v4.2h-1.2v-4.1c0-1.1-0.5-1.9-1.4-1.9c-0.8,0-1.3,0.6-1.5,1.2    c-0.1,0.2-0.1,0.4-0.1,0.6v4.1h-1.2V288.6z"/>
		<path class="st6" d="M627.1,284c-0.3,1.2-0.9,2.7-1.3,3.3l-0.8,0.1c0.3-0.8,0.7-2.3,0.8-3.3L627.1,284z"/>
		<path class="st6" d="M627.3,292.3c0.4,0.2,1,0.5,1.6,0.5c0.9,0,1.3-0.4,1.3-1c0-0.6-0.4-0.9-1.3-1.2c-1.2-0.4-1.8-1.1-1.8-1.9    c0-1.1,0.9-2,2.3-2c0.7,0,1.3,0.2,1.7,0.4l-0.3,0.9c-0.3-0.2-0.8-0.4-1.4-0.4c-0.7,0-1.1,0.4-1.1,0.9c0,0.6,0.4,0.8,1.3,1.1    c1.2,0.4,1.8,1,1.8,2c0,1.2-0.9,2-2.5,2c-0.7,0-1.4-0.2-1.9-0.5L627.3,292.3z"/>
		<path class="st6" d="M639.7,293.6l-0.1-0.9h0c-0.4,0.5-1.1,1-2.1,1c-1.4,0-2.1-1-2.1-1.9c0-1.6,1.5-2.5,4.1-2.5v-0.1    c0-0.6-0.2-1.6-1.5-1.6c-0.6,0-1.3,0.2-1.8,0.5l-0.3-0.8c0.6-0.4,1.4-0.6,2.2-0.6c2.1,0,2.6,1.4,2.6,2.8v2.5c0,0.6,0,1.2,0.1,1.6    H639.7z M639.6,290.1c-1.3,0-2.9,0.2-2.9,1.5c0,0.8,0.5,1.2,1.2,1.2c0.9,0,1.4-0.6,1.6-1.1c0-0.1,0.1-0.3,0.1-0.4V290.1z"/>
		<path class="st6" d="M647.6,293.3c-0.3,0.2-1,0.4-1.9,0.4c-2,0-3.4-1.4-3.4-3.5c0-2.1,1.4-3.6,3.6-3.6c0.7,0,1.4,0.2,1.7,0.3    l-0.3,1c-0.3-0.2-0.8-0.3-1.4-0.3c-1.6,0-2.4,1.1-2.4,2.6c0,1.6,1,2.5,2.4,2.5c0.7,0,1.2-0.2,1.5-0.3L647.6,293.3z"/>
		<path class="st6" d="M650.7,284.8v1.9h1.8v0.9h-1.8v3.7c0,0.8,0.2,1.3,0.9,1.3c0.3,0,0.6,0,0.7-0.1l0.1,0.9    c-0.2,0.1-0.6,0.2-1.1,0.2c-0.6,0-1-0.2-1.3-0.5c-0.3-0.4-0.5-1-0.5-1.8v-3.7h-1.1v-0.9h1.1v-1.6L650.7,284.8z"/>
		<path class="st6" d="M655.2,284.9c0,0.4-0.3,0.8-0.8,0.8c-0.4,0-0.7-0.3-0.7-0.8c0-0.4,0.3-0.8,0.8-0.8    C654.9,284.1,655.2,284.4,655.2,284.9z M653.8,293.6v-6.8h1.2v6.8H653.8z"/>
		<path class="st6" d="M657.6,286.8l1.3,3.8c0.2,0.6,0.4,1.2,0.5,1.7h0c0.2-0.6,0.4-1.1,0.6-1.7l1.3-3.8h1.3l-2.7,6.8h-1.2l-2.6-6.8    H657.6z"/>
		<path class="st6" d="M665.2,284.9c0,0.4-0.3,0.8-0.8,0.8c-0.4,0-0.7-0.3-0.7-0.8c0-0.4,0.3-0.8,0.8-0.8    C664.9,284.1,665.2,284.4,665.2,284.9z M663.8,293.6v-6.8h1.2v6.8H663.8z"/>
		<path class="st6" d="M668.6,284.8v1.9h1.8v0.9h-1.8v3.7c0,0.8,0.2,1.3,0.9,1.3c0.3,0,0.6,0,0.7-0.1l0.1,0.9    c-0.2,0.1-0.6,0.2-1.1,0.2c-0.6,0-1-0.2-1.3-0.5c-0.3-0.4-0.5-1-0.5-1.8v-3.7h-1.1v-0.9h1.1v-1.6L668.6,284.8z"/>
		<path class="st6" d="M673.1,284.9c0,0.4-0.3,0.8-0.8,0.8c-0.4,0-0.7-0.3-0.7-0.8c0-0.4,0.3-0.8,0.8-0.8    C672.8,284.1,673.1,284.4,673.1,284.9z M671.7,293.6v-6.8h1.2v6.8H671.7z"/>
		<path class="st6" d="M675.7,290.4c0,1.7,1.1,2.4,2.3,2.4c0.9,0,1.4-0.2,1.9-0.4l0.2,0.9c-0.4,0.2-1.2,0.4-2.3,0.4    c-2.1,0-3.3-1.4-3.3-3.4s1.2-3.7,3.2-3.7c2.2,0,2.8,1.9,2.8,3.2c0,0.3,0,0.4,0,0.6H675.7z M679.3,289.5c0-0.8-0.3-2-1.7-2    c-1.2,0-1.8,1.1-1.9,2H679.3z"/>
		<path class="st6" d="M681.9,292.3c0.4,0.2,1,0.5,1.6,0.5c0.9,0,1.3-0.4,1.3-1c0-0.6-0.4-0.9-1.3-1.2c-1.2-0.4-1.8-1.1-1.8-1.9    c0-1.1,0.9-2,2.3-2c0.7,0,1.3,0.2,1.7,0.4l-0.3,0.9c-0.3-0.2-0.8-0.4-1.4-0.4c-0.7,0-1.1,0.4-1.1,0.9c0,0.6,0.4,0.8,1.3,1.1    c1.2,0.4,1.8,1,1.8,2c0,1.2-0.9,2-2.5,2c-0.7,0-1.4-0.2-1.9-0.5L681.9,292.3z"/>
		<path class="st6" d="M440.5,301.7c0,0.4-0.3,0.8-0.8,0.8c-0.4,0-0.7-0.3-0.7-0.8c0-0.4,0.3-0.8,0.8-0.8    C440.2,300.9,440.5,301.2,440.5,301.7z M439.1,310.4v-6.8h1.2v6.8H439.1z"/>
		<path class="st6" d="M442.4,305.4c0-0.7,0-1.3-0.1-1.8h1.1l0.1,1.1h0c0.3-0.6,1.1-1.3,2.2-1.3c0.9,0,2.4,0.6,2.4,2.9v4h-1.2v-3.9    c0-1.1-0.4-2-1.6-2c-0.8,0-1.4,0.6-1.7,1.3c-0.1,0.2-0.1,0.4-0.1,0.6v4.1h-1.2V305.4z"/>
		<path class="st6" d="M453.1,303.5h1.9v0.9h0c0.3-0.5,1.1-1.1,2.1-1.1c2,0,3.3,1.5,3.3,3.5c0,1.9-1.2,3.6-3.1,3.6    c-0.9,0-1.7-0.2-2.2-0.9h0v3.9h-2.1V303.5z M456.7,308.7c1.1,0,1.7-0.7,1.7-1.7s-0.6-1.7-1.7-1.7s-1.7,0.7-1.7,1.7    S455.6,308.7,456.7,308.7z"/>
		<path class="st6" d="M468.2,310.4h-2v-0.9h0c-0.3,0.5-1,1.1-2,1.1c-2.1,0-2.5-1.4-2.5-3.2v-3.8h2.1v3.3c0,0.8,0,1.8,1.1,1.8    c1.1,0,1.3-0.9,1.3-1.7v-3.4h2.1V310.4z"/>
		<path class="st6" d="M469.7,303.5h2.1v1.1h0c0.4-0.8,1-1.3,2-1.3c0.2,0,0.5,0,0.7,0.1v1.9c-0.3-0.1-0.6-0.1-0.9-0.1    c-1.6,0-1.8,0.9-1.8,2.3v2.8h-2.1V303.5z"/>
		<path class="st6" d="M479.3,305.5c-0.3-0.4-0.7-0.6-1.2-0.6c-0.3,0-0.8,0.2-0.8,0.6c0,1,3.5,0.2,3.5,2.7c0,1.7-1.7,2.2-3.1,2.2    c-1,0-2-0.2-2.7-0.9l1.3-1.4c0.4,0.5,0.9,0.7,1.5,0.7c0.5,0,1-0.1,1-0.5c0-1.1-3.5-0.2-3.5-2.8c0-1.6,1.4-2.3,2.9-2.3    c0.9,0,1.9,0.2,2.5,0.9L479.3,305.5z"/>
		<path class="st6" d="M488.5,310.4h-2v-0.9h0c-0.3,0.5-1,1.1-2,1.1c-2.1,0-2.5-1.4-2.5-3.2v-3.8h2.1v3.3c0,0.8,0,1.8,1.1,1.8    c1.1,0,1.3-0.9,1.3-1.7v-3.4h2.1V310.4z"/>
		<path class="st6" d="M491,300.2c0.7,0,1.2,0.5,1.2,1.2s-0.5,1.2-1.2,1.2s-1.2-0.5-1.2-1.2S490.3,300.2,491,300.2z M490,303.5h2.1    v6.8H490V303.5z"/>
		<path class="st6" d="M498.2,305.2h-1.8v2.3c0,0.7,0.1,1.3,1,1.3c0.2,0,0.7,0,0.9-0.2v1.8c-0.5,0.2-1,0.2-1.5,0.2    c-1.4,0-2.5-0.6-2.5-2.1v-3.2h-1.3v-1.7h1.3v-2h2.1v2h1.8V305.2z"/>
		<path class="st6" d="M506.9,303.4c2.1,0,3.8,1.4,3.8,3.6s-1.7,3.6-3.8,3.6s-3.8-1.4-3.8-3.6S504.8,303.4,506.9,303.4z     M506.9,308.7c1.1,0,1.7-0.7,1.7-1.7s-0.6-1.7-1.7-1.7s-1.7,0.7-1.7,1.7S505.9,308.7,506.9,308.7z"/>
		<path class="st6" d="M512.7,305.2h-1.4v-1.7h1.4v-1.2c0-1.5,0.4-2.7,2.7-2.7c0.4,0,0.8,0,1.2,0.1l-0.1,1.8    c-0.2-0.1-0.4-0.1-0.7-0.1c-0.7,0-1,0.2-1,1.1v1.1h1.6v1.7h-1.6v5.1h-2.1V305.2z"/>
		<path class="st6" d="M528.4,310.4h-1.9v-0.9h0c-0.3,0.5-1.1,1.1-2.1,1.1c-2,0-3.3-1.5-3.3-3.5c0-1.9,1.2-3.6,3.1-3.6    c0.9,0,1.7,0.2,2.2,0.9h0v-4.5h2.1V310.4z M524.8,305.2c-1.1,0-1.7,0.7-1.7,1.7s0.6,1.7,1.7,1.7s1.7-0.7,1.7-1.7    S525.9,305.2,524.8,305.2z"/>
		<path class="st6" d="M531.2,300.2c0.7,0,1.2,0.5,1.2,1.2s-0.5,1.2-1.2,1.2c-0.7,0-1.2-0.5-1.2-1.2S530.5,300.2,531.2,300.2z     M530.1,303.5h2.1v6.8h-2.1V303.5z"/>
		<path class="st6" d="M534.5,305.2h-1.4v-1.7h1.4v-1.2c0-1.5,0.4-2.7,2.7-2.7c0.4,0,0.8,0,1.2,0.1l-0.1,1.8    c-0.2-0.1-0.4-0.1-0.7-0.1c-0.7,0-1,0.2-1,1.1v1.1h1.6v1.7h-1.6v5.1h-2.1V305.2z"/>
		<path class="st6" d="M539.4,305.2H538v-1.7h1.4v-1.2c0-1.5,0.4-2.7,2.7-2.7c0.4,0,0.8,0,1.2,0.1l-0.1,1.8    c-0.2-0.1-0.4-0.1-0.7-0.1c-0.7,0-1,0.2-1,1.1v1.1h1.6v1.7h-1.6v5.1h-2.1V305.2z"/>
		<path class="st6" d="M550.3,309.2c-0.7,0.9-1.8,1.3-2.9,1.3c-2.1,0-3.8-1.4-3.8-3.6s1.7-3.6,3.8-3.6c2,0,3.2,1.4,3.2,3.6v0.7h-4.9    c0.2,0.8,0.8,1.3,1.6,1.3c0.7,0,1.1-0.4,1.5-0.8L550.3,309.2z M548.5,306.2c0-0.7-0.5-1.3-1.3-1.3c-0.9,0-1.4,0.6-1.5,1.3H548.5z"/>
		<path class="st6" d="M551.9,303.5h2.1v1.1h0c0.4-0.8,1-1.3,2-1.3c0.2,0,0.5,0,0.7,0.1v1.9c-0.3-0.1-0.6-0.1-0.9-0.1    c-1.6,0-1.8,0.9-1.8,2.3v2.8h-2.1V303.5z"/>
		<path class="st6" d="M563.8,309.2c-0.7,0.9-1.8,1.3-2.9,1.3c-2.1,0-3.8-1.4-3.8-3.6s1.7-3.6,3.8-3.6c2,0,3.2,1.4,3.2,3.6v0.7h-4.9    c0.2,0.8,0.8,1.3,1.6,1.3c0.7,0,1.1-0.4,1.5-0.8L563.8,309.2z M562,306.2c0-0.7-0.5-1.3-1.3-1.3c-0.9,0-1.4,0.6-1.5,1.3H562z"/>
		<path class="st6" d="M565.4,303.5h2v0.9h0c0.3-0.5,1-1.1,2-1.1c2.1,0,2.5,1.4,2.5,3.2v3.8h-2.1V307c0-0.8,0-1.8-1.1-1.8    c-1.1,0-1.3,0.9-1.3,1.7v3.4h-2.1V303.5z"/>
		<path class="st6" d="M578,305.2h-1.8v2.3c0,0.7,0.1,1.3,1,1.3c0.2,0,0.7,0,0.9-0.2v1.8c-0.5,0.2-1,0.2-1.5,0.2    c-1.4,0-2.5-0.6-2.5-2.1v-3.2h-1.3v-1.7h1.3v-2h2.1v2h1.8V305.2z"/>
		<path class="st6" d="M580.2,300.2c0.7,0,1.2,0.5,1.2,1.2s-0.5,1.2-1.2,1.2s-1.2-0.5-1.2-1.2S579.5,300.2,580.2,300.2z     M579.1,303.5h2.1v6.8h-2.1V303.5z"/>
		<path class="st6" d="M587,309.5L587,309.5c-0.5,0.7-1.3,1-2.2,1c-1.3,0-2.4-0.7-2.4-2.1c0-2.4,2.9-2.4,4.6-2.4    c0-0.7-0.6-1.2-1.3-1.2c-0.7,0-1.3,0.3-1.7,0.8l-1.1-1.1c0.8-0.7,1.9-1.1,3-1.1c2.5,0,3.1,1.2,3.1,3.5v3.5H587V309.5z     M586.5,307.4c-0.6,0-2.1,0.1-2.1,1c0,0.5,0.5,0.7,1,0.7c0.8,0,1.6-0.4,1.6-1.3v-0.4H586.5z"/>
		<path class="st6" d="M594.9,305.2H593v2.3c0,0.7,0.1,1.3,1,1.3c0.2,0,0.7,0,0.9-0.2v1.8c-0.5,0.2-1,0.2-1.5,0.2    c-1.4,0-2.5-0.6-2.5-2.1v-3.2h-1.3v-1.7h1.3v-2h2.1v2h1.8V305.2z"/>
		<path class="st6" d="M597,300.2c0.7,0,1.2,0.5,1.2,1.2s-0.5,1.2-1.2,1.2s-1.2-0.5-1.2-1.2S596.4,300.2,597,300.2z M596,303.5h2.1    v6.8H596V303.5z"/>
		<path class="st6" d="M603.1,303.4c2.1,0,3.8,1.4,3.8,3.6s-1.7,3.6-3.8,3.6s-3.8-1.4-3.8-3.6S601,303.4,603.1,303.4z M603.1,308.7    c1,0,1.7-0.7,1.7-1.7s-0.6-1.7-1.7-1.7c-1.1,0-1.7,0.7-1.7,1.7S602.1,308.7,603.1,308.7z"/>
		<path class="st6" d="M608.1,303.5h2v0.9h0c0.3-0.5,1-1.1,2-1.1c2.1,0,2.5,1.4,2.5,3.2v3.8h-2.1V307c0-0.8,0-1.8-1.1-1.8    c-1.1,0-1.3,0.9-1.3,1.7v3.4h-2.1V303.5z"/>
		<path class="st6" d="M624.6,309.5L624.6,309.5c-0.5,0.7-1.3,1-2.2,1c-1.3,0-2.4-0.7-2.4-2.1c0-2.4,2.9-2.4,4.6-2.4    c0-0.7-0.6-1.2-1.3-1.2c-0.7,0-1.3,0.3-1.7,0.8l-1.1-1.1c0.8-0.7,1.9-1.1,3-1.1c2.5,0,3.1,1.2,3.1,3.5v3.5h-1.9V309.5z     M624.1,307.4c-0.6,0-2.1,0.1-2.1,1c0,0.5,0.5,0.7,1,0.7c0.8,0,1.6-0.4,1.6-1.3v-0.4H624.1z"/>
		<path class="st6" d="M627.8,303.5h2v0.9h0c0.3-0.5,1-1.1,2-1.1c2.1,0,2.5,1.4,2.5,3.2v3.8h-2.1V307c0-0.8,0-1.8-1.1-1.8    c-1.1,0-1.3,0.9-1.3,1.7v3.4h-2.1V303.5z"/>
		<path class="st6" d="M643,310.4h-1.9v-0.9h0c-0.3,0.5-1.1,1.1-2.1,1.1c-2,0-3.3-1.5-3.3-3.5c0-1.9,1.2-3.6,3.1-3.6    c0.9,0,1.7,0.2,2.2,0.9h0v-4.5h2.1V310.4z M639.4,305.2c-1.1,0-1.7,0.7-1.7,1.7s0.6,1.7,1.7,1.7s1.7-0.7,1.7-1.7    S640.4,305.2,639.4,305.2z"/>
		<path class="st6" d="M648.9,299.8h2.1v10.6h-2.1V299.8z"/>
		<path class="st6" d="M656,303.4c2.1,0,3.8,1.4,3.8,3.6s-1.7,3.6-3.8,3.6s-3.8-1.4-3.8-3.6S653.9,303.4,656,303.4z M656,308.7    c1,0,1.7-0.7,1.7-1.7s-0.6-1.7-1.7-1.7c-1.1,0-1.7,0.7-1.7,1.7S655,308.7,656,308.7z"/>
		<path class="st6" d="M660.2,303.5h2.2l1.4,4.3h0l1.2-4.3h2.3l1.3,4.3h0l1.3-4.3h2.1l-2.4,6.8h-2.1l-1.4-4.5h0l-1.3,4.5h-2.1    L660.2,303.5z"/>
		<path class="st6" d="M681.4,305.7c-0.2-0.3-0.6-0.5-1-0.5c-1.1,0-1.7,0.7-1.7,1.7s0.6,1.7,1.7,1.7c0.5,0,0.8-0.2,1-0.5l1.4,1.5    c-0.7,0.7-1.6,0.9-2.4,0.9c-2.1,0-3.8-1.4-3.8-3.6s1.7-3.6,3.8-3.6c0.8,0,1.8,0.2,2.4,0.9L681.4,305.7z"/>
		<path class="st6" d="M687.1,303.4c2.1,0,3.8,1.4,3.8,3.6s-1.7,3.6-3.8,3.6c-2.1,0-3.8-1.4-3.8-3.6S685,303.4,687.1,303.4z     M687.1,308.7c1.1,0,1.7-0.7,1.7-1.7s-0.6-1.7-1.7-1.7s-1.7,0.7-1.7,1.7S686,308.7,687.1,308.7z"/>
		<path class="st6" d="M696,305.5c-0.3-0.4-0.7-0.6-1.2-0.6c-0.4,0-0.8,0.2-0.8,0.6c0,1,3.5,0.2,3.5,2.7c0,1.7-1.7,2.2-3.1,2.2    c-1,0-2-0.2-2.7-0.9l1.3-1.4c0.4,0.5,0.9,0.7,1.5,0.7c0.5,0,1-0.1,1-0.5c0-1.1-3.5-0.2-3.5-2.8c0-1.6,1.4-2.3,2.9-2.3    c0.9,0,1.9,0.2,2.5,0.9L696,305.5z"/>
		<path class="st6" d="M703.2,305.2h-1.8v2.3c0,0.7,0.1,1.3,1,1.3c0.2,0,0.7,0,0.9-0.2v1.8c-0.5,0.2-1,0.2-1.5,0.2    c-1.4,0-2.5-0.6-2.5-2.1v-3.2h-1.3v-1.7h1.3v-2h2.1v2h1.8V305.2z"/>
		<path class="st6" d="M704.3,309.6c0-0.5,0.4-0.9,0.8-0.9s0.8,0.4,0.8,0.9c0,0.5-0.3,0.9-0.8,0.9    C704.6,310.5,704.3,310.1,704.3,309.6z"/>
	</g>
</g>
<line class="st7" x1="26.3" y1="61.9" x2="414.8" y2="61.9"/>
<line class="st7" x1="416.2" y1="61.9" x2="774.8" y2="61.9"/>
<line class="st8" x1="397.8" y1="76.1" x2="397.8" y2="324.5"/>
<line class="st7" x1="397.8" y1="85.5" x2="397.8" y2="324.5"/>
<path class="st8" d="M425.2,48.6c0,15.2-12.3,27.5-27.5,27.5c-15.2,0-27.5-12.3-27.5-27.5c0-15.2,12.3-27.5,27.5-27.5  C412.9,21.1,425.2,33.4,425.2,48.6z"/>
<path class="st5" d="M425.2,48.6c0,15.2-12.3,27.5-27.5,27.5c-15.2,0-27.5-12.3-27.5-27.5c0-15.2,12.3-27.5,27.5-27.5  C412.9,21.1,425.2,33.4,425.2,48.6z"/>
<g>
	<g>
		<path class="st6" d="M383.1,40.3h1.8l5.7,15.5l5.7-15.5h1.7L391.4,58h-1.6L383.1,40.3z"/>
		<path class="st6" d="M402.4,54.7c0.9,1.5,2.3,2.2,4,2.2c2.2,0,4-1.3,4-3.5c0-4.9-9.1-2-9.1-8.8c0-3.1,2.7-4.8,5.7-4.8    c1.9,0,3.6,0.6,4.8,2.2l-1.4,1c-0.8-1.1-1.9-1.7-3.4-1.7c-2.1,0-4,1.1-4,3.3c0,5.3,9.1,2.1,9.1,8.8c0,3.2-2.6,5-5.5,5    c-2.3,0-4.4-0.7-5.7-2.7L402.4,54.7z"/>
	</g>
</g>
<g>
	<g>
		<path class="st6" d="M447.1,146.5c-0.1-1.3-0.2-2.9-0.1-4.1h0c-0.3,1.1-0.7,2.3-1.2,3.6l-1.7,4.6h-0.9l-1.5-4.5    c-0.4-1.3-0.8-2.5-1.1-3.7h0c0,1.2-0.1,2.8-0.2,4.2l-0.3,4h-1.2l0.7-9.4h1.6l1.6,4.6c0.4,1.2,0.7,2.2,1,3.2h0c0.2-1,0.6-2,1-3.2    l1.7-4.6h1.6l0.6,9.4h-1.2L447.1,146.5z"/>
		<path class="st6" d="M454.2,150.6l-0.1-0.9h0c-0.4,0.5-1.1,1-2.1,1c-1.4,0-2.1-1-2.1-1.9c0-1.6,1.5-2.5,4.1-2.5v-0.1    c0-0.6-0.2-1.6-1.5-1.6c-0.6,0-1.3,0.2-1.8,0.5l-0.3-0.8c0.6-0.4,1.4-0.6,2.2-0.6c2.1,0,2.6,1.4,2.6,2.8v2.5c0,0.6,0,1.2,0.1,1.6    H454.2z M454,147.2c-1.3,0-2.9,0.2-2.9,1.5c0,0.8,0.5,1.2,1.2,1.2c0.9,0,1.4-0.6,1.6-1.1c0-0.1,0.1-0.3,0.1-0.4V147.2z"/>
		<path class="st6" d="M458.4,147L458.4,147c0.2-0.2,0.4-0.5,0.6-0.8l2-2.3h1.5l-2.6,2.8l3,4h-1.5l-2.3-3.2l-0.6,0.7v2.5h-1.2v-9.9    h1.2V147z"/>
		<path class="st6" d="M464.5,147.5c0,1.7,1.1,2.4,2.3,2.4c0.9,0,1.4-0.2,1.9-0.4l0.2,0.9c-0.4,0.2-1.2,0.4-2.3,0.4    c-2.1,0-3.3-1.4-3.3-3.4s1.2-3.7,3.2-3.7c2.2,0,2.8,1.9,2.8,3.2c0,0.3,0,0.4,0,0.6H464.5z M468.1,146.6c0-0.8-0.3-2-1.7-2    c-1.2,0-1.8,1.1-1.9,2H468.1z"/>
		<path class="st6" d="M475.3,141.9v1.9h1.8v0.9h-1.8v3.7c0,0.8,0.2,1.3,0.9,1.3c0.3,0,0.6,0,0.7-0.1l0.1,0.9    c-0.2,0.1-0.6,0.2-1.1,0.2c-0.6,0-1-0.2-1.3-0.5c-0.3-0.4-0.5-1-0.5-1.8v-3.7H473v-0.9h1.1v-1.6L475.3,141.9z"/>
		<path class="st6" d="M478.4,140.7h1.2v4.2h0c0.2-0.4,0.5-0.7,0.9-0.9c0.4-0.2,0.8-0.4,1.3-0.4c0.9,0,2.4,0.6,2.4,2.9v4h-1.2v-3.9    c0-1.1-0.4-2-1.6-2c-0.8,0-1.4,0.6-1.7,1.2c-0.1,0.2-0.1,0.4-0.1,0.6v4.1h-1.2V140.7z"/>
		<path class="st6" d="M486.9,147.5c0,1.7,1.1,2.4,2.3,2.4c0.9,0,1.4-0.2,1.9-0.4l0.2,0.9c-0.4,0.2-1.2,0.4-2.3,0.4    c-2.1,0-3.3-1.4-3.3-3.4s1.2-3.7,3.2-3.7c2.2,0,2.8,1.9,2.8,3.2c0,0.3,0,0.4,0,0.6H486.9z M490.5,146.6c0-0.8-0.3-2-1.7-2    c-1.2,0-1.8,1.1-1.9,2H490.5z"/>
		<path class="st6" d="M501,150.4c-0.3,0.2-1,0.4-1.9,0.4c-2,0-3.4-1.4-3.4-3.5c0-2.1,1.4-3.6,3.6-3.6c0.7,0,1.4,0.2,1.7,0.4l-0.3,1    c-0.3-0.2-0.8-0.3-1.4-0.3c-1.6,0-2.4,1.1-2.4,2.6c0,1.6,1,2.5,2.4,2.5c0.7,0,1.2-0.2,1.5-0.3L501,150.4z"/>
		<path class="st6" d="M508.5,147.2c0,2.5-1.7,3.6-3.4,3.6c-1.8,0-3.3-1.3-3.3-3.5c0-2.3,1.5-3.6,3.4-3.6    C507.2,143.7,508.5,145.1,508.5,147.2z M503.1,147.3c0,1.5,0.9,2.6,2.1,2.6c1.2,0,2.1-1.1,2.1-2.6c0-1.1-0.6-2.6-2-2.6    C503.7,144.6,503.1,146,503.1,147.3z"/>
		<path class="st6" d="M510,145.7c0-0.7,0-1.3-0.1-1.8h1.1l0.1,1.1h0c0.4-0.6,1-1.2,2.1-1.2c0.9,0,1.6,0.6,1.9,1.4h0    c0.2-0.4,0.5-0.7,0.8-0.9c0.4-0.3,0.9-0.5,1.5-0.5c0.9,0,2.2,0.6,2.2,2.9v4h-1.2v-3.8c0-1.3-0.5-2.1-1.5-2.1    c-0.7,0-1.2,0.5-1.5,1.1c-0.1,0.2-0.1,0.4-0.1,0.6v4.2h-1.2v-4.1c0-1.1-0.5-1.9-1.4-1.9c-0.8,0-1.3,0.6-1.5,1.2    c-0.1,0.2-0.1,0.4-0.1,0.6v4.1H510V145.7z"/>
		<path class="st6" d="M521.7,146.1c0-0.9,0-1.6-0.1-2.2h1.1l0.1,1.2h0c0.5-0.8,1.3-1.3,2.4-1.3c1.6,0,2.9,1.4,2.9,3.4    c0,2.4-1.5,3.6-3.1,3.6c-0.9,0-1.7-0.4-2.1-1.1h0v3.7h-1.2V146.1z M522.9,147.9c0,0.2,0,0.4,0.1,0.5c0.2,0.9,1,1.4,1.8,1.4    c1.3,0,2.1-1.1,2.1-2.6c0-1.4-0.7-2.5-2-2.5c-0.8,0-1.6,0.6-1.9,1.5c0,0.2-0.1,0.3-0.1,0.5V147.9z"/>
		<path class="st6" d="M530.4,147.5c0,1.7,1.1,2.4,2.3,2.4c0.9,0,1.4-0.2,1.9-0.4l0.2,0.9c-0.4,0.2-1.2,0.4-2.3,0.4    c-2.1,0-3.3-1.4-3.3-3.4s1.2-3.7,3.2-3.7c2.2,0,2.8,1.9,2.8,3.2c0,0.3,0,0.4,0,0.6H530.4z M534,146.6c0-0.8-0.3-2-1.7-2    c-1.2,0-1.8,1.1-1.9,2H534z"/>
		<path class="st6" d="M538.2,141.9v1.9h1.8v0.9h-1.8v3.7c0,0.8,0.2,1.3,0.9,1.3c0.3,0,0.6,0,0.7-0.1l0.1,0.9    c-0.2,0.1-0.6,0.2-1.1,0.2c-0.6,0-1-0.2-1.3-0.5c-0.3-0.4-0.5-1-0.5-1.8v-3.7h-1.1v-0.9h1.1v-1.6L538.2,141.9z"/>
		<path class="st6" d="M542.7,142c0,0.4-0.3,0.8-0.8,0.8c-0.4,0-0.7-0.3-0.7-0.8c0-0.4,0.3-0.8,0.8-0.8    C542.4,141.2,542.7,141.5,542.7,142z M541.3,150.6v-6.8h1.2v6.8H541.3z"/>
		<path class="st6" d="M546.1,141.9v1.9h1.8v0.9h-1.8v3.7c0,0.8,0.2,1.3,0.9,1.3c0.3,0,0.6,0,0.7-0.1l0.1,0.9    c-0.2,0.1-0.6,0.2-1.1,0.2c-0.6,0-1-0.2-1.3-0.5c-0.4-0.4-0.5-1-0.5-1.8v-3.7h-1.1v-0.9h1.1v-1.6L546.1,141.9z"/>
		<path class="st6" d="M550.6,142c0,0.4-0.3,0.8-0.8,0.8c-0.4,0-0.7-0.3-0.7-0.8c0-0.4,0.3-0.8,0.8-0.8    C550.3,141.2,550.6,141.5,550.6,142z M549.2,150.6v-6.8h1.2v6.8H549.2z"/>
		<path class="st6" d="M558.6,147.2c0,2.5-1.7,3.6-3.4,3.6c-1.8,0-3.3-1.3-3.3-3.5c0-2.3,1.5-3.6,3.4-3.6    C557.3,143.7,558.6,145.1,558.6,147.2z M553.3,147.3c0,1.5,0.9,2.6,2.1,2.6c1.2,0,2.1-1.1,2.1-2.6c0-1.1-0.6-2.6-2-2.6    S553.3,146,553.3,147.3z"/>
		<path class="st6" d="M560.2,145.7c0-0.7,0-1.3-0.1-1.8h1.1l0.1,1.1h0c0.3-0.6,1.1-1.3,2.2-1.3c0.9,0,2.4,0.6,2.4,2.9v4h-1.2v-3.9    c0-1.1-0.4-2-1.6-2c-0.8,0-1.4,0.6-1.7,1.3c-0.1,0.2-0.1,0.4-0.1,0.6v4.1h-1.2V145.7z"/>
		<path class="st6" d="M571.7,140.5c0.7,0,1.2,0.5,1.2,1.2s-0.5,1.2-1.2,1.2s-1.2-0.5-1.2-1.2S571.1,140.5,571.7,140.5z     M570.7,143.8h2.1v6.8h-2.1V143.8z"/>
		<path class="st6" d="M574.3,143.8h2.1v1.1h0c0.4-0.8,1-1.3,2-1.3c0.2,0,0.5,0,0.7,0.1v1.9c-0.3-0.1-0.6-0.1-0.9-0.1    c-1.6,0-1.8,0.9-1.8,2.3v2.8h-2.1V143.8z"/>
		<path class="st6" d="M580,143.8h2.1v1.1h0c0.4-0.8,1-1.3,2-1.3c0.2,0,0.5,0,0.7,0.1v1.9c-0.3-0.1-0.6-0.1-0.9-0.1    c-1.6,0-1.8,0.9-1.8,2.3v2.8H580V143.8z"/>
		<path class="st6" d="M591.9,149.5c-0.7,0.9-1.8,1.3-2.9,1.3c-2.1,0-3.8-1.4-3.8-3.6c0-2.2,1.7-3.6,3.8-3.6c2,0,3.2,1.4,3.2,3.6    v0.7h-4.9c0.2,0.8,0.8,1.3,1.6,1.3c0.7,0,1.1-0.4,1.5-0.8L591.9,149.5z M590.1,146.5c0-0.7-0.5-1.3-1.3-1.3    c-0.9,0-1.4,0.6-1.5,1.3H590.1z"/>
		<path class="st6" d="M593.5,140.1h2.1v10.6h-2.1V140.1z"/>
		<path class="st6" d="M603.5,149.5c-0.7,0.9-1.8,1.3-2.9,1.3c-2.1,0-3.8-1.4-3.8-3.6c0-2.2,1.7-3.6,3.8-3.6c2,0,3.2,1.4,3.2,3.6    v0.7H599c0.2,0.8,0.8,1.3,1.6,1.3c0.7,0,1.1-0.4,1.5-0.8L603.5,149.5z M601.8,146.5c0-0.7-0.5-1.3-1.3-1.3c-0.9,0-1.4,0.6-1.5,1.3    H601.8z"/>
		<path class="st6" d="M604.4,143.8h2.3l1.7,4.6h0l1.6-4.6h2.1l-2.7,6.8h-2.2L604.4,143.8z"/>
		<path class="st6" d="M617.2,149.8L617.2,149.8c-0.5,0.7-1.3,1-2.2,1c-1.3,0-2.4-0.7-2.4-2.1c0-2.4,2.9-2.4,4.6-2.4    c0-0.7-0.6-1.2-1.3-1.2c-0.7,0-1.3,0.3-1.7,0.8l-1.1-1.1c0.8-0.7,1.9-1.1,3-1.1c2.5,0,3.1,1.2,3.1,3.5v3.5h-1.9V149.8z     M616.7,147.7c-0.6,0-2.1,0.1-2.1,1c0,0.5,0.5,0.7,1,0.7c0.8,0,1.6-0.4,1.6-1.3v-0.4H616.7z"/>
		<path class="st6" d="M620.4,143.8h2v0.9h0c0.3-0.5,1-1.1,2-1.1c2.1,0,2.5,1.4,2.5,3.2v3.8h-2.1v-3.3c0-0.8,0-1.8-1.1-1.8    c-1.1,0-1.3,0.9-1.3,1.7v3.4h-2.1V143.8z"/>
		<path class="st6" d="M633.1,145.5h-1.8v2.3c0,0.7,0.1,1.3,1,1.3c0.2,0,0.7,0,0.9-0.2v1.8c-0.5,0.2-1,0.2-1.5,0.2    c-1.4,0-2.5-0.6-2.5-2.1v-3.2h-1.3v-1.7h1.3v-2h2.1v2h1.8V145.5z"/>
		<path class="st6" d="M634.2,149.9c0-0.5,0.3-0.9,0.8-0.9s0.8,0.4,0.8,0.9c0,0.5-0.3,0.9-0.8,0.9    C634.5,150.8,634.2,150.4,634.2,149.9z"/>
	</g>
</g>
<g>
</g>
<g>
</g>
<g>
</g>
<g>
</g>
<g>
</g>
<g>
</g>
<g>
</g>
<g>
</g>
<g>
</g>
<g>
</g>
<g>
</g>
<g>
</g>
<g>
</g>
<g>
</g>
<g>
</g>
</svg>